SplineFontDB: 3.2
FontName: ATM540-Regular
FullName: ATM540-Regular
FamilyName: ATM 540
Weight: Book
Copyright: AzhaguThamizh
Version: 1.001
ItalicAngle: -11
UnderlinePosition: -271
UnderlineWidth: 102
Ascent: 1600
Descent: 400
InvalidEm: 0
sfntRevision: 0x00010042
LayerCount: 2
Layer: 0 1 "Back" 1
Layer: 1 1 "Fore" 0
XUID: [1021 192 2086997156 26001]
StyleMap: 0x0040
FSType: 8
OS2Version: 3
OS2_WeightWidthSlopeOnly: 0
OS2_UseTypoMetrics: 0
CreationTime: 1536984817
ModificationTime: 1545715603
PfmFamily: 17
TTFWeight: 400
TTFWidth: 5
LineGap: 0
VLineGap: 0
Panose: 2 11 6 4 2 2 2 2 2 4
OS2TypoAscent: 2000
OS2TypoAOffset: 0
OS2TypoDescent: -1320
OS2TypoDOffset: 0
OS2TypoLinegap: 0
OS2WinAscent: 2000
OS2WinAOffset: 0
OS2WinDescent: 744
OS2WinDOffset: 0
HheadAscent: 2000
HheadAOffset: 0
HheadDescent: -1320
HheadDOffset: 0
OS2SubXSize: 1400
OS2SubYSize: 1300
OS2SubXOff: 0
OS2SubYOff: 0
OS2SupXSize: 1400
OS2SupYSize: 1300
OS2SupXOff: 0
OS2SupYOff: 0
OS2StrikeYSize: 100
OS2StrikeYPos: 518
OS2CapHeight: 1586
OS2XHeight: -200
OS2Vendor: '    '
OS2CodePages: 00000001.00000000
OS2UnicodeRanges: 00100003.00000000.00000000.00000000
Lookup: 4 0 0 "'akhn' Akhand in Tamil2 lookup 0" { "'akhn' Akhand in Tamil2 lookup 0 subtable"  } ['akhn' ('tml2' <'dflt' > ) ]
Lookup: 4 0 0 "'akhn' Akhand in Tamil lookup 1" { "'akhn' Akhand in Tamil lookup 1 subtable"  } ['akhn' ('taml' <'dflt' > ) ]
Lookup: 4 0 0 "'half' Half Forms in Tamil lookup 2" { "'half' Half Forms in Tamil lookup 2 subtable"  } ['half' ('taml' <'dflt' > ) ]
Lookup: 4 0 0 "'haln' Halant Forms in Tamil2 lookup 3" { "'haln' Halant Forms in Tamil2 lookup 3 subtable"  } ['haln' ('tml2' <'dflt' > ) ]
Lookup: 4 0 0 "'haln' Halant Forms in Tamil lookup 4" { "'haln' Halant Forms in Tamil lookup 4 subtable"  } ['haln' ('taml' <'dflt' > ) ]
Lookup: 4 0 0 "'abvs' Above Base Substitutions lookup 5" { "'abvs' Above Base Substitutions lookup 5 subtable"  } ['abvs' ('taml' <'dflt' > 'tml2' <'dflt' > ) ]

StartChar: .notdef
Encoding: 65536 -1 0
Width: 1600
Flags: W
LayerCount: 2
Fore
SplineSet
100 0 m 1,0,-1
 100 1600 l 1,1,-1
 1500 1600 l 1,2,-1
 1500 0 l 1,3,-1
 100 0 l 1,0,-1
1400 100 m 1,4,-1
 1400 1500 l 1,5,-1
 200 1500 l 1,6,-1
 200 100 l 1,7,-1
 1400 100 l 1,4,-1
EndSplineSet
EndChar

StartChar: exclam
Encoding: 33 33 4
Width: 488
GlyphClass: 2
Flags: W
LayerCount: 2
Fore
SplineSet
396 1022 m 1,0,1
 332 832 332 832 300 649 c 128,-1,2
 268 466 268 466 268 274 c 0,3,4
 268 180 268 180 280 116 c 1,5,6
 264 112 264 112 249 112 c 128,-1,7
 234 112 234 112 226 112 c 0,8,9
 194 112 194 112 176 124 c 1,10,11
 134 212 134 212 134 472 c 0,12,13
 134 672 134 672 153 870 c 128,-1,14
 172 1068 172 1068 192 1102 c 1,15,16
 228 1102 228 1102 252 1100 c 128,-1,17
 276 1098 276 1098 306 1086 c 0,18,19
 370 1062 370 1062 396 1022 c 1,0,1
418 -34 m 1,20,21
 290 -162 290 -162 284 -222 c 1,22,23
 244 -222 244 -222 210 -209 c 128,-1,24
 176 -196 176 -196 132 -166 c 0,25,26
 72 -124 72 -124 70 -92 c 1,27,28
 172 38 172 38 262 38 c 0,29,30
 358 38 358 38 418 -34 c 1,20,21
EndSplineSet
EndChar

StartChar: quotedbl
Encoding: 34 34 5
Width: 710
GlyphClass: 2
Flags: W
LayerCount: 2
Fore
SplineSet
140 924 m 1,0,-1
 92 1198 l 1,1,-1
 92 1432 l 1,2,-1
 292 1432 l 1,3,-1
 292 1198 l 1,4,-1
 248 924 l 1,5,-1
 140 924 l 1,0,-1
464 924 m 1,6,-1
 416 1198 l 1,7,-1
 416 1432 l 1,8,-1
 616 1432 l 1,9,-1
 616 1198 l 1,10,-1
 570 924 l 1,11,-1
 464 924 l 1,6,-1
EndSplineSet
EndChar

StartChar: numbersign
Encoding: 35 35 6
Width: 1112
GlyphClass: 2
Flags: W
LayerCount: 2
Fore
SplineSet
100 -24 m 1,0,-1
 186 392 l 1,1,-1
 20 392 l 1,2,-1
 20 538 l 1,3,-1
 214 538 l 1,4,-1
 288 892 l 1,5,-1
 20 892 l 1,6,-1
 20 1038 l 1,7,-1
 316 1038 l 1,8,-1
 402 1456 l 1,9,-1
 548 1456 l 1,10,-1
 462 1038 l 1,11,-1
 770 1038 l 1,12,-1
 856 1456 l 1,13,-1
 1002 1456 l 1,14,-1
 918 1038 l 1,15,-1
 1086 1038 l 1,16,-1
 1086 892 l 1,17,-1
 888 892 l 1,18,-1
 816 538 l 1,19,-1
 1086 538 l 1,20,-1
 1086 392 l 1,21,-1
 786 392 l 1,22,-1
 702 -24 l 1,23,-1
 554 -24 l 1,24,-1
 638 392 l 1,25,-1
 332 392 l 1,26,-1
 248 -24 l 1,27,-1
 100 -24 l 1,0,-1
362 538 m 1,28,-1
 668 538 l 1,29,-1
 742 892 l 1,30,-1
 434 892 l 1,31,-1
 362 538 l 1,28,-1
EndSplineSet
EndChar

StartChar: dollar
Encoding: 36 36 7
Width: 1112
GlyphClass: 2
Flags: W
LayerCount: 2
Fore
SplineSet
498 -206 m 1,0,-1
 498 -30 l 1,1,2
 370 -18 370 -18 289 24 c 128,-1,3
 208 66 208 66 140 166 c 0,4,5
 86 252 86 252 72 398 c 1,6,-1
 248 430 l 1,7,8
 266 298 266 298 320 222 c 1,9,10
 392 132 392 132 498 118 c 1,11,-1
 498 678 l 1,12,13
 446 684 446 684 391 706 c 128,-1,14
 336 728 336 728 276 762 c 0,15,16
 202 804 202 804 146 892 c 1,17,-1
 114 980 l 1,18,19
 102 1028 102 1028 102 1080 c 0,20,21
 102 1260 102 1260 234 1384 c 1,22,23
 318 1456 318 1456 498 1480 c 1,24,-1
 498 1564 l 1,25,-1
 602 1564 l 1,26,-1
 602 1480 l 1,27,28
 674 1480 674 1480 732 1458 c 128,-1,29
 790 1436 790 1436 844 1390 c 0,30,31
 954 1296 954 1296 984 1126 c 1,32,-1
 802 1100 l 1,33,34
 790 1200 790 1200 736 1256 c 1,35,36
 692 1308 692 1308 602 1332 c 1,37,-1
 602 824 l 1,38,39
 748 790 748 790 778 772 c 1,40,41
 856 742 856 742 908 689 c 128,-1,42
 960 636 960 636 989 561 c 128,-1,43
 1018 486 1018 486 1018 408 c 0,44,45
 1018 224 1018 224 902 102 c 0,46,47
 848 42 848 42 768 7 c 128,-1,48
 688 -28 688 -28 602 -28 c 1,49,-1
 602 -206 l 1,50,-1
 498 -206 l 1,0,-1
498 1334 m 1,51,52
 396 1322 396 1322 336 1250 c 1,53,54
 278 1188 278 1188 278 1094 c 0,55,56
 278 1008 278 1008 326 942 c 1,57,58
 374 884 374 884 498 846 c 1,59,-1
 498 1334 l 1,51,52
602 118 m 1,60,61
 704 130 704 130 771 207 c 128,-1,62
 838 284 838 284 838 396 c 0,63,64
 838 486 838 486 793 543 c 128,-1,65
 748 600 748 600 602 654 c 1,66,-1
 602 118 l 1,60,61
EndSplineSet
EndChar

StartChar: percent
Encoding: 37 37 8
Width: 1778
GlyphClass: 2
Flags: W
LayerCount: 2
Fore
SplineSet
116 1088 m 0,0,1
 116 1240 116 1240 193 1348 c 128,-1,2
 270 1456 270 1456 416 1456 c 0,3,4
 548 1456 548 1456 638 1359 c 128,-1,5
 728 1262 728 1262 728 1078 c 0,6,7
 728 900 728 900 639 800 c 128,-1,8
 550 700 550 700 418 700 c 0,9,10
 292 700 292 700 202 796 c 0,11,12
 164 840 164 840 138 916 c 0,13,14
 128 950 128 950 122 993 c 128,-1,15
 116 1036 116 1036 116 1088 c 0,0,1
422 1334 m 0,16,17
 356 1334 356 1334 313 1279 c 128,-1,18
 270 1224 270 1224 270 1070 c 0,19,20
 270 936 270 936 312 876 c 0,21,22
 356 820 356 820 422 820 c 256,23,24
 488 820 488 820 532 880 c 128,-1,25
 576 940 576 940 576 1084 c 0,26,27
 576 1218 576 1218 533 1276 c 128,-1,28
 490 1334 490 1334 422 1334 c 0,16,17
422 -52 m 1,29,-1
 1206 1456 l 1,30,-1
 1348 1456 l 1,31,-1
 568 -52 l 1,32,-1
 422 -52 l 1,29,-1
1042 336 m 0,33,34
 1042 490 1042 490 1119 597 c 128,-1,35
 1196 704 1196 704 1344 704 c 0,36,37
 1476 704 1476 704 1566 608 c 128,-1,38
 1656 512 1656 512 1656 326 c 0,39,40
 1656 148 1656 148 1565 48 c 128,-1,41
 1474 -52 1474 -52 1344 -52 c 0,42,43
 1218 -52 1218 -52 1128 44 c 0,44,45
 1090 88 1090 88 1064 164 c 0,46,47
 1054 198 1054 198 1048 241 c 128,-1,48
 1042 284 1042 284 1042 336 c 0,33,34
1348 584 m 0,49,50
 1284 584 1284 584 1240 528 c 128,-1,51
 1196 472 1196 472 1196 318 c 0,52,53
 1196 188 1196 188 1238 124 c 1,54,55
 1282 68 1282 68 1348 68 c 256,56,57
 1414 68 1414 68 1458 124 c 128,-1,58
 1502 180 1502 180 1502 332 c 0,59,60
 1502 472 1502 472 1456 526 c 1,61,62
 1414 584 1414 584 1348 584 c 0,49,50
EndSplineSet
EndChar

StartChar: ampersand
Encoding: 38 38 9
Width: 1334
GlyphClass: 2
Flags: W
LayerCount: 2
Fore
SplineSet
950 168 m 1,0,1
 864 70 864 70 761 23 c 128,-1,2
 658 -24 658 -24 540 -24 c 0,3,4
 318 -24 318 -24 190 124 c 0,5,6
 86 246 86 246 86 394 c 0,7,8
 86 526 86 526 170 634 c 128,-1,9
 254 742 254 742 426 822 c 1,10,11
 338 926 338 926 298 998 c 1,12,13
 266 1074 266 1074 266 1136 c 0,14,15
 266 1266 266 1266 367 1361 c 128,-1,16
 468 1456 468 1456 622 1456 c 0,17,18
 762 1456 762 1456 858 1366 c 128,-1,19
 954 1276 954 1276 954 1150 c 0,20,21
 954 946 954 946 684 802 c 1,22,-1
 940 474 l 1,23,24
 978 552 978 552 1008 674 c 1,25,-1
 1192 634 l 1,26,27
 1144 448 1144 448 1064 326 c 1,28,29
 1160 200 1160 200 1288 106 c 1,30,-1
 1170 -34 l 1,31,32
 1068 32 1068 32 950 168 c 1,0,1
592 916 m 1,33,34
 702 978 702 978 738 1031 c 128,-1,35
 774 1084 774 1084 774 1146 c 0,36,37
 774 1218 774 1218 728 1265 c 128,-1,38
 682 1312 682 1312 612 1312 c 0,39,40
 544 1312 544 1312 495 1266 c 128,-1,41
 446 1220 446 1220 446 1154 c 1,42,-1
 448 1122 l 1,43,-1
 460 1090 l 1,44,-1
 482 1048 l 1,45,-1
 514 1006 l 1,46,-1
 592 916 l 1,33,34
840 308 m 1,47,-1
 518 708 l 1,48,49
 374 622 374 622 326 548 c 0,50,51
 304 514 304 514 290 477 c 128,-1,52
 276 440 276 440 276 406 c 0,53,54
 276 318 276 318 345 224 c 128,-1,55
 414 130 414 130 542 130 c 0,56,57
 620 130 620 130 703 178 c 128,-1,58
 786 226 786 226 840 308 c 1,47,-1
EndSplineSet
EndChar

StartChar: quotesingle
Encoding: 39 39 10
Width: 382
GlyphClass: 2
Flags: W
LayerCount: 2
Fore
SplineSet
132 924 m 1,0,-1
 88 1192 l 1,1,-1
 88 1432 l 1,2,-1
 288 1432 l 1,3,-1
 288 1192 l 1,4,-1
 242 924 l 1,5,-1
 132 924 l 1,0,-1
EndSplineSet
EndChar

StartChar: parenleft
Encoding: 40 40 11
Width: 330
GlyphClass: 2
Flags: W
LayerCount: 2
Fore
SplineSet
550 1356 m 1,0,1
 408 1222 408 1222 304 932 c 0,2,3
 252 784 252 784 226 649 c 128,-1,4
 200 514 200 514 200 378 c 0,5,6
 200 146 200 146 274 -78 c 128,-1,7
 348 -302 348 -302 476 -414 c 1,8,-1
 432 -482 l 2,9,10
 390 -546 390 -546 346 -560 c 1,11,12
 292 -548 292 -548 226 -404 c 128,-1,13
 160 -260 160 -260 115 -22 c 128,-1,14
 70 216 70 216 70 388 c 0,15,16
 70 632 70 632 132 886 c 0,17,18
 160 1000 160 1000 192 1091 c 128,-1,19
 224 1182 224 1182 268 1264 c 0,20,21
 346 1414 346 1414 400 1414 c 0,22,23
 498 1414 498 1414 550 1356 c 1,0,1
EndSplineSet
EndChar

StartChar: parenright
Encoding: 41 41 12
Width: 530
GlyphClass: 2
Flags: W
LayerCount: 2
Fore
SplineSet
460 426 m 0,0,1
 460 134 460 134 380 -168 c 0,2,3
 276 -568 276 -568 214 -592 c 1,4,5
 88 -538 88 -538 46 -460 c 1,6,7
 130 -460 130 -460 232 -155 c 128,-1,8
 334 150 334 150 334 420 c 0,9,10
 334 730 334 730 272 918 c 0,11,12
 194 1158 194 1158 -4 1260 c 1,13,14
 2 1302 2 1302 60 1362 c 1,15,16
 114 1426 114 1426 148 1426 c 0,17,18
 188 1426 188 1426 283 1230 c 128,-1,19
 378 1034 378 1034 405 939 c 128,-1,20
 432 844 432 844 446 718 c 128,-1,21
 460 592 460 592 460 426 c 0,0,1
EndSplineSet
EndChar

StartChar: asterisk
Encoding: 42 42 13
Width: 778
GlyphClass: 2
Flags: W
LayerCount: 2
Fore
SplineSet
62 1168 m 1,0,-1
 108 1308 l 1,1,2
 254 1258 254 1258 334 1212 c 1,3,-1
 314 1456 l 1,4,-1
 456 1456 l 1,5,-1
 456 1388 l 1,6,-1
 448 1342 l 1,7,-1
 432 1214 l 1,8,-1
 534 1260 l 1,9,-1
 664 1308 l 1,10,-1
 708 1168 l 1,11,12
 586 1132 586 1132 464 1114 c 1,13,14
 530 1058 530 1058 632 930 c 1,15,-1
 516 846 l 1,16,17
 466 912 466 912 382 1056 c 1,18,19
 308 916 308 916 254 846 c 1,20,-1
 140 930 l 1,21,22
 200 1004 200 1004 232 1040 c 128,-1,23
 264 1076 264 1076 302 1114 c 1,24,25
 176 1138 176 1138 62 1168 c 1,0,-1
EndSplineSet
EndChar

StartChar: plus
Encoding: 43 43 14
Width: 1168
GlyphClass: 2
Flags: W
LayerCount: 2
Fore
SplineSet
500 232 m 1,0,-1
 500 624 l 1,1,-1
 112 624 l 1,2,-1
 112 788 l 1,3,-1
 500 788 l 1,4,-1
 500 1178 l 1,5,-1
 666 1178 l 1,6,-1
 666 788 l 1,7,-1
 1056 788 l 1,8,-1
 1056 624 l 1,9,-1
 666 624 l 1,10,-1
 666 232 l 1,11,-1
 500 232 l 1,0,-1
EndSplineSet
EndChar

StartChar: comma
Encoding: 44 44 15
Width: 432
GlyphClass: 2
Flags: W
LayerCount: 2
Fore
SplineSet
298 236 m 0,0,1
 298 144 298 144 238 -23 c 128,-1,2
 178 -190 178 -190 112 -262 c 1,3,-1
 56 -228 l 1,4,-1
 78 -32 l 1,5,6
 78 100 78 100 28 182 c 1,7,8
 48 214 48 214 93 243 c 128,-1,9
 138 272 138 272 178 272 c 0,10,11
 298 272 298 272 298 236 c 0,0,1
EndSplineSet
EndChar

StartChar: hyphen
Encoding: 45 45 16
Width: 666
GlyphClass: 2
Flags: W
LayerCount: 2
Fore
SplineSet
64 430 m 1,0,-1
 64 606 l 1,1,-1
 604 606 l 1,2,-1
 604 430 l 1,3,-1
 64 430 l 1,0,-1
EndSplineSet
EndChar

StartChar: period
Encoding: 46 46 17
Width: 512
GlyphClass: 2
Flags: W
LayerCount: 2
Fore
SplineSet
380 160 m 1,0,-1
 326 80 l 1,1,2
 290 18 290 18 272 -40 c 1,3,4
 134 -10 134 -10 26 98 c 1,5,6
 144 248 144 248 226 248 c 0,7,8
 338 248 338 248 380 160 c 1,0,-1
EndSplineSet
EndChar

StartChar: slash
Encoding: 47 47 18
Width: 480
GlyphClass: 2
Flags: W
LayerCount: 2
Fore
SplineSet
764 1172 m 1,0,1
 644 1070 644 1070 354 406 c 0,2,3
 218 94 218 94 155 -128 c 128,-1,4
 92 -350 92 -350 92 -486 c 1,5,6
 -46 -456 -46 -456 -72 -400 c 1,7,-1
 -76 -378 l 1,8,9
 -76 -282 -76 -282 86 84 c 1,10,11
 138 224 138 224 244 476 c 2,12,-1
 444 934 l 2,13,14
 552 1172 552 1172 612 1236 c 1,15,16
 640 1248 640 1248 764 1172 c 1,0,1
EndSplineSet
EndChar

StartChar: zero
Encoding: 48 48 19
Width: 1018
GlyphClass: 2
Flags: W
LayerCount: 2
Fore
SplineSet
953 540 m 0,0,1
 953 457 953 457 946 390 c 128,-1,2
 939 323 939 323 922 273 c 0,3,4
 874 112 874 112 744 20 c 0,5,6
 636 -56 636 -56 503 -56 c 0,7,8
 279 -56 279 -56 161 112 c 0,9,10
 63 251 63 251 63 464 c 0,11,12
 63 714 63 714 197.5 862.5 c 128,-1,13
 332 1011 332 1011 554 1011 c 0,14,15
 734 1011 734 1011 848 870 c 0,16,17
 953 734 953 734 953 540 c 0,0,1
776 401 m 0,18,19
 776 598 776 598 731 726 c 0,20,21
 662 917 662 917 503 917 c 0,22,23
 373 917 373 917 307 794 c 0,24,25
 249 690 249 690 249 518 c 0,26,27
 249 337 249 337 323 202 c 0,28,29
 405 47 405 47 545 47 c 0,30,31
 654 47 654 47 720 168 c 0,32,33
 776 271 776 271 776 401 c 0,18,19
EndSplineSet
EndChar

StartChar: one
Encoding: 49 49 20
Width: 387
GlyphClass: 2
Flags: W
LayerCount: 2
Fore
SplineSet
329 -62 m 1,0,1
 242 -118 242 -118 170 -118 c 0,2,3
 126 -118 126 -118 126 -34 c 0,4,5
 126 -20 126 -20 128 12 c 128,-1,6
 130 44 130 44 138 111.5 c 128,-1,7
 146 179 146 179 146 222 c 0,8,9
 146 574 146 574 124 601 c 1,10,-1
 76 568 l 1,11,12
 62 583 62 583 24 658 c 1,13,14
 155 852 155 852 237 874 c 1,15,-1
 323 846 l 1,16,17
 287 836 287 836 287 333 c 0,18,19
 287 28 287 28 329 -62 c 1,0,1
EndSplineSet
EndChar

StartChar: two
Encoding: 50 50 21
Width: 1021
GlyphClass: 2
Flags: W
LayerCount: 2
Fore
SplineSet
955 -6 m 1,0,-1
 933 -36 l 1,1,2
 906 -26 906 -26 879 -21 c 128,-1,3
 852 -16 852 -16 810 -16 c 2,4,-1
 654 -18 l 2,5,6
 534 -18 534 -18 199 -88 c 1,7,8
 117 -62 117 -62 63 54 c 1,9,10
 238 144 238 144 369 238 c 0,11,12
 660 449 660 449 660 654 c 0,13,14
 660 762 660 762 560 762 c 0,15,16
 446 762 446 762 350.5 685 c 128,-1,17
 255 608 255 608 255 505 c 1,18,-1
 265 446 l 1,19,-1
 217 439 l 1,20,21
 168 439 168 439 130 471 c 128,-1,22
 92 503 92 503 92 543 c 0,23,24
 92 668 92 668 217.5 771.5 c 128,-1,25
 343 875 343 875 493 875 c 0,26,27
 610 875 610 875 694 803.5 c 128,-1,28
 778 732 778 732 778 612 c 0,29,30
 778 489 778 489 692 367 c 0,31,32
 634 281 634 281 516 184 c 1,33,-1
 371 72 l 1,34,35
 393 72 393 72 578 104 c 0,36,37
 630 114 630 114 708.5 124 c 128,-1,38
 787 134 787 134 839 134 c 1,39,40
 883 112 883 112 955 -6 c 1,0,-1
EndSplineSet
EndChar

StartChar: three
Encoding: 51 51 22
Width: 935
GlyphClass: 2
Flags: W
LayerCount: 2
Fore
SplineSet
870 305 m 0,0,1
 870 209 870 209 825 146 c 0,2,3
 792 103 792 103 712 48 c 0,4,5
 565 -46 565 -46 391 -46 c 0,6,7
 263 -46 263 -46 168 18 c 0,8,9
 63 86 63 86 63 197 c 0,10,11
 63 245 63 245 117 281 c 0,12,13
 168 313 168 313 233 313 c 0,14,15
 260 313 260 313 275 309 c 1,16,17
 260 279 260 279 260 218 c 0,18,19
 260 142 260 142 327.5 95 c 128,-1,20
 395 48 395 48 482 48 c 0,21,22
 579 48 579 48 645.5 103.5 c 128,-1,23
 712 159 712 159 712 249 c 0,24,25
 712 333 712 333 670 375 c 0,26,27
 622 423 622 423 507 423 c 0,28,29
 424 423 424 423 409 385 c 1,30,31
 317 421 317 421 317 500 c 0,32,33
 317 523 317 523 327 538 c 1,34,-1
 375 534 l 1,35,36
 459 534 459 534 540 599 c 128,-1,37
 621 664 621 664 621 724 c 0,38,39
 621 836 621 836 482 836 c 0,40,41
 405 836 405 836 336 801 c 128,-1,42
 267 766 267 766 267 712 c 0,43,44
 267 684 267 684 319 655 c 1,45,46
 271 621 271 621 206 621 c 0,47,48
 80 621 80 621 80 716 c 0,49,50
 80 816 80 816 199.5 877.5 c 128,-1,51
 319 939 319 939 489 939 c 0,52,53
 596 939 596 939 688 881 c 128,-1,54
 780 823 780 823 780 728 c 0,55,56
 780 666 780 666 738 624 c 0,57,58
 724 608 724 608 701 593 c 128,-1,59
 678 578 678 578 636 550 c 1,60,61
 870 509 870 509 870 305 c 0,0,1
EndSplineSet
EndChar

StartChar: four
Encoding: 52 52 23
Width: 1029
GlyphClass: 2
Flags: W
LayerCount: 2
Fore
SplineSet
957 237 m 1,0,1
 906 267 906 267 807 267 c 0,2,3
 767 267 767 267 749 258 c 1,4,-1
 748 130 l 2,5,6
 748 70 748 70 770 28 c 1,7,-1
 796 10 l 1,8,-1
 821 -6 l 1,9,10
 828 -32 828 -32 778 -50 c 0,11,12
 756 -58 756 -58 738 -61.5 c 128,-1,13
 720 -65 720 -65 693 -65 c 0,14,15
 619 -65 619 -65 599 -32 c 0,16,17
 590 -14 590 -14 590 50 c 0,18,19
 590 116 590 116 592 170 c 128,-1,20
 594 224 594 224 599 269 c 1,21,22
 565 269 565 269 478 253.5 c 128,-1,23
 391 238 391 238 347 231 c 2,24,-1
 162 202 l 1,25,26
 123 207 123 207 94.5 240 c 128,-1,27
 66 273 66 273 63 303 c 0,28,29
 63 357 63 357 166 491 c 0,30,31
 255 604 255 604 391 732 c 0,32,33
 473 808 473 808 579 883 c 0,34,35
 668 944 668 944 708 959 c 1,36,37
 749 959 749 959 783.5 902 c 128,-1,38
 818 845 818 845 812 816 c 1,39,40
 792 780 792 780 772 636 c 0,41,42
 760 550 760 550 756 514 c 128,-1,43
 752 478 752 478 752 431 c 1,44,45
 788 431 788 431 822 431 c 128,-1,46
 856 431 856 431 884 433 c 0,47,48
 921 433 921 433 937 427 c 1,49,50
 965 393 965 393 965 305 c 0,51,52
 965 260 965 260 957 237 c 1,0,1
648 760 m 1,53,54
 606 760 606 760 441 605.5 c 128,-1,55
 276 451 276 451 225 341 c 1,56,57
 363 383 363 383 441 399 c 0,58,59
 540 421 540 421 617 421 c 1,60,61
 617 478 617 478 621 520 c 0,62,63
 630 578 630 578 634.5 613 c 128,-1,64
 639 648 639 648 643.5 698 c 128,-1,65
 648 748 648 748 648 760 c 1,53,54
EndSplineSet
EndChar

StartChar: five
Encoding: 53 53 24
Width: 967
GlyphClass: 2
Flags: W
LayerCount: 2
Fore
SplineSet
902 423 m 0,0,1
 902 227 902 227 760.5 87.5 c 128,-1,2
 619 -52 619 -52 389 -52 c 0,3,4
 255 -52 255 -52 162 12 c 0,5,6
 63 85 63 85 63 204 c 0,7,8
 63 332 63 332 164 332 c 0,9,10
 238 332 238 332 285 242 c 1,11,12
 243 204 243 204 243 144 c 0,13,14
 243 30 243 30 379 30 c 0,15,16
 516 30 516 30 630 173 c 1,17,18
 730 305 730 305 730 429 c 0,19,20
 730 516 730 516 683.5 561 c 128,-1,21
 637 606 637 606 563 606 c 0,22,23
 538 606 538 606 511.5 601 c 128,-1,24
 485 596 485 596 453 581 c 0,25,26
 391 560 391 560 361 525 c 2,27,-1
 321 471 l 2,28,29
 301 446 301 446 267 446 c 0,30,31
 213 446 213 446 171 493 c 0,32,33
 141 529 141 529 135 570 c 1,34,35
 218 962 218 962 255 962 c 1,36,-1
 353 951 l 1,37,-1
 419 951 l 1,38,-1
 503 953 l 2,39,40
 585 953 585 953 675.5 978 c 128,-1,41
 766 1003 766 1003 767 1033 c 1,42,43
 802 1016 802 1016 840.5 972.5 c 128,-1,44
 879 929 879 929 881 908 c 0,45,46
 881 866 881 866 779.5 838 c 128,-1,47
 678 810 678 810 576 810 c 0,48,49
 395 810 395 810 349 830 c 1,50,51
 339 821 339 821 313 730 c 0,52,53
 303 690 303 690 299 674 c 0,54,55
 289 624 289 624 289 606 c 1,56,57
 401 710 401 710 583 710 c 0,58,59
 698 710 698 710 767 672 c 0,60,61
 825 640 825 640 868 556 c 0,62,63
 902 482 902 482 902 423 c 0,0,1
EndSplineSet
EndChar

StartChar: six
Encoding: 54 54 25
Width: 982
GlyphClass: 2
Flags: W
LayerCount: 2
Fore
SplineSet
917 332 m 0,0,1
 917 153 917 153 774 45 c 0,2,3
 646 -50 646 -50 469 -50 c 0,4,5
 287 -50 287 -50 179 50 c 0,6,7
 63 161 63 161 63 351 c 0,8,9
 63 636 63 636 200 807 c 0,10,11
 351 997 351 997 636 997 c 0,12,13
 756 997 756 997 820 939 c 0,14,15
 872 892 872 892 872 823 c 0,16,17
 872 770 872 770 832 731 c 128,-1,18
 792 692 792 692 732 692 c 0,19,20
 658 692 658 692 650 730 c 1,21,22
 698 746 698 746 698 807 c 0,23,24
 698 910 698 910 586 910 c 0,25,26
 455 910 455 910 387 830 c 0,27,28
 273 700 273 700 240 435 c 1,29,30
 289 500 289 500 390 544 c 128,-1,31
 491 588 491 588 594 588 c 0,32,33
 712 588 712 588 785 550 c 0,34,35
 917 478 917 478 917 332 c 0,0,1
749 307 m 0,36,37
 749 385 749 385 708 437 c 0,38,39
 657 498 657 498 576 498 c 0,40,41
 453 498 453 498 364 417.5 c 128,-1,42
 275 337 275 337 275 227 c 0,43,44
 275 132 275 132 341 81 c 0,45,46
 403 36 403 36 496 36 c 0,47,48
 604 36 604 36 676 116 c 0,49,50
 712 155 712 155 730.5 202 c 128,-1,51
 749 249 749 249 749 307 c 0,36,37
EndSplineSet
EndChar

StartChar: seven
Encoding: 55 55 26
Width: 985
GlyphClass: 2
Flags: W
LayerCount: 2
Fore
SplineSet
922 794 m 1,0,1
 826 726 826 726 693 520 c 0,2,3
 612 393 612 393 573 291 c 128,-1,4
 534 189 534 189 534 99 c 0,5,6
 534 22 534 22 572 -10 c 1,7,8
 462 -80 462 -80 395 -80 c 0,9,10
 345 -80 345 -80 330 -61 c 128,-1,11
 315 -42 315 -42 315 16 c 0,12,13
 315 116 315 116 391 283 c 0,14,15
 459 433 459 433 558 572 c 0,16,17
 640 693 640 693 749 794 c 1,18,19
 700 814 700 814 534 814 c 0,20,21
 453 814 453 814 339 782 c 0,22,23
 195 738 195 738 202 672 c 1,24,25
 152 672 152 672 103 728 c 0,26,27
 63 778 63 778 63 818 c 0,28,29
 63 942 63 942 511 942 c 0,30,31
 666 942 666 942 816 926 c 1,32,33
 854 926 854 926 886 879 c 1,34,35
 917 841 917 841 922 794 c 1,0,1
EndSplineSet
EndChar

StartChar: eight
Encoding: 56 56 27
Width: 985
GlyphClass: 2
Flags: W
LayerCount: 2
Fore
SplineSet
922 296 m 0,0,1
 922 155 922 155 767 48 c 1,2,3
 622 -47 622 -47 459 -47 c 0,4,5
 271 -47 271 -47 167 24.5 c 128,-1,6
 63 96 63 96 63 217 c 0,7,8
 63 388 63 388 317 516 c 1,9,10
 135 598 135 598 135 716 c 0,11,12
 135 818 135 818 260 897 c 0,13,14
 377 969 377 969 518 969 c 0,15,16
 830 969 830 969 830 782 c 0,17,18
 830 670 830 670 650 570 c 1,19,20
 780 523 780 523 838 475 c 0,21,22
 922 405 922 405 922 296 c 0,0,1
670 758 m 0,23,24
 670 868 670 868 538 868 c 0,25,26
 464 868 464 868 408.5 838 c 128,-1,27
 353 808 353 808 353 748 c 0,28,29
 353 682 353 682 534 612 c 1,30,31
 670 680 670 680 670 758 c 0,23,24
756 224 m 0,32,33
 756 309 756 309 660 371 c 0,34,35
 604 408 604 408 449 464 c 1,36,37
 275 363 275 363 275 242 c 0,38,39
 275 157 275 157 344 105.5 c 128,-1,40
 413 54 413 54 527 54 c 0,41,42
 614 54 614 54 685 101 c 128,-1,43
 756 148 756 148 756 224 c 0,32,33
EndSplineSet
EndChar

StartChar: nine
Encoding: 57 57 28
Width: 978
GlyphClass: 2
Flags: W
LayerCount: 2
Fore
SplineSet
913 547 m 0,0,1
 913 235 913 235 724 80 c 0,2,3
 581 -38 581 -38 379 -38 c 0,4,5
 291 -38 291 -38 227 2 c 0,6,7
 150 47 150 47 150 128 c 0,8,9
 150 177 150 177 185 213 c 128,-1,10
 220 249 220 249 271 249 c 0,11,12
 332 249 332 249 365 222 c 1,13,14
 307 202 307 202 307 142 c 0,15,16
 307 99 307 99 355 72 c 0,17,18
 395 52 395 52 451 52 c 0,19,20
 588 52 588 52 672 217 c 0,21,22
 730 339 730 339 730 457 c 1,23,24
 680 391 680 391 580 346 c 128,-1,25
 480 301 480 301 375 301 c 0,26,27
 243 301 243 301 159 367 c 0,28,29
 63 441 63 441 63 579 c 0,30,31
 63 752 63 752 207 864 c 0,32,33
 339 964 339 964 525 964 c 0,34,35
 710 964 710 964 811.5 854 c 128,-1,36
 913 744 913 744 913 547 c 0,0,1
680 670 m 0,37,38
 680 877 680 877 493 877 c 0,39,40
 387 877 387 877 313.5 791.5 c 128,-1,41
 240 706 240 706 240 592 c 0,42,43
 240 388 240 388 427 388 c 0,44,45
 514 388 514 388 597 476.5 c 128,-1,46
 680 565 680 565 680 670 c 0,37,38
EndSplineSet
EndChar

StartChar: colon
Encoding: 58 58 29
Width: 496
GlyphClass: 2
Flags: W
LayerCount: 2
Fore
SplineSet
426 712 m 1,0,-1
 372 632 l 1,1,2
 336 570 336 570 318 512 c 1,3,4
 180 542 180 542 72 650 c 1,5,6
 190 800 190 800 272 800 c 0,7,8
 384 800 384 800 426 712 c 1,0,-1
426 172 m 1,9,-1
 372 92 l 1,10,11
 336 30 336 30 318 -28 c 1,12,13
 180 2 180 2 72 110 c 1,14,15
 190 260 190 260 272 260 c 0,16,17
 384 260 384 260 426 172 c 1,9,-1
EndSplineSet
EndChar

StartChar: semicolon
Encoding: 59 59 30
Width: 530
GlyphClass: 2
Flags: W
LayerCount: 2
Fore
SplineSet
390 704 m 1,0,-1
 336 624 l 1,1,2
 300 562 300 562 282 504 c 1,3,4
 144 534 144 534 36 642 c 1,5,6
 154 792 154 792 236 792 c 0,7,8
 348 792 348 792 390 704 c 1,0,-1
342 230 m 0,9,10
 342 138 342 138 282 -29 c 128,-1,11
 222 -196 222 -196 156 -268 c 1,12,-1
 100 -234 l 1,13,-1
 122 -38 l 1,14,15
 122 94 122 94 72 176 c 1,16,17
 92 208 92 208 137 237 c 128,-1,18
 182 266 182 266 222 266 c 0,19,20
 342 266 342 266 342 230 c 0,9,10
EndSplineSet
EndChar

StartChar: less
Encoding: 60 60 31
Width: 1168
GlyphClass: 2
Flags: W
LayerCount: 2
Fore
SplineSet
110 626 m 1,0,-1
 110 790 l 1,1,-1
 1058 1190 l 1,2,-1
 1058 1016 l 1,3,-1
 306 708 l 1,4,-1
 1058 396 l 1,5,-1
 1058 220 l 1,6,-1
 110 626 l 1,0,-1
EndSplineSet
EndChar

StartChar: equal
Encoding: 61 61 32
Width: 1024
GlyphClass: 2
Flags: W
LayerCount: 2
Fore
SplineSet
958 602 m 0,0,1
 958 534 958 534 904 494 c 1,2,3
 886 536 886 536 820 554 c 1,4,-1
 674 576 l 1,5,-1
 632 582 l 1,6,-1
 460 598 l 1,7,8
 348 598 348 598 277 577 c 128,-1,9
 206 556 206 556 140 484 c 1,10,11
 70 564 70 564 70 622 c 0,12,13
 70 684 70 684 112 726 c 1,14,15
 152 736 152 736 448 736 c 2,16,-1
 532 736 l 1,17,-1
 600 736 l 1,18,-1
 654 736 l 1,19,-1
 698 736 l 1,20,-1
 732 736 l 1,21,-1
 760 736 l 1,22,-1
 784 736 l 2,23,24
 870 736 870 736 904 744 c 1,25,26
 958 702 958 702 958 602 c 0,0,1
958 262 m 0,27,28
 958 194 958 194 904 154 c 1,29,30
 886 196 886 196 820 214 c 1,31,-1
 674 236 l 1,32,-1
 632 242 l 1,33,-1
 460 258 l 1,34,35
 348 258 348 258 277 237 c 128,-1,36
 206 216 206 216 140 144 c 1,37,38
 70 224 70 224 70 282 c 0,39,40
 70 344 70 344 112 386 c 1,41,42
 152 396 152 396 448 396 c 2,43,-1
 532 396 l 1,44,-1
 600 396 l 1,45,-1
 654 396 l 1,46,-1
 698 396 l 1,47,-1
 732 396 l 1,48,-1
 760 396 l 1,49,-1
 784 396 l 2,50,51
 870 396 870 396 904 404 c 1,52,53
 958 362 958 362 958 262 c 0,27,28
EndSplineSet
EndChar

StartChar: greater
Encoding: 62 62 33
Width: 1168
GlyphClass: 2
Flags: W
LayerCount: 2
Fore
SplineSet
1058 626 m 1,0,-1
 110 220 l 1,1,-1
 110 396 l 1,2,-1
 860 708 l 1,3,-1
 110 1016 l 1,4,-1
 110 1190 l 1,5,-1
 1058 790 l 1,6,-1
 1058 626 l 1,0,-1
EndSplineSet
EndChar

StartChar: question
Encoding: 63 63 34
Width: 932
GlyphClass: 2
Flags: W
LayerCount: 2
Fore
SplineSet
862 904 m 0,0,1
 862 766 862 766 742 646 c 0,2,3
 708 612 708 612 522 474 c 1,4,5
 402 390 402 390 402 328 c 0,6,7
 402 312 402 312 432 294 c 1,8,9
 468 280 468 280 496 280 c 2,10,-1
 520 282 l 1,11,12
 520 230 520 230 506 212 c 0,13,14
 486 192 486 192 440 192 c 0,15,16
 374 192 374 192 326 241 c 128,-1,17
 278 290 278 290 278 370 c 0,18,19
 278 460 278 460 350 526 c 1,20,-1
 498 630 l 2,21,22
 716 782 716 782 716 938 c 0,23,24
 716 1034 716 1034 548 1034 c 0,25,26
 432 1034 432 1034 344 978 c 0,27,28
 240 914 240 914 240 804 c 0,29,30
 240 776 240 776 274 776 c 0,31,32
 300 776 300 776 324 788 c 1,33,-1
 328 770 l 1,34,35
 328 744 328 744 293 724 c 128,-1,36
 258 704 258 704 232 704 c 0,37,38
 170 704 170 704 119 747 c 128,-1,39
 68 790 68 790 68 850 c 0,40,41
 68 980 68 980 195 1076 c 128,-1,42
 322 1172 322 1172 482 1172 c 0,43,44
 624 1172 624 1172 738 1106 c 0,45,46
 862 1030 862 1030 862 904 c 0,0,1
636 16 m 1,47,48
 598 4 598 4 555 -52 c 128,-1,49
 512 -108 512 -108 512 -146 c 1,50,51
 470 -146 470 -146 435 -135 c 128,-1,52
 400 -124 400 -124 350 -98 c 0,53,54
 278 -58 278 -58 278 -30 c 0,55,56
 278 10 278 10 344 58 c 0,57,58
 376 80 376 80 410 92 c 128,-1,59
 444 104 444 104 478 104 c 0,60,61
 568 104 568 104 636 16 c 1,47,48
EndSplineSet
EndChar

StartChar: at
Encoding: 64 64 35
Width: 2030
GlyphClass: 2
Flags: W
LayerCount: 2
Fore
SplineSet
1134 160 m 1,0,1
 1082 96 1082 96 999 47 c 128,-1,2
 916 -2 916 -2 834 -2 c 0,3,4
 746 -2 746 -2 666 47 c 128,-1,5
 586 96 586 96 533 206 c 128,-1,6
 480 316 480 316 480 436 c 0,7,8
 480 586 480 586 558 744 c 128,-1,9
 636 902 636 902 756 980 c 128,-1,10
 876 1058 876 1058 988 1058 c 0,11,12
 1078 1058 1078 1058 1150 1012 c 1,13,14
 1226 970 1226 970 1282 878 c 1,15,-1
 1316 1030 l 1,16,-1
 1490 1030 l 1,17,-1
 1350 376 l 1,18,-1
 1320 224 l 1,19,20
 1320 200 1320 200 1340 178 c 1,21,22
 1362 160 1362 160 1388 160 c 0,23,24
 1442 160 1442 160 1524 218 c 0,25,26
 1630 292 1630 292 1698 426 c 128,-1,27
 1766 560 1766 560 1766 700 c 0,28,29
 1766 858 1766 858 1682 1001 c 128,-1,30
 1598 1144 1598 1144 1432 1230 c 0,31,32
 1350 1272 1350 1272 1261 1294 c 128,-1,33
 1172 1316 1172 1316 1068 1316 c 0,34,35
 838 1316 838 1316 650 1210 c 128,-1,36
 462 1104 462 1104 357 898 c 128,-1,37
 252 692 252 692 252 474 c 0,38,39
 252 240 252 240 354 66 c 128,-1,40
 456 -108 456 -108 655 -192 c 128,-1,41
 854 -276 854 -276 1094 -276 c 0,42,43
 1346 -276 1346 -276 1517 -193 c 128,-1,44
 1688 -110 1688 -110 1782 18 c 1,45,-1
 1958 18 l 1,46,47
 1908 -88 1908 -88 1791 -190 c 128,-1,48
 1674 -292 1674 -292 1500 -358 c 0,49,50
 1426 -384 1426 -384 1316 -404 c 0,51,52
 1268 -412 1268 -412 1217 -416 c 128,-1,53
 1166 -420 1166 -420 1096 -420 c 0,54,55
 878 -420 878 -420 698 -365 c 128,-1,56
 518 -310 518 -310 390 -202 c 128,-1,57
 262 -94 262 -94 190 60 c 1,58,59
 108 248 108 248 108 458 c 0,60,61
 108 698 108 698 206 912 c 0,62,63
 326 1170 326 1170 543 1314 c 128,-1,64
 760 1458 760 1458 1076 1458 c 0,65,66
 1198 1458 1198 1458 1304 1434 c 128,-1,67
 1410 1410 1410 1410 1510 1358 c 0,68,69
 1702 1262 1702 1262 1816 1064 c 0,70,71
 1910 894 1910 894 1910 696 c 0,72,73
 1910 414 1910 414 1710 194 c 0,74,75
 1532 -4 1532 -4 1322 -4 c 2,76,-1
 1296 -4 l 1,77,-1
 1258 0 l 2,78,79
 1232 4 1232 4 1212 16 c 0,80,81
 1176 38 1176 38 1152 76 c 0,82,83
 1140 98 1140 98 1134 160 c 1,0,1
662 424 m 0,84,85
 662 292 662 292 724 217 c 128,-1,86
 786 142 786 142 870 142 c 0,87,88
 924 142 924 142 986 175 c 128,-1,89
 1048 208 1048 208 1100 272 c 1,90,91
 1154 332 1154 332 1190 434 c 128,-1,92
 1226 536 1226 536 1226 634 c 0,93,94
 1226 762 1226 762 1161 838 c 128,-1,95
 1096 914 1096 914 1000 914 c 0,96,97
 938 914 938 914 882 880 c 0,98,99
 826 850 826 850 779 782 c 128,-1,100
 732 714 732 714 692 606 c 1,101,102
 662 510 662 510 662 424 c 0,84,85
EndSplineSet
EndChar

StartChar: bracketleft
Encoding: 91 91 36
Width: 556
GlyphClass: 2
Flags: W
LayerCount: 2
Fore
SplineSet
136 -398 m 1,0,-1
 136 1432 l 1,1,-1
 524 1432 l 1,2,-1
 524 1286 l 1,3,-1
 312 1286 l 1,4,-1
 312 -252 l 1,5,-1
 524 -252 l 1,6,-1
 524 -398 l 1,7,-1
 136 -398 l 1,0,-1
EndSplineSet
EndChar

StartChar: backslash
Encoding: 92 92 37
Width: 556
GlyphClass: 2
Flags: W
LayerCount: 2
Fore
SplineSet
416 -24 m 1,0,-1
 0 1456 l 1,1,-1
 142 1456 l 1,2,-1
 556 -24 l 1,3,-1
 416 -24 l 1,0,-1
EndSplineSet
EndChar

StartChar: bracketright
Encoding: 93 93 38
Width: 556
GlyphClass: 2
Flags: W
LayerCount: 2
Fore
SplineSet
426 -398 m 1,0,-1
 38 -398 l 1,1,-1
 38 -252 l 1,2,-1
 250 -252 l 1,3,-1
 250 1286 l 1,4,-1
 38 1286 l 1,5,-1
 38 1432 l 1,6,-1
 426 1432 l 1,7,-1
 426 -398 l 1,0,-1
EndSplineSet
EndChar

StartChar: asciicircum
Encoding: 94 94 39
Width: 938
GlyphClass: 2
Flags: W
LayerCount: 2
Fore
SplineSet
234 674 m 1,0,-1
 52 674 l 1,1,-1
 398 1456 l 1,2,-1
 540 1456 l 1,3,-1
 886 674 l 1,4,-1
 708 674 l 1,5,-1
 468 1256 l 1,6,-1
 234 674 l 1,0,-1
EndSplineSet
EndChar

StartChar: underscore
Encoding: 95 95 40
Width: 1112
GlyphClass: 2
Flags: W
LayerCount: 2
Fore
SplineSet
-30 -398 m 1,0,-1
 -30 -270 l 1,1,-1
 1134 -270 l 1,2,-1
 1134 -398 l 1,3,-1
 -30 -398 l 1,0,-1
EndSplineSet
EndChar

StartChar: grave
Encoding: 96 96 41
Width: 384
GlyphClass: 2
Flags: W
LayerCount: 2
Fore
SplineSet
72 1092 m 1,0,1
 78 1118 78 1118 88 1132 c 128,-1,2
 98 1146 98 1146 118 1160 c 0,3,4
 126 1164 126 1164 135 1167 c 128,-1,5
 144 1170 144 1170 176 1176 c 1,6,-1
 254 1176 l 1,7,-1
 286 1170 l 1,8,-1
 312 1152 l 1,9,-1
 328 1126 l 2,10,11
 334 1114 334 1114 334 1098 c 0,12,13
 334 1074 334 1074 327 1053 c 128,-1,14
 320 1032 320 1032 298 1022 c 2,15,-1
 276 1010 l 1,16,-1
 256 1008 l 1,17,-1
 174 1008 l 1,18,-1
 164 1010 l 1,19,-1
 148 1014 l 1,20,-1
 134 1018 l 1,21,-1
 214 1018 l 1,22,-1
 218 1000 l 1,23,-1
 220 982 l 2,24,25
 220 970 220 970 230 954 c 2,26,-1
 248 922 l 1,27,-1
 268 894 l 1,28,-1
 294 870 l 1,29,-1
 320 846 l 1,30,-1
 348 822 l 1,31,-1
 314 784 l 1,32,-1
 234 784 l 1,33,-1
 176 834 l 1,34,-1
 124 890 l 2,35,36
 102 918 102 918 80 964 c 1,37,-1
 68 998 l 1,38,-1
 64 1038 l 2,39,40
 60 1070 60 1070 72 1092 c 1,0,1
EndSplineSet
EndChar

StartChar: braceleft
Encoding: 123 123 42
Width: 668
GlyphClass: 2
Flags: W
LayerCount: 2
Fore
SplineSet
56 598 m 1,0,1
 130 598 130 598 177 638 c 128,-1,2
 224 678 224 678 242 744 c 1,3,-1
 252 854 l 1,4,-1
 258 974 l 1,5,6
 258 1140 258 1140 264 1204 c 128,-1,7
 270 1268 270 1268 295 1318 c 128,-1,8
 320 1368 320 1368 352 1397 c 128,-1,9
 384 1426 384 1426 446 1446 c 1,10,11
 492 1456 492 1456 566 1456 c 2,12,-1
 622 1456 l 1,13,-1
 622 1302 l 1,14,-1
 590 1302 l 2,15,16
 492 1302 492 1302 454 1264 c 1,17,18
 422 1226 422 1226 422 1102 c 2,19,-1
 422 1042 l 1,20,-1
 422 994 l 1,21,-1
 422 956 l 1,22,-1
 422 924 l 1,23,-1
 422 898 l 1,24,-1
 420 824 l 2,25,26
 420 796 420 796 412 780 c 1,27,28
 394 680 394 680 352 624 c 128,-1,29
 310 568 310 568 218 518 c 1,30,31
 326 476 326 476 374 385 c 128,-1,32
 422 294 422 294 422 78 c 2,33,-1
 426 -148 l 1,34,35
 432 -214 432 -214 466 -242 c 1,36,-1
 506 -258 l 2,37,38
 540 -268 540 -268 590 -268 c 2,39,-1
 622 -268 l 1,40,-1
 622 -420 l 1,41,-1
 566 -420 l 2,42,43
 468 -420 468 -420 428 -406 c 0,44,45
 372 -384 372 -384 328 -334 c 0,46,47
 292 -292 292 -292 270 -206 c 1,48,49
 258 -128 258 -128 258 48 c 0,50,51
 258 228 258 228 242 293 c 128,-1,52
 226 358 226 358 178 398 c 1,53,54
 122 438 122 438 56 438 c 1,55,-1
 56 598 l 1,0,1
EndSplineSet
EndChar

StartChar: bar
Encoding: 124 124 43
Width: 520
GlyphClass: 2
Flags: W
LayerCount: 2
Fore
SplineSet
184 -420 m 1,0,-1
 184 1456 l 1,1,-1
 336 1456 l 1,2,-1
 336 -420 l 1,3,-1
 184 -420 l 1,0,-1
EndSplineSet
EndChar

StartChar: braceright
Encoding: 125 125 44
Width: 668
GlyphClass: 2
Flags: W
LayerCount: 2
Fore
SplineSet
612 598 m 1,0,-1
 612 438 l 1,1,2
 540 438 540 438 491 401 c 128,-1,3
 442 364 442 364 424 290 c 1,4,-1
 414 200 l 1,5,-1
 410 62 l 1,6,-1
 410 24 l 1,7,-1
 410 -8 l 1,8,-1
 410 -34 l 2,9,10
 410 -118 410 -118 404 -154 c 1,11,12
 404 -226 404 -226 370 -282 c 1,13,14
 346 -330 346 -330 312 -364 c 1,15,-1
 276 -386 l 1,16,-1
 222 -410 l 1,17,-1
 176 -418 l 1,18,-1
 100 -420 l 1,19,-1
 46 -420 l 1,20,-1
 46 -268 l 1,21,-1
 76 -268 l 2,22,23
 178 -268 178 -268 210 -230 c 1,24,25
 244 -196 244 -196 244 -66 c 2,26,-1
 246 124 l 1,27,-1
 252 244 l 1,28,29
 264 352 264 352 316 416 c 1,30,31
 362 480 362 480 448 518 c 1,32,33
 340 566 340 566 292 656 c 128,-1,34
 244 746 244 746 244 958 c 2,35,-1
 244 1078 l 1,36,-1
 238 1200 l 2,37,38
 238 1244 238 1244 204 1273 c 128,-1,39
 170 1302 170 1302 76 1302 c 2,40,-1
 46 1302 l 1,41,-1
 46 1456 l 1,42,-1
 100 1456 l 2,43,44
 200 1456 200 1456 252 1437 c 128,-1,45
 304 1418 304 1418 341 1370 c 128,-1,46
 378 1322 378 1322 396 1240 c 1,47,-1
 406 1138 l 1,48,-1
 410 988 l 1,49,50
 410 800 410 800 425 741 c 128,-1,51
 440 682 440 682 488 638 c 0,52,53
 512 620 512 620 544 608 c 2,54,-1
 576 600 l 1,55,-1
 612 598 l 1,0,-1
EndSplineSet
EndChar

StartChar: asciitilde
Encoding: 126 126 45
Width: 1168
GlyphClass: 2
Flags: W
LayerCount: 2
Fore
SplineSet
84 544 m 1,0,-1
 84 744 l 1,1,2
 190 862 190 862 356 862 c 0,3,4
 408 862 408 862 480 844 c 0,5,6
 534 832 534 832 664 776 c 1,7,-1
 764 740 l 1,8,-1
 806 730 l 1,9,-1
 832 730 l 2,10,11
 884 730 884 730 954 766 c 128,-1,12
 1024 802 1024 802 1084 864 c 1,13,-1
 1084 658 l 1,14,15
 1024 604 1024 604 960 572 c 1,16,17
 888 546 888 546 814 546 c 0,18,19
 786 546 786 546 758 548 c 128,-1,20
 730 550 730 550 704 556 c 0,21,22
 656 568 656 568 537 622 c 128,-1,23
 418 676 418 676 340 676 c 0,24,25
 276 676 276 676 222 650 c 1,26,-1
 162 612 l 2,27,28
 146 600 146 600 136 592 c 0,29,30
 112 572 112 572 84 544 c 1,0,-1
EndSplineSet
EndChar

StartChar: cent
Encoding: 162 162 46
Width: 721
GlyphClass: 2
Flags: W
LayerCount: 2
Fore
SplineSet
598 156 m 1,0,1
 537 71 537 71 467 31 c 128,-1,2
 397 -9 397 -9 304 -17 c 1,3,-1
 228 -265 l 1,4,-1
 187 -265 l 1,5,-1
 262 -17 l 1,6,7
 177 -8 177 -8 128.5 47 c 128,-1,8
 80 102 80 102 80 188 c 0,9,10
 80 345 80 345 191.5 478.5 c 128,-1,11
 303 612 303 612 457 638 c 1,12,-1
 541 917 l 1,13,-1
 580 917 l 1,14,-1
 499 638 l 1,15,16
 580 638 580 638 616.5 607 c 128,-1,17
 653 576 653 576 653 523 c 0,18,19
 653 482 653 482 631.5 455.5 c 128,-1,20
 610 429 610 429 580 429 c 0,21,22
 557 429 557 429 544 442 c 128,-1,23
 531 455 531 455 531 476 c 0,24,25
 531 491 531 491 536 502 c 128,-1,26
 541 513 541 513 560.5 534.5 c 128,-1,27
 580 556 580 556 580 570 c 0,28,29
 580 578 580 578 575 585 c 0,30,31
 565 596 565 596 549.5 601 c 128,-1,32
 534 606 534 606 489 606 c 1,33,-1
 322 49 l 1,34,-1
 352 47 l 1,35,36
 470 47 470 47 580 173 c 1,37,-1
 598 156 l 1,0,1
284 57 m 1,38,-1
 445 598 l 1,39,40
 383 570 383 570 342 533 c 0,41,42
 274 467 274 467 237 380.5 c 128,-1,43
 200 294 200 294 200 205 c 0,44,45
 200 146 200 146 224 108 c 0,46,47
 243 81 243 81 284 57 c 1,38,-1
EndSplineSet
EndChar

StartChar: multiply
Encoding: 215 215 47
Width: 975
GlyphClass: 2
Flags: W
LayerCount: 2
Fore
SplineSet
267 230 m 1,0,-1
 515 479 l 1,1,-1
 267 728 l 1,2,-1
 308 768 l 1,3,-1
 556 520 l 1,4,-1
 805 768 l 1,5,-1
 844 728 l 1,6,-1
 595 480 l 1,7,-1
 845 230 l 1,8,-1
 805 190 l 1,9,-1
 555 439 l 1,10,-1
 307 190 l 1,11,-1
 267 230 l 1,0,-1
EndSplineSet
EndChar

StartChar: divide
Encoding: 247 247 48
Width: 792
GlyphClass: 2
Flags: W
LayerCount: 2
Fore
SplineSet
418 757 m 0,0,1
 443 757 443 757 461 739 c 128,-1,2
 479 721 479 721 479 695 c 0,3,4
 479 670 479 670 461 652 c 128,-1,5
 443 634 443 634 417 634 c 0,6,7
 392 634 392 634 373.5 652 c 128,-1,8
 355 670 355 670 355 695 c 0,9,10
 355 721 355 721 373.5 739 c 128,-1,11
 392 757 392 757 418 757 c 0,0,1
797 450 m 1,12,-1
 38 450 l 1,13,-1
 38 508 l 1,14,-1
 797 508 l 1,15,-1
 797 450 l 1,12,-1
418 320 m 0,16,17
 443 320 443 320 461 301.5 c 128,-1,18
 479 283 479 283 479 257 c 0,19,20
 479 233 479 233 461 215 c 128,-1,21
 443 197 443 197 418 197 c 0,22,23
 392 197 392 197 373.5 215 c 128,-1,24
 355 233 355 233 355 257 c 0,25,26
 355 283 355 283 373.5 301.5 c 128,-1,27
 392 320 392 320 418 320 c 0,16,17
EndSplineSet
EndChar

StartChar: tm_visarga
Encoding: 2947 2947 49
Width: 1232
GlyphClass: 2
Flags: W
LayerCount: 2
Fore
SplineSet
852 732 m 0,0,1
 852 656 852 656 792 592 c 0,2,3
 720 516 720 516 596 516 c 0,4,5
 490 516 490 516 418 590 c 0,6,7
 360 652 360 652 360 724 c 0,8,9
 360 810 360 810 412 876 c 0,10,11
 472 954 472 954 568 954 c 0,12,13
 698 954 698 954 775 893 c 128,-1,14
 852 832 852 832 852 732 c 0,0,1
1202 190 m 0,15,16
 1202 118 1202 118 1131 45 c 128,-1,17
 1060 -28 1060 -28 948 -28 c 256,18,19
 836 -28 836 -28 768 48 c 0,20,21
 710 110 710 110 710 182 c 0,22,23
 710 268 710 268 762 334 c 0,24,25
 822 410 822 410 918 410 c 0,26,27
 1048 410 1048 410 1125 350 c 128,-1,28
 1202 290 1202 290 1202 190 c 0,15,16
522 190 m 0,29,30
 522 118 522 118 451 45 c 128,-1,31
 380 -28 380 -28 268 -28 c 256,32,33
 156 -28 156 -28 88 48 c 0,34,35
 30 110 30 110 30 182 c 0,36,37
 30 268 30 268 82 334 c 0,38,39
 142 410 142 410 238 410 c 0,40,41
 368 410 368 410 445 350 c 128,-1,42
 522 290 522 290 522 190 c 0,29,30
646 602 m 1,43,44
 682 630 682 630 682 694 c 0,45,46
 682 762 682 762 642 820 c 1,47,48
 608 878 608 878 546 878 c 1,49,50
 536 864 536 864 536 820 c 0,51,52
 536 748 536 748 563 681 c 128,-1,53
 590 614 590 614 646 602 c 1,43,44
998 60 m 1,54,55
 1032 88 1032 88 1032 150 c 0,56,57
 1032 218 1032 218 996 276 c 0,58,59
 954 336 954 336 898 336 c 1,60,61
 886 324 886 324 886 274 c 0,62,63
 886 204 886 204 914 138 c 128,-1,64
 942 72 942 72 998 60 c 1,54,55
318 60 m 1,65,66
 352 88 352 88 352 150 c 0,67,68
 352 218 352 218 316 276 c 0,69,70
 274 336 274 336 218 336 c 1,71,72
 206 324 206 324 206 274 c 0,73,74
 206 204 206 204 234 138 c 128,-1,75
 262 72 262 72 318 60 c 1,65,66
EndSplineSet
EndChar

StartChar: tm_a
Encoding: 2949 2949 50
Width: 1560
GlyphClass: 2
Flags: W
LayerCount: 2
Fore
SplineSet
1598 -100 m 1,0,1
 1510 -156 1510 -156 1440 -156 c 0,2,3
 1400 -156 1400 -156 1360 -142 c 1,4,5
 1332 -120 1332 -120 1332 46 c 0,6,7
 1332 172 1332 172 1346 338 c 1,8,-1
 1246 326 l 1,9,10
 1188 16 1188 16 908 -282 c 0,11,12
 604 -606 604 -606 292 -606 c 0,13,14
 158 -606 158 -606 79 -536 c 128,-1,15
 0 -466 0 -466 0 -330 c 0,16,17
 0 -190 0 -190 156 -30 c 0,18,19
 296 114 296 114 519 224 c 128,-1,20
 742 334 742 334 1108 426 c 1,21,22
 1154 496 1154 496 1154 664 c 0,23,24
 1154 822 1154 822 1100 822 c 0,25,26
 992 822 992 822 904 734 c 1,27,28
 1054 700 1054 700 1054 572 c 0,29,30
 1054 498 1054 498 962 432 c 0,31,32
 878 376 878 376 812 376 c 0,33,34
 742 376 742 376 692 432 c 128,-1,35
 642 488 642 488 642 558 c 0,36,37
 642 710 642 710 765 824 c 128,-1,38
 888 938 888 938 1054 938 c 0,39,40
 1162 938 1162 938 1230 838 c 1,41,42
 1292 738 1292 738 1292 604 c 1,43,-1
 1284 466 l 1,44,-1
 1350 480 l 1,45,-1
 1388 850 l 1,46,47
 1418 862 1418 862 1448 862 c 0,48,49
 1510 862 1510 862 1552 796 c 1,50,51
 1524 730 1524 730 1510 622 c 128,-1,52
 1496 514 1496 514 1496 350 c 0,53,54
 1496 272 1496 272 1502 207 c 128,-1,55
 1508 142 1508 142 1524 70 c 0,56,57
 1550 -76 1550 -76 1598 -100 c 1,0,1
888 554 m 0,58,59
 888 590 888 590 877 612 c 128,-1,60
 866 634 866 634 838 650 c 1,61,62
 798 610 798 610 798 556 c 0,63,64
 800 542 800 542 800 534 c 0,65,66
 808 472 808 472 840 470 c 0,67,68
 888 470 888 470 888 554 c 0,58,59
1076 276 m 1,69,-1
 830 196 l 2,70,71
 682 144 682 144 566 74 c 0,72,73
 334 -64 334 -64 240 -156 c 0,74,75
 120 -274 120 -274 120 -410 c 0,76,77
 120 -436 120 -436 152 -468 c 0,78,79
 168 -484 168 -484 186 -492 c 128,-1,80
 204 -500 204 -500 232 -500 c 0,81,82
 342 -500 342 -500 489 -417 c 128,-1,83
 636 -334 636 -334 776 -200 c 0,84,85
 978 -4 978 -4 1076 276 c 1,69,-1
EndSplineSet
EndChar

StartChar: tm_aa
Encoding: 2950 2950 51
Width: 1872
GlyphClass: 2
Flags: W
LayerCount: 2
Fore
SplineSet
1842 -96 m 0,0,1
 1842 -286 1842 -286 1690 -476 c 0,2,3
 1528 -680 1528 -680 1332 -680 c 0,4,5
 1200 -680 1200 -680 1110 -566 c 0,6,7
 1028 -460 1028 -460 1028 -318 c 0,8,9
 1028 -184 1028 -184 1086 -184 c 0,10,11
 1206 -184 1206 -184 1224 -298 c 1,12,-1
 1204 -338 l 1,13,14
 1204 -434 1204 -434 1256 -510 c 128,-1,15
 1308 -586 1308 -586 1396 -586 c 256,16,17
 1484 -586 1484 -586 1579 -428 c 128,-1,18
 1674 -270 1674 -270 1674 -122 c 0,19,20
 1674 -72 1674 -72 1670 -40 c 128,-1,21
 1666 -8 1666 -8 1652 28 c 0,22,23
 1624 104 1624 104 1570 104 c 0,24,25
 1512 104 1512 104 1512 0 c 0,26,27
 1512 -120 1512 -120 1562 -226 c 1,28,29
 1466 -268 1466 -268 1408 -268 c 0,30,31
 1360 -268 1360 -268 1336 -238 c 1,32,33
 1330 -198 1330 -198 1330 -112 c 0,34,35
 1330 -64 1330 -64 1342 108 c 128,-1,36
 1354 280 1354 280 1354 404 c 1,37,-1
 1262 388 l 1,38,39
 1160 -2 1160 -2 844 -288 c 0,40,41
 560 -548 560 -548 286 -548 c 0,42,43
 190 -548 190 -548 118 -496 c 0,44,45
 14 -422 14 -422 14 -280 c 0,46,47
 14 -140 14 -140 142 8 c 0,48,49
 262 146 262 146 452 250 c 0,50,51
 584 322 584 322 812 404 c 1,52,-1
 1120 500 l 1,53,54
 1168 608 1168 608 1168 752 c 0,55,56
 1168 892 1168 892 1100 892 c 0,57,58
 986 892 986 892 916 804 c 1,59,60
 1066 756 1066 756 1066 658 c 0,61,62
 1066 568 1066 568 974 500 c 0,63,64
 902 446 902 446 844 446 c 0,65,66
 656 446 656 446 656 634 c 0,67,68
 656 790 656 790 779 901 c 128,-1,69
 902 1012 902 1012 1066 1012 c 0,70,71
 1172 1012 1172 1012 1242 910 c 0,72,73
 1304 814 1304 814 1304 680 c 1,74,-1
 1300 610 l 1,75,-1
 1300 542 l 1,76,-1
 1358 554 l 1,77,-1
 1392 922 l 1,78,79
 1414 932 1414 932 1448 936 c 1,80,81
 1522 936 1522 936 1566 862 c 1,82,83
 1548 832 1548 832 1532 747 c 128,-1,84
 1516 662 1516 662 1516 548 c 0,85,86
 1516 488 1516 488 1508 364 c 128,-1,87
 1500 240 1500 240 1500 178 c 1,88,89
 1562 258 1562 258 1628 258 c 0,90,91
 1716 258 1716 258 1779 167 c 128,-1,92
 1842 76 1842 76 1842 -96 c 0,0,1
898 630 m 0,93,94
 898 694 898 694 848 730 c 1,95,96
 812 688 812 688 812 608 c 0,97,98
 812 548 812 548 844 546 c 0,99,100
 898 546 898 546 898 630 c 0,93,94
1090 346 m 1,101,102
 774 260 774 260 482 82 c 0,103,104
 136 -128 136 -128 136 -318 c 0,105,106
 136 -438 136 -438 268 -438 c 0,107,108
 432 -438 432 -438 676 -238 c 0,109,110
 970 2 970 2 1090 346 c 1,101,102
EndSplineSet
EndChar

StartChar: tm_i
Encoding: 2951 2951 52
Width: 1764
GlyphClass: 2
Flags: W
LayerCount: 2
Fore
SplineSet
1732 120 m 0,0,1
 1732 -140 1732 -140 1432 -306 c 0,2,3
 1272 -394 1272 -394 1102 -394 c 2,4,-1
 1076 -394 l 2,5,6
 1034 -394 1034 -394 1000 -392 c 128,-1,7
 966 -390 966 -390 940 -384 c 0,8,9
 848 -368 848 -368 744 -314 c 1,10,-1
 558 -414 l 1,11,12
 414 -478 414 -478 294 -478 c 0,13,14
 192 -478 192 -478 106 -410 c 0,15,16
 14 -336 14 -336 14 -236 c 0,17,18
 14 -102 14 -102 130 22 c 0,19,20
 150 44 150 44 203 90 c 128,-1,21
 256 136 256 136 326 190 c 1,22,-1
 306 300 l 2,23,24
 294 360 294 360 294 412 c 0,25,26
 294 644 294 644 348 794 c 0,27,28
 394 914 394 914 498 1028 c 0,29,30
 584 1124 584 1124 732 1188 c 0,31,32
 806 1218 806 1218 874 1234 c 128,-1,33
 942 1250 942 1250 1010 1250 c 0,34,35
 1088 1250 1088 1250 1144 1248 c 128,-1,36
 1200 1246 1200 1246 1239 1240 c 128,-1,37
 1278 1234 1278 1234 1374 1204 c 0,38,39
 1504 1164 1504 1164 1585 1094 c 128,-1,40
 1666 1024 1666 1024 1666 946 c 0,41,42
 1666 874 1666 874 1586 820 c 1,43,44
 1430 1078 1430 1078 1020 1078 c 0,45,46
 754 1078 754 1078 582 892 c 0,47,48
 402 696 402 696 402 416 c 0,49,50
 402 280 402 280 422 232 c 1,51,52
 602 320 602 320 784 372 c 1,53,-1
 1078 444 l 1,54,-1
 1108 540 l 2,55,56
 1124 594 1124 594 1124 636 c 0,57,58
 1124 790 1124 790 1032 790 c 0,59,60
 930 790 930 790 886 728 c 1,61,62
 956 706 956 706 978 688 c 0,63,64
 1020 654 1020 654 1020 570 c 0,65,66
 1020 508 1020 508 943 458 c 128,-1,67
 866 408 866 408 778 408 c 0,68,69
 710 408 710 408 664 454 c 128,-1,70
 618 500 618 500 618 570 c 0,71,72
 618 722 618 722 737 823 c 128,-1,73
 856 924 856 924 1010 924 c 0,74,75
 1124 924 1124 924 1194 818 c 0,76,77
 1226 770 1226 770 1242 711 c 128,-1,78
 1258 652 1258 652 1258 574 c 0,79,80
 1258 506 1258 506 1244 448 c 1,81,-1
 1326 454 l 1,82,83
 1494 454 1494 454 1613 367 c 128,-1,84
 1732 280 1732 280 1732 120 c 0,0,1
852 566 m 0,85,86
 852 628 852 628 806 654 c 1,87,88
 790 624 790 624 782 599 c 128,-1,89
 774 574 774 574 774 544 c 0,90,91
 774 486 774 486 798 482 c 1,92,93
 852 482 852 482 852 566 c 0,85,86
1020 274 m 1,94,95
 936 274 936 274 734 202 c 0,96,97
 560 140 560 140 464 82 c 1,98,99
 482 18 482 18 556 -56 c 0,100,101
 618 -118 618 -118 686 -156 c 1,102,103
 850 -58 850 -58 1020 274 c 1,94,95
1628 98 m 0,104,105
 1628 304 1628 304 1348 304 c 0,106,107
 1320 304 1320 304 1283 302 c 128,-1,108
 1246 300 1246 300 1202 294 c 1,109,110
 1174 194 1174 194 1080 46 c 0,111,112
 972 -122 972 -122 860 -210 c 1,113,-1
 944 -226 l 1,114,-1
 1016 -226 l 1,115,-1
 1120 -222 l 1,116,117
 1268 -222 1268 -222 1440 -132 c 0,118,119
 1628 -32 1628 -32 1628 98 c 0,104,105
606 -232 m 1,120,121
 508 -164 508 -164 440 -72 c 1,122,-1
 380 28 l 1,123,124
 138 -94 138 -94 138 -290 c 0,125,126
 138 -326 138 -326 174 -350 c 128,-1,127
 210 -374 210 -374 270 -374 c 0,128,129
 370 -374 370 -374 606 -232 c 1,120,121
EndSplineSet
EndChar

StartChar: tm_ii
Encoding: 2952 2952 53
Width: 1196
GlyphClass: 2
Flags: W
LayerCount: 2
Fore
SplineSet
894 -4 m 1,0,1
 872 -38 872 -38 830 -72 c 0,2,3
 808 -90 808 -90 798 -96 c 0,4,5
 772 -112 772 -112 748 -112 c 0,6,7
 694 -112 694 -112 664 44 c 1,8,9
 644 170 644 170 644 314 c 0,10,11
 644 558 644 558 732 752 c 1,12,13
 602 724 602 724 456 582 c 0,14,15
 360 488 360 488 294 361 c 128,-1,16
 228 234 228 234 228 132 c 0,17,18
 228 92 228 92 240 56 c 1,19,20
 202 34 202 34 122 34 c 0,21,22
 90 34 90 34 58 60 c 1,23,24
 34 86 34 86 30 118 c 1,25,26
 30 166 30 166 78 290 c 0,27,28
 134 432 134 432 222 544 c 0,29,30
 330 682 330 682 504 790 c 0,31,32
 668 890 668 890 768 890 c 0,33,34
 800 890 800 890 842 848 c 0,35,36
 878 808 878 808 882 778 c 1,37,-1
 844 664 l 2,38,39
 806 538 806 538 806 402 c 0,40,41
 806 270 806 270 830 146 c 128,-1,42
 854 22 854 22 894 -4 c 1,0,1
610 460 m 1,43,44
 570 404 570 404 548 338 c 128,-1,45
 526 272 526 272 526 184 c 1,46,-1
 442 198 l 2,47,48
 370 210 370 210 290 260 c 1,49,50
 308 324 308 324 398 396 c 0,51,52
 474 458 474 458 578 502 c 1,53,-1
 610 460 l 1,43,44
1170 456 m 1,54,55
 1110 396 1110 396 1092 302 c 2,56,-1
 1070 194 l 1,57,58
 912 194 912 194 844 276 c 1,59,60
 896 376 896 376 968 426 c 128,-1,61
 1040 476 1040 476 1136 476 c 1,62,-1
 1170 456 l 1,54,55
EndSplineSet
EndChar

StartChar: tm_u
Encoding: 2953 2953 54
Width: 1652
GlyphClass: 2
Flags: W
LayerCount: 2
Fore
SplineSet
1628 -116 m 1,0,1
 1622 -116 1622 -116 1593 -108 c 128,-1,2
 1564 -100 1564 -100 1514 -82 c 0,3,4
 1458 -66 1458 -66 1382 -50 c 128,-1,5
 1306 -34 1306 -34 1278 -30 c 0,6,7
 1154 -12 1154 -12 886 -12 c 0,8,9
 672 -12 672 -12 478 -53 c 128,-1,10
 284 -94 284 -94 218 -162 c 1,11,12
 142 -118 142 -118 122 -100 c 0,13,14
 84 -70 84 -70 48 -2 c 1,15,16
 262 88 262 88 422 244 c 0,17,18
 656 478 656 478 656 686 c 0,19,20
 656 742 656 742 631 783 c 128,-1,21
 606 824 606 824 560 824 c 0,22,23
 490 824 490 824 428 796 c 1,24,25
 362 772 362 772 336 728 c 1,26,-1
 332 724 l 1,27,28
 478 684 478 684 478 568 c 0,29,30
 478 484 478 484 398 424 c 0,31,32
 318 368 318 368 218 368 c 0,33,34
 146 368 146 368 86 416 c 0,35,36
 58 442 58 442 44 469 c 128,-1,37
 30 496 30 496 30 532 c 0,38,39
 30 700 30 700 168 820 c 128,-1,40
 306 940 306 940 490 940 c 0,41,42
 624 940 624 940 705 856 c 128,-1,43
 786 772 786 772 786 606 c 0,44,45
 786 368 786 368 502 84 c 1,46,47
 602 106 602 106 748 118 c 128,-1,48
 894 130 894 130 1086 130 c 0,49,50
 1468 130 1468 130 1570 64 c 0,51,52
 1638 20 1638 20 1638 -66 c 0,53,54
 1638 -96 1638 -96 1628 -116 c 1,0,1
318 548 m 0,55,56
 318 638 318 638 256 664 c 1,57,58
 214 598 214 598 214 552 c 2,59,-1
 214 484 l 1,60,61
 220 444 220 444 256 444 c 0,62,63
 318 444 318 444 318 548 c 0,55,56
EndSplineSet
EndChar

StartChar: tm_uu
Encoding: 2954 2954 55
Width: 2076
GlyphClass: 2
Flags: W
LayerCount: 2
Fore
SplineSet
1732 258 m 0,0,1
 1732 208 1732 208 1590 208 c 0,2,3
 1552 208 1552 208 1552 422 c 1,4,-1
 1558 506 l 1,5,-1
 1564 584 l 2,6,7
 1564 624 1564 624 1556 656 c 1,8,-1
 1500 482 l 2,9,10
 1482 420 1482 420 1469 357 c 128,-1,11
 1456 294 1456 294 1456 246 c 1,12,13
 1294 246 1294 246 1294 326 c 0,14,15
 1294 622 1294 622 1232 622 c 0,16,17
 1200 622 1200 622 1172 604 c 2,18,-1
 1122 568 l 1,19,20
 1218 532 1218 532 1218 456 c 0,21,22
 1218 386 1218 386 1167 335 c 128,-1,23
 1116 284 1116 284 1044 284 c 0,24,25
 996 284 996 284 961 321 c 128,-1,26
 926 358 926 358 926 404 c 0,27,28
 926 518 926 518 999 612 c 128,-1,29
 1072 706 1072 706 1186 706 c 0,30,31
 1352 706 1352 706 1382 506 c 1,32,33
 1424 632 1424 632 1502 806 c 1,34,-1
 1550 814 l 1,35,36
 1632 814 1632 814 1720 780 c 1,37,38
 1698 648 1698 648 1698 504 c 0,39,40
 1698 392 1698 392 1710 284 c 1,41,-1
 1724 276 l 1,42,43
 1732 264 1732 264 1732 258 c 0,0,1
2048 -146 m 1,44,45
 1868 -56 1868 -56 1488 -14 c 0,46,47
 1224 16 1224 16 956 16 c 0,48,49
 714 16 714 16 495 -31 c 128,-1,50
 276 -78 276 -78 200 -150 c 1,51,52
 80 -78 80 -78 30 4 c 1,53,54
 238 104 238 104 363 209 c 128,-1,55
 488 314 488 314 574 445 c 128,-1,56
 660 576 660 576 660 692 c 0,57,58
 660 746 660 746 635 795 c 128,-1,59
 610 844 610 844 572 844 c 0,60,61
 504 844 504 844 434 813 c 128,-1,62
 364 782 364 782 326 742 c 1,63,64
 480 700 480 700 480 592 c 0,65,66
 480 502 480 502 396 438 c 0,67,68
 320 384 320 384 214 384 c 0,69,70
 142 384 142 384 84 434 c 1,71,72
 30 486 30 486 30 556 c 0,73,74
 30 716 30 716 168 836 c 128,-1,75
 306 956 306 956 488 956 c 0,76,77
 618 956 618 956 705 873 c 128,-1,78
 792 790 792 790 792 630 c 0,79,80
 792 486 792 486 688 326 c 0,81,82
 654 276 654 276 506 100 c 1,83,84
 716 136 716 136 1104 136 c 0,85,86
 1662 136 1662 136 1990 58 c 1,87,88
 2060 -28 2060 -28 2060 -100 c 0,89,90
 2060 -124 2060 -124 2048 -146 c 1,44,45
258 680 m 1,91,92
 244 670 244 670 226 620 c 1,93,94
 212 568 212 568 212 532 c 0,95,96
 212 464 212 464 254 464 c 0,97,98
 320 470 320 470 320 566 c 256,99,100
 320 662 320 662 258 680 c 1,91,92
1102 530 m 1,101,102
 1058 486 1058 486 1058 432 c 0,103,104
 1058 416 1058 416 1072 404 c 1,105,106
 1092 404 1092 404 1112 430 c 1,107,108
 1128 458 1128 458 1132 490 c 1,109,110
 1132 524 1132 524 1102 530 c 1,101,102
EndSplineSet
EndChar

StartChar: tm_e
Encoding: 2958 2958 56
Width: 1000
GlyphClass: 2
Flags: W
LayerCount: 2
Fore
SplineSet
988 772 m 1,0,1
 868 522 868 522 868 312 c 1,2,-1
 864 208 l 1,3,-1
 860 110 l 1,4,5
 860 -14 860 -14 914 -80 c 1,6,7
 908 -106 908 -106 859 -149 c 128,-1,8
 810 -192 810 -192 776 -192 c 0,9,10
 680 -192 680 -192 680 162 c 0,11,12
 680 398 680 398 752 692 c 1,13,14
 676 692 676 692 600 667 c 128,-1,15
 524 642 524 642 444 588 c 0,16,17
 274 476 274 476 254 326 c 1,18,-1
 332 334 l 1,19,20
 428 334 428 334 486 288 c 0,21,22
 554 232 554 232 554 130 c 0,23,24
 554 26 554 26 487 -39 c 128,-1,25
 420 -104 420 -104 296 -104 c 0,26,27
 182 -104 182 -104 106 -28 c 128,-1,28
 30 48 30 48 30 174 c 0,29,30
 30 410 30 410 204 576 c 0,31,32
 328 692 328 692 534 770 c 0,33,34
 714 834 714 834 838 834 c 0,35,36
 934 834 934 834 988 772 c 1,0,1
354 0 m 1,37,38
 380 20 380 20 380 62 c 0,39,40
 380 124 380 124 332 190 c 128,-1,41
 284 256 284 256 242 238 c 1,42,43
 230 228 230 228 226 194 c 1,44,45
 226 132 226 132 269 61 c 128,-1,46
 312 -10 312 -10 354 0 c 1,37,38
EndSplineSet
EndChar

StartChar: tm_ee
Encoding: 2959 2959 57
Width: 924
GlyphClass: 2
Flags: W
LayerCount: 2
Fore
SplineSet
910 734 m 1,0,1
 868 704 868 704 842 552 c 0,2,3
 834 502 834 502 828 446 c 128,-1,4
 822 390 822 390 822 350 c 0,5,6
 822 -72 822 -72 734 -230 c 0,7,8
 660 -364 660 -364 529 -454 c 128,-1,9
 398 -544 398 -544 262 -544 c 0,10,11
 154 -544 154 -544 154 -368 c 0,12,13
 154 -304 154 -304 166 -288 c 1,14,15
 200 -328 200 -328 278 -328 c 0,16,17
 462 -328 462 -328 588 -130 c 0,18,19
 684 24 684 24 684 262 c 2,20,-1
 684 286 l 2,21,22
 684 326 684 326 682 376 c 128,-1,23
 680 426 680 426 674 484 c 2,24,-1
 660 688 l 1,25,26
 318 614 318 614 254 400 c 1,27,28
 334 400 334 400 382 391 c 128,-1,29
 430 382 430 382 470 352 c 0,30,31
 550 296 550 296 550 182 c 0,32,33
 550 72 550 72 462 14 c 0,34,35
 392 -34 392 -34 296 -34 c 0,36,37
 192 -34 192 -34 111 38 c 128,-1,38
 30 110 30 110 30 228 c 0,39,40
 30 474 30 474 243 641 c 128,-1,41
 456 808 456 808 760 808 c 0,42,43
 800 808 800 808 845 784 c 128,-1,44
 890 760 890 760 910 734 c 1,0,1
326 66 m 1,45,46
 360 96 360 96 360 154 c 0,47,48
 360 220 360 220 322 272 c 0,49,50
 292 314 292 314 254 314 c 0,51,52
 242 314 242 314 234 312 c 1,53,-1
 230 250 l 1,54,55
 230 102 230 102 326 66 c 1,45,46
EndSplineSet
EndChar

StartChar: tm_ai
Encoding: 2960 2960 58
Width: 1132
GlyphClass: 2
Flags: W
LayerCount: 2
Fore
SplineSet
1086 230 m 0,0,1
 1086 120 1086 120 996 -66 c 0,2,3
 888 -282 888 -282 772 -282 c 0,4,5
 688 -282 688 -282 630 -205 c 128,-1,6
 572 -128 572 -128 572 -28 c 1,7,8
 474 -132 474 -132 438 -160 c 0,9,10
 358 -224 358 -224 300 -224 c 0,11,12
 194 -224 194 -224 122 -178 c 0,13,14
 38 -126 38 -126 38 -32 c 0,15,16
 38 92 38 92 184 208 c 0,17,18
 252 260 252 260 502 398 c 0,19,20
 630 466 630 466 756 560 c 0,21,22
 924 686 924 686 924 772 c 1,23,-1
 918 810 l 1,24,25
 792 792 792 792 694 676 c 0,26,27
 618 582 618 582 606 488 c 1,28,29
 554 488 554 488 535 490 c 128,-1,30
 516 492 516 492 508 498 c 0,31,32
 460 510 460 510 442 548 c 1,33,-1
 458 612 l 2,34,35
 470 656 470 656 474 698 c 1,36,-1
 468 736 l 1,37,38
 324 670 324 670 300 610 c 1,39,40
 342 610 342 610 376 579 c 128,-1,41
 410 548 410 548 410 506 c 0,42,43
 410 442 410 442 342 376 c 0,44,45
 274 314 274 314 196 314 c 0,46,47
 136 314 136 314 89 350 c 128,-1,48
 42 386 42 386 42 448 c 0,49,50
 42 580 42 580 160 710 c 0,51,52
 286 852 286 852 442 852 c 0,53,54
 512 852 512 852 588 756 c 1,55,56
 630 832 630 832 718 879 c 128,-1,57
 806 926 806 926 876 926 c 0,58,59
 952 926 952 926 1004 867 c 128,-1,60
 1056 808 1056 808 1056 736 c 0,61,62
 1056 630 1056 630 968 536 c 0,63,64
 904 466 904 466 758 378 c 2,65,-1
 506 234 l 2,66,67
 372 154 372 154 282 66 c 128,-1,68
 192 -22 192 -22 192 -82 c 0,69,70
 192 -126 192 -126 208 -142 c 1,71,72
 398 -48 398 -48 542 172 c 1,73,-1
 670 198 l 1,74,75
 724 198 724 198 738 152 c 1,76,77
 726 152 726 152 714 103 c 128,-1,78
 702 54 702 54 702 0 c 0,79,80
 702 -84 702 -84 730 -128 c 1,81,82
 802 -92 802 -92 874 34 c 128,-1,83
 946 160 946 160 946 248 c 1,84,-1
 944 276 l 1,85,86
 894 276 894 276 888 272 c 1,87,88
 882 308 882 308 906 347 c 128,-1,89
 930 386 930 386 960 388 c 0,90,91
 1016 388 1016 388 1051 342 c 128,-1,92
 1086 296 1086 296 1086 230 c 0,0,1
260 556 m 1,93,94
 242 562 242 562 218 518 c 0,95,96
 196 470 196 470 196 438 c 1,97,-1
 200 422 l 1,98,99
 224 416 224 416 251 451 c 128,-1,100
 278 486 278 486 278 518 c 0,101,102
 278 544 278 544 260 556 c 1,93,94
EndSplineSet
EndChar

StartChar: tm_o
Encoding: 2962 2962 59
Width: 1172
GlyphClass: 2
Flags: W
LayerCount: 2
Fore
SplineSet
1140 536 m 0,0,1
 1140 414 1140 414 1065 322 c 128,-1,2
 990 230 990 230 876 230 c 0,3,4
 810 230 810 230 738 266 c 1,5,6
 826 140 826 140 948 140 c 0,7,8
 1002 140 1002 140 1060 182 c 1,9,10
 1090 134 1090 134 1090 70 c 0,11,12
 1090 -18 1090 -18 1022 -18 c 0,13,14
 944 -18 944 -18 898 -6 c 1,15,16
 780 -154 780 -154 672 -210 c 0,17,18
 572 -260 572 -260 430 -260 c 0,19,20
 354 -260 354 -260 260 -190 c 0,21,22
 154 -114 154 -114 154 -30 c 0,23,24
 154 4 154 4 216 28 c 128,-1,25
 278 52 278 52 338 52 c 0,26,27
 352 52 352 52 360 50 c 128,-1,28
 368 48 368 48 374 44 c 1,29,-1
 360 26 l 2,30,31
 348 12 348 12 346 -2 c 0,32,33
 346 -42 346 -42 410 -88 c 128,-1,34
 474 -134 474 -134 542 -134 c 0,35,36
 608 -134 608 -134 682 -58 c 0,37,38
 736 -2 736 -2 764 58 c 1,39,40
 564 204 564 204 564 378 c 0,41,42
 564 436 564 436 570 478 c 128,-1,43
 576 520 576 520 592 554 c 1,44,45
 746 554 746 554 746 478 c 1,46,47
 714 458 714 458 714 408 c 0,48,49
 714 380 714 380 732 354 c 128,-1,50
 750 328 750 328 780 328 c 0,51,52
 846 328 846 328 894 394 c 128,-1,53
 942 460 942 460 942 540 c 0,54,55
 942 670 942 670 852 740 c 0,56,57
 774 800 774 800 638 800 c 0,58,59
 398 800 398 800 288 604 c 1,60,61
 522 582 522 582 522 404 c 0,62,63
 522 306 522 306 458 240 c 128,-1,64
 394 174 394 174 300 174 c 0,65,66
 186 174 186 174 108 243 c 128,-1,67
 30 312 30 312 30 412 c 0,68,69
 30 634 30 634 226 782 c 1,70,71
 412 916 412 916 664 916 c 0,72,73
 864 916 864 916 1002 813 c 128,-1,74
 1140 710 1140 710 1140 536 c 0,0,1
304 258 m 1,75,76
 354 290 354 290 354 372 c 0,77,78
 354 404 354 404 348 428 c 128,-1,79
 342 452 342 452 326 478 c 0,80,81
 302 524 302 524 258 524 c 1,82,83
 236 484 236 484 236 418 c 0,84,85
 236 360 236 360 254 310 c 128,-1,86
 272 260 272 260 304 258 c 1,75,76
EndSplineSet
EndChar

StartChar: tm_oo
Encoding: 2963 2963 60
Width: 1160
GlyphClass: 2
Flags: W
LayerCount: 2
Fore
SplineSet
1128 522 m 0,0,1
 1128 414 1128 414 1051 322 c 128,-1,2
 974 230 974 230 866 230 c 0,3,4
 800 230 800 230 740 264 c 1,5,6
 750 228 750 228 814 183 c 128,-1,7
 878 138 878 138 944 138 c 0,8,9
 986 138 986 138 1044 180 c 1,10,11
 1080 134 1080 134 1080 80 c 0,12,13
 1080 40 1080 40 1057 8 c 128,-1,14
 1034 -24 1034 -24 998 -24 c 0,15,16
 976 -24 976 -24 945 -18 c 128,-1,17
 914 -12 914 -12 864 4 c 1,18,19
 816 -100 816 -100 676 -186 c 0,20,21
 548 -262 548 -262 460 -262 c 0,22,23
 340 -262 340 -262 241 -200 c 128,-1,24
 142 -138 142 -138 142 -46 c 0,25,26
 142 30 142 30 216 84 c 0,27,28
 284 130 284 130 372 130 c 0,29,30
 468 130 468 130 533 87 c 128,-1,31
 598 44 598 44 598 -36 c 0,32,33
 598 -78 598 -78 556 -124 c 1,34,35
 620 -124 620 -124 682 -50 c 1,36,-1
 756 54 l 1,37,38
 556 176 556 176 556 392 c 0,39,40
 556 494 556 494 594 552 c 1,41,-1
 622 554 l 2,42,43
 668 554 668 554 701 535 c 128,-1,44
 734 516 734 516 740 488 c 1,45,46
 710 428 710 428 710 418 c 0,47,48
 710 330 710 330 764 330 c 0,49,50
 836 330 836 330 884 396 c 128,-1,51
 932 462 932 462 932 560 c 0,52,53
 932 670 932 670 830 740 c 0,54,55
 736 802 736 802 614 802 c 0,56,57
 570 802 570 802 522 788 c 128,-1,58
 474 774 474 774 428 744 c 0,59,60
 340 690 340 690 280 602 c 1,61,62
 374 602 374 602 446 550 c 128,-1,63
 518 498 518 498 518 414 c 0,64,65
 518 310 518 310 440 234 c 0,66,67
 370 168 370 168 288 168 c 0,68,69
 174 168 174 168 102 239 c 128,-1,70
 30 310 30 310 30 430 c 0,71,72
 30 650 30 650 226 786 c 0,73,74
 408 914 408 914 672 914 c 0,75,76
 862 914 862 914 995 805 c 128,-1,77
 1128 696 1128 696 1128 522 c 0,0,1
296 260 m 1,78,79
 348 282 348 282 348 378 c 0,80,81
 348 436 348 436 324 479 c 128,-1,82
 300 522 300 522 256 522 c 1,83,84
 228 506 228 506 228 404 c 0,85,86
 228 286 228 286 296 260 c 1,78,79
472 -128 m 1,87,-1
 474 -102 l 1,88,89
 474 -46 474 -46 438 -4 c 0,90,91
 412 24 412 24 380 24 c 0,92,93
 368 24 368 24 360 22 c 1,94,95
 354 14 354 14 350 -8 c 1,96,97
 350 -42 350 -42 383 -76 c 128,-1,98
 416 -110 416 -110 472 -128 c 1,87,-1
EndSplineSet
EndChar

StartChar: tm_au
Encoding: 2964 2964 61
Width: 2235
GlyphClass: 2
Flags: W
LayerCount: 2
Fore
SplineSet
2268 -248 m 0,0,1
 2268 -270 2268 -270 2226 -293 c 128,-1,2
 2184 -316 2184 -316 2148 -316 c 0,3,4
 2030 -316 2030 -316 2030 -208 c 2,5,-1
 2026 -60 l 2,6,7
 2026 -32 2026 -32 2038 174 c 0,8,9
 2044 278 2044 278 2044 362 c 0,10,11
 2044 466 2044 466 2047 518 c 128,-1,12
 2050 570 2050 570 2056 636 c 1,13,14
 1988 482 1988 482 1957 349 c 128,-1,15
 1926 216 1926 216 1926 110 c 1,16,-1
 1892 108 l 2,17,18
 1828 108 1828 108 1767 132 c 128,-1,19
 1706 156 1706 156 1706 202 c 2,20,-1
 1706 274 l 1,21,-1
 1708 360 l 1,22,23
 1708 602 1708 602 1610 602 c 0,24,25
 1552 602 1552 602 1496 532 c 1,26,27
 1610 496 1610 496 1610 390 c 0,28,29
 1610 292 1610 292 1541 228 c 128,-1,30
 1472 164 1472 164 1376 164 c 0,31,32
 1318 164 1318 164 1272 218 c 0,33,34
 1230 272 1230 272 1230 336 c 0,35,36
 1230 470 1230 470 1316 588 c 0,37,38
 1412 720 1412 720 1550 720 c 0,39,40
 1670 720 1670 720 1730 660 c 128,-1,41
 1790 600 1790 600 1826 452 c 1,42,-1
 1892 632 l 2,43,44
 1942 762 1942 762 1984 836 c 1,45,-1
 2036 844 l 1,46,47
 2088 844 2088 844 2145 826 c 128,-1,48
 2202 808 2202 808 2214 782 c 1,49,50
 2180 612 2180 612 2180 250 c 0,51,52
 2180 -74 2180 -74 2202 -174 c 1,53,-1
 2248 -214 l 2,54,55
 2266 -228 2266 -228 2268 -248 c 0,0,1
1458 486 m 1,56,57
 1408 454 1408 454 1408 366 c 0,58,59
 1408 330 1408 330 1422 318 c 1,60,61
 1492 354 1492 354 1492 434 c 0,62,63
 1492 472 1492 472 1458 486 c 1,56,57
1140 536 m 0,64,65
 1140 414 1140 414 1065 322 c 128,-1,66
 990 230 990 230 876 230 c 0,67,68
 810 230 810 230 738 266 c 1,69,70
 826 140 826 140 948 140 c 0,71,72
 1002 140 1002 140 1060 182 c 1,73,74
 1090 134 1090 134 1090 70 c 0,75,76
 1090 -18 1090 -18 1022 -18 c 0,77,78
 944 -18 944 -18 898 -6 c 1,79,80
 780 -154 780 -154 672 -210 c 0,81,82
 572 -260 572 -260 430 -260 c 0,83,84
 354 -260 354 -260 260 -190 c 0,85,86
 154 -114 154 -114 154 -30 c 0,87,88
 154 4 154 4 216 28 c 128,-1,89
 278 52 278 52 338 52 c 0,90,91
 352 52 352 52 360 50 c 128,-1,92
 368 48 368 48 374 44 c 1,93,-1
 360 26 l 2,94,95
 348 12 348 12 346 -2 c 0,96,97
 346 -42 346 -42 410 -88 c 128,-1,98
 474 -134 474 -134 542 -134 c 0,99,100
 608 -134 608 -134 682 -58 c 0,101,102
 736 -2 736 -2 764 58 c 1,103,104
 564 204 564 204 564 378 c 0,105,106
 564 436 564 436 570 478 c 128,-1,107
 576 520 576 520 592 554 c 1,108,109
 746 554 746 554 746 478 c 1,110,111
 714 458 714 458 714 408 c 0,112,113
 714 380 714 380 732 354 c 128,-1,114
 750 328 750 328 780 328 c 0,115,116
 846 328 846 328 894 394 c 128,-1,117
 942 460 942 460 942 540 c 0,118,119
 942 670 942 670 852 740 c 0,120,121
 774 800 774 800 638 800 c 0,122,123
 398 800 398 800 288 604 c 1,124,125
 522 582 522 582 522 404 c 0,126,127
 522 306 522 306 458 240 c 128,-1,128
 394 174 394 174 300 174 c 0,129,130
 186 174 186 174 108 243 c 128,-1,131
 30 312 30 312 30 412 c 0,132,133
 30 634 30 634 226 782 c 1,134,135
 412 916 412 916 664 916 c 0,136,137
 864 916 864 916 1002 813 c 128,-1,138
 1140 710 1140 710 1140 536 c 0,64,65
304 258 m 1,139,140
 354 290 354 290 354 372 c 0,141,142
 354 404 354 404 348 428 c 128,-1,143
 342 452 342 452 326 478 c 0,144,145
 302 524 302 524 258 524 c 1,146,147
 236 484 236 484 236 418 c 0,148,149
 236 360 236 360 254 310 c 128,-1,150
 272 260 272 260 304 258 c 1,139,140
EndSplineSet
EndChar

StartChar: tm_ka
Encoding: 2965 2965 62
Width: 1002
GlyphClass: 2
Flags: W
LayerCount: 2
Fore
SplineSet
972 268 m 0,0,1
 972 128 972 128 856 -8 c 0,2,3
 758 -128 758 -128 662 -154 c 1,4,5
 620 -136 620 -136 582 -78 c 1,6,-1
 562 -32 l 1,7,8
 666 -2 666 -2 740 128 c 0,9,10
 800 234 800 234 800 322 c 0,11,12
 800 376 800 376 758 406 c 1,13,14
 708 406 708 406 669 393 c 128,-1,15
 630 380 630 380 604 356 c 1,16,17
 604 220 604 220 579 116 c 128,-1,18
 554 12 554 12 504 -78 c 0,19,20
 420 -228 420 -228 300 -228 c 0,21,22
 196 -228 196 -228 108 -176 c 128,-1,23
 20 -124 20 -124 20 -48 c 0,24,25
 20 120 20 120 198 268 c 0,26,27
 314 368 314 368 458 422 c 1,28,29
 460 430 460 430 460 452 c 0,30,31
 460 484 460 484 451 529 c 128,-1,32
 442 574 442 574 439 586 c 128,-1,33
 436 598 436 598 424 618 c 1,34,-1
 344 500 l 1,35,36
 312 436 312 436 312 360 c 1,37,38
 290 360 290 360 266 370 c 128,-1,39
 242 380 242 380 222 396 c 0,40,41
 182 426 182 426 182 464 c 0,42,43
 182 528 182 528 272 660 c 0,44,45
 346 772 346 772 416 836 c 1,46,47
 464 836 464 836 554 806 c 1,48,49
 562 782 562 782 571 741 c 128,-1,50
 580 700 580 700 588 642 c 2,51,-1
 604 476 l 1,52,-1
 770 494 l 1,53,54
 850 494 850 494 911 426 c 128,-1,55
 972 358 972 358 972 268 c 0,0,1
462 284 m 1,56,57
 382 250 382 250 282 114 c 0,58,59
 190 -10 190 -10 190 -94 c 0,60,61
 190 -108 190 -108 192 -116 c 1,62,63
 316 -116 316 -116 396 24 c 0,64,65
 428 82 428 82 445 149 c 128,-1,66
 462 216 462 216 462 284 c 1,56,57
EndSplineSet
EndChar

StartChar: tm_nga
Encoding: 2969 2969 63
Width: 1296
GlyphClass: 2
Flags: W
LayerCount: 2
Fore
SplineSet
1264 -24 m 1,0,-1
 914 -102 l 2,1,2
 612 -170 612 -170 598 -232 c 1,3,4
 510 -188 510 -188 488 -82 c 1,5,6
 512 -58 512 -58 560 -40 c 2,7,-1
 634 -14 l 1,8,9
 676 24 676 24 695 107 c 128,-1,10
 714 190 714 190 714 324 c 1,11,12
 658 306 658 306 592 240 c 128,-1,13
 526 174 526 174 526 132 c 2,14,-1
 526 32 l 1,15,16
 436 32 436 32 396 56 c 0,17,18
 342 90 342 90 342 198 c 0,19,20
 342 366 342 366 430 606 c 1,21,22
 378 554 378 554 308 408 c 0,23,24
 226 234 226 234 226 118 c 0,25,26
 226 62 226 62 247 21 c 128,-1,27
 268 -20 268 -20 296 -24 c 1,28,29
 292 -54 292 -54 228 -54 c 0,30,31
 162 -54 162 -54 96 -20 c 128,-1,32
 30 14 30 14 30 68 c 0,33,34
 30 224 30 224 191 505 c 128,-1,35
 352 786 352 786 460 786 c 0,36,37
 528 786 528 786 562 776 c 128,-1,38
 596 766 596 766 634 716 c 1,39,40
 582 692 582 692 550 516 c 1,41,-1
 514 286 l 1,42,43
 576 380 576 380 675 462 c 128,-1,44
 774 544 774 544 830 544 c 0,45,46
 848 544 848 544 906 498 c 1,47,48
 906 414 906 414 890 324 c 0,49,50
 860 128 860 128 794 14 c 1,51,52
 1046 98 1046 98 1110 98 c 1,53,54
 1062 370 1062 370 1042 562 c 128,-1,55
 1022 754 1022 754 1022 874 c 1,56,-1
 1080 880 l 1,57,58
 1176 880 1176 880 1236 828 c 1,59,60
 1228 770 1228 770 1224 722 c 128,-1,61
 1220 674 1220 674 1220 620 c 2,62,-1
 1224 504 l 1,63,-1
 1228 376 l 2,64,65
 1228 330 1228 330 1246 170 c 2,66,-1
 1264 -24 l 1,0,-1
EndSplineSet
EndChar

StartChar: tm_ca
Encoding: 2970 2970 64
Width: 992
GlyphClass: 2
Flags: W
LayerCount: 2
Fore
SplineSet
960 282 m 1,0,1
 860 332 860 332 750 332 c 0,2,3
 682 332 682 332 622 312 c 1,4,5
 622 134 622 134 564 -28 c 0,6,7
 486 -252 486 -252 338 -252 c 0,8,9
 206 -252 206 -252 118 -197 c 128,-1,10
 30 -142 30 -142 30 -72 c 0,11,12
 30 92 30 92 222 246 c 0,13,14
 358 352 358 352 484 390 c 1,15,-1
 454 578 l 1,16,17
 430 576 430 576 378 489 c 128,-1,18
 326 402 326 402 326 324 c 1,19,20
 294 320 294 320 254 346 c 0,21,22
 204 378 204 378 204 428 c 0,23,24
 204 498 204 498 307 640 c 128,-1,25
 410 782 410 782 450 782 c 0,26,27
 520 782 520 782 572 758 c 1,28,29
 582 734 582 734 634 436 c 1,30,31
 714 454 714 454 779 464 c 128,-1,32
 844 474 844 474 902 474 c 0,33,34
 930 474 930 474 953 431 c 128,-1,35
 976 388 976 388 976 342 c 0,36,37
 976 300 976 300 960 282 c 1,0,1
464 236 m 1,38,39
 372 198 372 198 276 66 c 0,40,41
 188 -58 188 -58 200 -132 c 1,42,43
 216 -134 216 -134 222 -134 c 0,44,45
 320 -134 320 -134 394 -29 c 128,-1,46
 468 76 468 76 468 196 c 0,47,48
 468 222 468 222 464 236 c 1,38,39
EndSplineSet
EndChar

StartChar: tm_ja
Encoding: 2972 2972 65
Width: 1130
GlyphClass: 2
Flags: W
LayerCount: 2
Fore
SplineSet
1100 154 m 0,0,1
 1100 -4 1100 -4 996 -182 c 1,2,-1
 870 -368 l 1,3,4
 666 -368 666 -368 666 -278 c 0,5,6
 666 -260 666 -260 682 -238 c 1,7,8
 778 -238 778 -238 878 -60 c 0,9,10
 956 76 956 76 956 166 c 0,11,12
 956 184 956 184 954 192 c 1,13,14
 896 186 896 186 802 102 c 0,15,16
 750 56 750 56 632 -70 c 0,17,18
 404 -316 404 -316 320 -316 c 0,19,20
 188 -316 188 -316 116 -258 c 128,-1,21
 44 -200 44 -200 44 -112 c 0,22,23
 44 46 44 46 320 208 c 1,24,25
 360 226 360 226 429 263 c 128,-1,26
 498 300 498 300 596 354 c 1,27,28
 944 564 944 564 944 692 c 1,29,-1
 938 722 l 1,30,31
 814 704 814 704 714 596 c 0,32,33
 628 498 628 498 616 396 c 1,34,35
 486 396 486 396 448 464 c 1,36,37
 486 574 486 574 486 608 c 0,38,39
 486 634 486 634 478 656 c 1,40,-1
 388 602 l 2,41,42
 342 570 342 570 320 530 c 1,43,44
 360 518 360 518 390 487 c 128,-1,45
 420 456 420 456 420 426 c 0,46,47
 420 360 420 360 353 293 c 128,-1,48
 286 226 286 226 208 226 c 0,49,50
 148 226 148 226 106 256 c 0,51,52
 52 292 52 292 52 368 c 0,53,54
 52 510 52 510 188 641 c 128,-1,55
 324 772 324 772 458 772 c 0,56,57
 530 772 530 772 596 680 c 1,58,59
 752 842 752 842 892 842 c 0,60,61
 966 842 966 842 1020 783 c 128,-1,62
 1074 724 1074 724 1074 646 c 0,63,64
 1074 490 1074 490 882 358 c 1,65,-1
 714 258 l 1,66,67
 578 186 578 186 536 158 c 0,68,69
 456 108 456 108 324 12 c 1,70,71
 204 -94 204 -94 204 -190 c 0,72,73
 204 -210 204 -210 208 -222 c 1,74,75
 260 -228 260 -228 362 -128 c 2,76,-1
 570 80 l 1,77,78
 804 304 804 304 954 304 c 0,79,80
 1100 304 1100 304 1100 154 c 0,0,1
270 480 m 1,81,82
 254 472 254 472 230 432 c 0,83,84
 210 392 210 392 210 364 c 0,85,86
 210 344 210 344 220 334 c 1,87,88
 242 340 242 340 266 370 c 0,89,90
 276 384 276 384 282 400 c 128,-1,91
 288 416 288 416 288 434 c 0,92,93
 288 458 288 458 270 480 c 1,81,82
EndSplineSet
EndChar

StartChar: tm_nya
Encoding: 2974 2974 66
Width: 1596
GlyphClass: 2
Flags: W
LayerCount: 2
Fore
SplineSet
1566 506 m 1,0,-1
 1556 366 l 1,1,-1
 1548 226 l 1,2,3
 1548 -16 1548 -16 1327 -187 c 128,-1,4
 1106 -358 1106 -358 822 -358 c 0,5,6
 482 -358 482 -358 256 -183 c 128,-1,7
 30 -8 30 -8 30 244 c 0,8,9
 30 420 30 420 144 564 c 0,10,11
 246 694 246 694 348 694 c 0,12,13
 388 694 388 694 441 657 c 128,-1,14
 494 620 494 620 494 586 c 1,15,16
 372 566 372 566 299 446 c 128,-1,17
 226 326 226 326 226 176 c 0,18,19
 226 -22 226 -22 390 -136 c 0,20,21
 536 -236 536 -236 756 -236 c 0,22,23
 1104 -236 1104 -236 1266 -54 c 0,24,25
 1294 -22 1294 -22 1314 19 c 128,-1,26
 1334 60 1334 60 1348 114 c 0,27,28
 1356 148 1356 148 1362 180 c 0,29,30
 1378 268 1378 268 1378 344 c 1,31,-1
 1282 256 l 1,32,33
 1210 178 1210 178 1210 114 c 0,34,35
 1210 90 1210 90 1220 68 c 2,36,-1
 1240 22 l 1,37,-1
 1142 16 l 1,38,39
 1066 16 1066 16 1034 52 c 128,-1,40
 1002 88 1002 88 1002 184 c 0,41,42
 1002 524 1002 524 1086 702 c 1,43,-1
 962 678 l 1,44,45
 854 650 854 650 780 598 c 0,46,47
 680 528 680 528 644 406 c 1,48,49
 660 410 660 410 674 412 c 128,-1,50
 688 414 688 414 704 416 c 0,51,52
 784 416 784 416 849 362 c 128,-1,53
 914 308 914 308 914 230 c 0,54,55
 914 116 914 116 845 48 c 128,-1,56
 776 -20 776 -20 668 -20 c 256,57,58
 560 -20 560 -20 489 53 c 128,-1,59
 418 126 418 126 418 240 c 0,60,61
 418 530 418 530 692 694 c 0,62,63
 800 758 800 758 917 791 c 128,-1,64
 1034 824 1034 824 1164 824 c 1,65,-1
 1298 756 l 1,66,67
 1254 742 1254 742 1214 558 c 0,68,69
 1198 488 1198 488 1190 412 c 128,-1,70
 1182 336 1182 336 1182 284 c 1,71,-1
 1298 444 l 1,72,73
 1344 498 1344 498 1382 523 c 128,-1,74
 1420 548 1420 548 1456 548 c 0,75,76
 1494 548 1494 548 1566 506 c 1,0,-1
722 76 m 1,77,78
 756 100 756 100 756 156 c 0,79,80
 756 224 756 224 714 284 c 0,81,82
 686 324 686 324 652 324 c 0,83,84
 642 324 642 324 626 318 c 1,85,86
 620 306 620 306 620 276 c 0,87,88
 620 212 620 212 647 144 c 128,-1,89
 674 76 674 76 722 76 c 1,77,78
EndSplineSet
EndChar

StartChar: tm_tta
Encoding: 2975 2975 67
Width: 1028
GlyphClass: 2
Flags: W
LayerCount: 2
Fore
SplineSet
1014 86 m 0,0,1
 1014 32 1014 32 817 -22 c 128,-1,2
 620 -76 620 -76 438 -76 c 0,3,4
 272 -76 272 -76 151 36 c 128,-1,5
 30 148 30 148 30 312 c 0,6,7
 30 380 30 380 38 449 c 128,-1,8
 46 518 46 518 64 586 c 0,9,10
 100 732 100 732 150 732 c 0,11,12
 338 732 338 732 338 654 c 1,13,14
 206 600 206 600 206 290 c 0,15,16
 206 32 206 32 464 32 c 0,17,18
 578 32 578 32 717 109 c 128,-1,19
 856 186 856 186 888 190 c 1,20,21
 934 190 934 190 974 155 c 128,-1,22
 1014 120 1014 120 1014 86 c 0,0,1
EndSplineSet
EndChar

StartChar: tm_nna
Encoding: 2979 2979 68
Width: 1648
GlyphClass: 2
Flags: W
LayerCount: 2
Fore
SplineSet
1670 -484 m 1,0,1
 1658 -502 1658 -502 1600 -540 c 128,-1,2
 1542 -578 1542 -578 1508 -578 c 0,3,4
 1490 -578 1490 -578 1478 -566 c 1,5,6
 1466 -520 1466 -520 1456 -367 c 128,-1,7
 1446 -214 1446 -214 1446 -8 c 0,8,9
 1446 210 1446 210 1435 371 c 128,-1,10
 1424 532 1424 532 1412 598 c 1,11,-1
 1324 540 l 1,12,13
 1382 460 1382 460 1382 322 c 0,14,15
 1382 180 1382 180 1282 72 c 128,-1,16
 1182 -36 1182 -36 1048 -36 c 0,17,18
 874 -36 874 -36 874 156 c 1,19,20
 846 110 846 110 778 50 c 1,21,22
 686 -20 686 -20 606 -20 c 0,23,24
 478 -20 478 -20 418 114 c 1,25,-1
 334 48 l 2,26,27
 270 0 270 0 210 0 c 0,28,29
 140 0 140 0 85 59 c 128,-1,30
 30 118 30 118 30 188 c 0,31,32
 30 350 30 350 205 524 c 128,-1,33
 380 698 380 698 560 698 c 0,34,35
 640 698 640 698 756 636 c 1,36,37
 870 702 870 702 994 702 c 0,38,39
 1106 702 1106 702 1202 648 c 1,40,-1
 1494 890 l 1,41,-1
 1604 860 l 1,42,43
 1598 680 1598 680 1594 521 c 128,-1,44
 1590 362 1590 362 1590 168 c 0,45,46
 1590 -120 1590 -120 1670 -484 c 1,0,1
664 564 m 1,47,48
 628 594 628 594 540 594 c 0,49,50
 518 594 518 594 448 540 c 2,51,-1
 344 456 l 1,52,53
 414 426 414 426 472 360 c 1,54,55
 598 522 598 522 664 564 c 1,47,48
1128 568 m 1,56,-1
 1072 576 l 1,57,58
 946 576 946 576 874 506 c 1,59,60
 910 450 910 450 924 310 c 1,61,62
 1062 508 1062 508 1128 568 c 1,56,-1
1228 444 m 1,63,64
 1168 402 1168 402 1108 295 c 128,-1,65
 1048 188 1048 188 1048 134 c 0,66,67
 1048 104 1048 104 1072 104 c 0,68,69
 1126 104 1126 104 1194 252 c 0,70,71
 1238 348 1238 348 1238 404 c 0,72,73
 1238 428 1238 428 1228 444 c 1,63,64
752 438 m 1,74,75
 724 432 724 432 643 311 c 128,-1,76
 562 190 562 190 562 136 c 0,77,78
 562 114 562 114 586 110 c 1,79,80
 640 110 640 110 712 252 c 0,81,82
 760 352 760 352 760 404 c 0,83,84
 760 428 760 428 752 438 c 1,74,75
302 372 m 1,85,86
 282 366 282 366 252 304 c 1,87,88
 226 238 226 238 226 200 c 0,89,90
 226 176 226 176 240 168 c 1,91,92
 252 166 252 166 299 220 c 128,-1,93
 346 274 346 274 346 318 c 0,94,95
 346 354 346 354 302 372 c 1,85,86
EndSplineSet
EndChar

StartChar: tm_ta
Encoding: 2980 2980 69
Width: 964
GlyphClass: 2
Flags: W
LayerCount: 2
Fore
SplineSet
934 288 m 0,0,1
 934 120 934 120 810 -80 c 128,-1,2
 686 -280 686 -280 496 -412 c 0,3,4
 290 -554 290 -554 92 -554 c 0,5,6
 6 -554 6 -554 -52 -524 c 0,7,8
 -118 -488 -118 -488 -118 -420 c 0,9,10
 -118 -344 -118 -344 -76 -254 c 1,11,12
 50 -346 50 -346 180 -346 c 0,13,14
 416 -346 416 -346 588 -138 c 0,15,16
 672 -36 672 -36 720 90 c 128,-1,17
 768 216 768 216 768 318 c 0,18,19
 768 410 768 410 704 410 c 0,20,21
 684 410 684 410 655 402 c 128,-1,22
 626 394 626 394 588 376 c 1,23,24
 588 150 588 150 520 2 c 0,25,26
 438 -178 438 -178 276 -178 c 0,27,28
 188 -178 188 -178 106 -118 c 0,29,30
 30 -58 30 -58 30 8 c 0,31,32
 30 136 30 136 180 272 c 0,33,34
 296 372 296 372 458 448 c 1,35,36
 450 488 450 488 442 543 c 128,-1,37
 434 598 434 598 430 626 c 1,38,39
 388 600 388 600 348 524 c 0,40,41
 332 490 332 490 322 455 c 128,-1,42
 312 420 312 420 308 380 c 1,43,44
 244 380 244 380 188 448 c 1,45,46
 210 642 210 642 412 826 c 1,47,-1
 530 810 l 1,48,49
 554 758 554 758 569 679 c 128,-1,50
 584 600 584 600 584 488 c 1,51,52
 664 508 664 508 716 508 c 0,53,54
 824 508 824 508 884 440 c 0,55,56
 934 380 934 380 934 288 c 0,0,1
472 318 m 1,57,58
 404 294 404 294 297 156 c 128,-1,59
 190 18 190 18 190 -46 c 0,60,61
 190 -78 190 -78 230 -78 c 0,62,63
 298 -78 298 -78 368 22 c 0,64,65
 448 134 448 134 472 318 c 1,57,58
EndSplineSet
EndChar

StartChar: tm_na
Encoding: 2984 2984 70
Width: 872
GlyphClass: 2
Flags: W
LayerCount: 2
Fore
SplineSet
840 498 m 1,0,1
 840 370 840 370 824 258 c 0,2,3
 818 218 818 218 796 98 c 128,-1,4
 774 -22 774 -22 718 -132 c 0,5,6
 628 -310 628 -310 448 -422 c 0,7,8
 286 -520 286 -520 144 -520 c 0,9,10
 -82 -520 -82 -520 -82 -388 c 0,11,12
 -82 -294 -82 -294 -28 -192 c 1,13,14
 26 -300 26 -300 218 -300 c 0,15,16
 438 -300 438 -300 568 -110 c 0,17,18
 678 48 678 48 678 238 c 0,19,20
 678 248 678 248 676 276 c 128,-1,21
 674 304 674 304 668 342 c 1,22,23
 634 330 634 330 590 280 c 0,24,25
 530 216 530 216 530 146 c 0,26,27
 530 102 530 102 552 64 c 1,28,-1
 522 38 l 1,29,30
 416 54 416 54 373 101 c 128,-1,31
 330 148 330 148 330 244 c 0,32,33
 330 338 330 338 386 610 c 1,34,35
 330 540 330 540 274 394 c 128,-1,36
 218 248 218 248 218 154 c 0,37,38
 218 92 218 92 276 8 c 1,39,-1
 192 0 l 1,40,41
 30 0 30 0 30 64 c 0,42,43
 30 242 30 242 182 516 c 0,44,45
 326 780 326 780 448 848 c 1,46,47
 556 818 556 818 572 764 c 1,48,49
 510 640 510 640 510 460 c 0,50,51
 510 338 510 338 518 322 c 1,52,53
 676 552 676 552 760 552 c 0,54,55
 790 552 790 552 812 537 c 128,-1,56
 834 522 834 522 840 498 c 1,0,1
EndSplineSet
EndChar

StartChar: tm_nnna
Encoding: 2985 2985 71
Width: 1164
GlyphClass: 2
Flags: W
LayerCount: 2
Fore
SplineSet
1202 -434 m 1,0,1
 1114 -532 1114 -532 1018 -564 c 1,2,3
 998 -552 998 -552 985 -500 c 128,-1,4
 972 -448 972 -448 972 -362 c 0,5,6
 972 -306 972 -306 964 -194 c 128,-1,7
 956 -82 956 -82 956 -26 c 1,8,9
 944 108 944 108 939 246 c 128,-1,10
 934 384 934 384 934 506 c 2,11,-1
 934 638 l 1,12,13
 912 624 912 624 882 600 c 128,-1,14
 852 576 852 576 826 550 c 1,15,16
 902 452 902 452 902 338 c 0,17,18
 902 206 902 206 794 94 c 128,-1,19
 686 -18 686 -18 588 -18 c 0,20,21
 474 -18 474 -18 404 112 c 1,22,23
 326 0 326 0 230 0 c 0,24,25
 176 0 176 0 106 52 c 0,26,27
 30 110 30 110 30 174 c 0,28,29
 30 328 30 328 180 508 c 0,30,31
 342 700 342 700 538 700 c 0,32,33
 626 700 626 700 700 654 c 2,34,-1
 706 650 l 1,35,36
 748 704 748 704 858 794 c 128,-1,37
 968 884 968 884 1022 900 c 1,38,-1
 1118 880 l 1,39,40
 1118 774 1118 774 1116 712 c 0,41,42
 1106 404 1106 404 1106 354 c 0,43,44
 1106 274 1106 274 1112 179 c 128,-1,45
 1118 84 1118 84 1132 -46 c 0,46,47
 1162 -318 1162 -318 1202 -434 c 1,0,1
630 592 m 1,48,49
 564 598 564 598 470 544 c 128,-1,50
 376 490 376 490 354 442 c 1,51,-1
 402 406 l 1,52,53
 430 380 430 380 450 350 c 1,54,55
 510 440 510 440 630 592 c 1,48,49
734 446 m 1,56,57
 686 422 686 422 626 318 c 128,-1,58
 566 214 566 214 566 154 c 0,59,60
 566 132 566 132 580 120 c 1,61,62
 628 120 628 120 684 230 c 0,63,64
 734 332 734 332 734 446 c 1,56,57
296 366 m 1,65,66
 270 346 270 346 245 297 c 128,-1,67
 220 248 220 248 220 214 c 0,68,69
 220 188 220 188 238 182 c 1,70,71
 274 194 274 194 301 230 c 128,-1,72
 328 266 328 266 328 302 c 0,73,74
 328 340 328 340 296 366 c 1,65,66
EndSplineSet
EndChar

StartChar: tm_pa
Encoding: 2986 2986 72
Width: 1072
GlyphClass: 2
Flags: W
LayerCount: 2
Fore
SplineSet
1028 514 m 0,0,1
 1028 332 1028 332 844 140 c 0,2,3
 644 -66 644 -66 424 -66 c 0,4,5
 260 -66 260 -66 150 68 c 0,6,7
 96 134 96 134 70 207 c 128,-1,8
 44 280 44 280 44 376 c 0,9,10
 44 532 44 532 94 668 c 1,11,12
 126 694 126 694 178 694 c 0,13,14
 284 694 284 694 306 622 c 1,15,16
 266 610 266 610 241 527 c 128,-1,17
 216 444 216 444 216 350 c 0,18,19
 216 84 216 84 416 84 c 0,20,21
 558 84 558 84 737 257 c 128,-1,22
 916 430 916 430 916 568 c 0,23,24
 916 668 916 668 832 668 c 0,25,26
 780 668 780 668 770 638 c 1,27,-1
 746 636 l 1,28,29
 686 636 686 636 686 688 c 0,30,31
 686 760 686 760 744 806 c 1,32,33
 886 806 886 806 962 718 c 0,34,35
 1028 640 1028 640 1028 514 c 0,0,1
EndSplineSet
EndChar

StartChar: tm_ma
Encoding: 2990 2990 73
Width: 1068
GlyphClass: 2
Flags: W
LayerCount: 2
Fore
SplineSet
1036 696 m 0,0,1
 1036 484 1036 484 810 250 c 0,2,3
 682 116 682 116 525 22 c 128,-1,4
 368 -72 368 -72 276 -72 c 0,5,6
 172 -72 172 -72 101 32 c 128,-1,7
 30 136 30 136 30 292 c 0,8,9
 30 414 30 414 72 562 c 1,10,11
 146 618 146 618 230 618 c 0,12,13
 274 618 274 618 314 600 c 1,14,15
 214 466 214 466 214 288 c 0,16,17
 214 88 214 88 352 88 c 0,18,19
 396 88 396 88 454 126 c 0,20,21
 502 156 502 156 524 192 c 1,22,23
 458 198 458 198 418 246 c 128,-1,24
 378 294 378 294 378 354 c 0,25,26
 378 532 378 532 564 682 c 0,27,28
 734 816 734 816 896 816 c 0,29,30
 1036 816 1036 816 1036 696 c 0,0,1
866 634 m 1,31,32
 760 610 760 610 661 526 c 128,-1,33
 562 442 562 442 536 342 c 1,34,35
 548 336 548 336 574 332 c 1,36,37
 654 332 654 332 760 440 c 128,-1,38
 866 548 866 548 866 634 c 1,31,32
EndSplineSet
EndChar

StartChar: tm_ya
Encoding: 2991 2991 74
Width: 1240
GlyphClass: 2
Flags: W
LayerCount: 2
Fore
SplineSet
1196 650 m 0,0,1
 1196 420 1196 420 1084 202 c 0,2,3
 948 -64 948 -64 728 -64 c 0,4,5
 606 -64 606 -64 523 9 c 128,-1,6
 440 82 440 82 404 200 c 1,7,8
 384 160 384 160 337 115 c 128,-1,9
 290 70 290 70 240 70 c 0,10,11
 134 70 134 70 80 250 c 0,12,13
 44 380 44 380 44 548 c 0,14,15
 44 608 44 608 48 624 c 1,16,17
 74 646 74 646 112 658 c 128,-1,18
 150 670 150 670 200 670 c 0,19,20
 286 670 286 670 294 624 c 1,21,22
 232 540 232 540 232 416 c 0,23,24
 232 228 232 228 302 228 c 0,25,26
 350 228 350 228 376 314 c 1,27,-1
 410 498 l 1,28,29
 428 624 428 624 448 666 c 1,30,31
 496 690 496 690 546 690 c 0,32,33
 652 690 652 690 696 608 c 1,34,35
 638 602 638 602 602 498 c 1,36,37
 578 414 578 414 578 296 c 0,38,39
 578 40 578 40 728 40 c 0,40,41
 836 40 836 40 908 224 c 0,42,43
 966 376 966 376 966 538 c 0,44,45
 966 706 966 706 916 788 c 1,46,47
 938 816 938 816 998 837 c 128,-1,48
 1058 858 1058 858 1100 858 c 0,49,50
 1196 858 1196 858 1196 650 c 0,0,1
EndSplineSet
EndChar

StartChar: tm_ra
Encoding: 2992 2992 75
Width: 632
GlyphClass: 2
Flags: W
LayerCount: 2
Fore
SplineSet
576 776 m 1,0,1
 556 690 556 690 556 252 c 0,2,3
 556 56 556 56 532 -53 c 128,-1,4
 508 -162 508 -162 448 -254 c 0,5,6
 362 -392 362 -392 214 -464 c 0,7,8
 94 -524 94 -524 -20 -524 c 0,9,10
 -70 -524 -70 -524 -98 -470 c 128,-1,11
 -126 -416 -126 -416 -126 -354 c 0,12,13
 -126 -304 -126 -304 -112 -274 c 1,14,15
 -62 -312 -62 -312 0 -312 c 0,16,17
 188 -312 188 -312 312 -132 c 0,18,19
 426 36 426 36 426 268 c 1,20,21
 420 348 420 348 415 429 c 128,-1,22
 410 510 410 510 410 568 c 1,23,24
 378 554 378 554 294 404 c 0,25,26
 202 236 202 236 202 142 c 0,27,28
 202 64 202 64 260 46 c 1,29,30
 220 20 220 20 170 20 c 0,31,32
 114 20 114 20 72 49 c 128,-1,33
 30 78 30 78 30 126 c 0,34,35
 30 258 30 258 204 526 c 0,36,37
 370 778 370 778 468 818 c 1,38,39
 496 818 496 818 520 809 c 128,-1,40
 544 800 544 800 576 776 c 1,0,1
EndSplineSet
EndChar

StartChar: tm_rra
Encoding: 2993 2993 76
Width: 960
GlyphClass: 2
Flags: W
LayerCount: 2
Fore
SplineSet
964 130 m 0,0,1
 964 -108 964 -108 834 -282 c 0,2,3
 734 -418 734 -418 546 -518 c 0,4,5
 380 -604 380 -604 266 -604 c 0,6,7
 114 -604 114 -604 24 -566 c 1,8,9
 4 -538 4 -538 -20 -462 c 0,10,11
 -28 -432 -28 -432 -35 -400 c 128,-1,12
 -42 -368 -42 -368 -42 -344 c 0,13,14
 -42 -322 -42 -322 -38 -312 c 1,15,16
 28 -358 28 -358 81 -372 c 128,-1,17
 134 -386 134 -386 216 -386 c 0,18,19
 444 -386 444 -386 614 -258 c 0,20,21
 822 -102 822 -102 822 206 c 0,22,23
 822 268 822 268 804 366 c 128,-1,24
 786 464 786 464 746 610 c 1,25,26
 588 366 588 366 588 184 c 0,27,28
 588 138 588 138 591 118 c 128,-1,29
 594 98 594 98 604 74 c 2,30,-1
 634 -6 l 1,31,32
 602 -22 602 -22 562 -22 c 0,33,34
 474 -22 474 -22 408 38 c 1,35,-1
 400 334 l 1,36,37
 400 522 400 522 384 548 c 1,38,39
 242 364 242 364 242 160 c 0,40,41
 242 118 242 118 256 70 c 128,-1,42
 270 22 270 22 300 -32 c 1,43,44
 282 -68 282 -68 222 -68 c 0,45,46
 164 -68 164 -68 114 -36 c 0,47,48
 58 2 58 2 58 52 c 0,49,50
 58 244 58 244 170 442 c 1,51,-1
 354 718 l 1,52,-1
 408 726 l 1,53,54
 486 726 486 726 538 690 c 1,55,56
 506 662 506 662 506 508 c 0,57,58
 506 432 506 432 518 372 c 1,59,60
 562 498 562 498 642 626 c 0,61,62
 736 776 736 776 796 794 c 0,63,64
 806 800 806 800 824 800 c 0,65,66
 864 800 864 800 942 770 c 1,67,68
 906 704 906 704 906 628 c 0,69,70
 906 576 906 576 912 520 c 128,-1,71
 918 464 918 464 934 380 c 0,72,73
 964 226 964 226 964 130 c 0,0,1
EndSplineSet
EndChar

StartChar: tm_la
Encoding: 2994 2994 77
Width: 1072
GlyphClass: 2
Flags: W
LayerCount: 2
Fore
SplineSet
1072 528 m 0,0,1
 1072 312 1072 312 964 132 c 128,-1,2
 856 -48 856 -48 722 -48 c 0,3,4
 564 -48 564 -48 512 114 c 0,5,6
 500 158 500 158 492 228 c 128,-1,7
 484 298 484 298 484 412 c 0,8,9
 484 574 484 574 426 574 c 0,10,11
 388 574 388 574 334 530 c 128,-1,12
 280 486 280 486 246 430 c 1,13,14
 306 430 306 430 370 377 c 128,-1,15
 434 324 434 324 434 272 c 0,16,17
 434 204 434 204 372 128 c 0,18,19
 302 42 302 42 224 42 c 0,20,21
 130 42 130 42 63 105 c 128,-1,22
 -4 168 -4 168 -4 250 c 0,23,24
 -4 394 -4 394 116 530 c 0,25,26
 246 672 246 672 420 672 c 0,27,28
 470 672 470 672 538 618 c 128,-1,29
 606 564 606 564 632 480 c 1,30,-1
 662 250 l 2,31,32
 686 80 686 80 740 80 c 0,33,34
 804 80 804 80 852 182 c 1,35,36
 890 278 890 278 890 380 c 0,37,38
 890 542 890 542 860 626 c 0,39,40
 842 680 842 680 802 706 c 0,41,42
 772 724 772 724 772 740 c 0,43,44
 772 766 772 766 846 804 c 0,45,46
 916 836 916 836 948 836 c 0,47,48
 1072 836 1072 836 1072 528 c 0,0,1
274 250 m 0,49,50
 274 282 274 282 249 313 c 128,-1,51
 224 344 224 344 202 344 c 0,52,53
 164 344 164 344 164 224 c 0,54,55
 164 156 164 156 190 154 c 0,56,57
 208 154 208 154 241 185 c 128,-1,58
 274 216 274 216 274 250 c 0,49,50
EndSplineSet
EndChar

StartChar: tm_lla
Encoding: 2995 2995 78
Width: 1040
GlyphClass: 2
Flags: W
LayerCount: 2
Fore
SplineSet
1068 -248 m 0,0,1
 1068 -270 1068 -270 1026 -293 c 128,-1,2
 984 -316 984 -316 948 -316 c 0,3,4
 830 -316 830 -316 830 -208 c 2,5,-1
 826 -60 l 2,6,7
 826 -32 826 -32 838 174 c 0,8,9
 844 278 844 278 844 362 c 0,10,11
 844 466 844 466 847 518 c 128,-1,12
 850 570 850 570 856 636 c 1,13,14
 788 482 788 482 757 349 c 128,-1,15
 726 216 726 216 726 110 c 1,16,-1
 692 108 l 2,17,18
 628 108 628 108 567 132 c 128,-1,19
 506 156 506 156 506 202 c 2,20,-1
 506 274 l 1,21,-1
 508 360 l 1,22,23
 508 602 508 602 410 602 c 0,24,25
 352 602 352 602 296 532 c 1,26,27
 410 496 410 496 410 390 c 0,28,29
 410 292 410 292 341 228 c 128,-1,30
 272 164 272 164 176 164 c 0,31,32
 118 164 118 164 72 218 c 0,33,34
 30 272 30 272 30 336 c 0,35,36
 30 470 30 470 116 588 c 0,37,38
 212 720 212 720 350 720 c 0,39,40
 470 720 470 720 530 660 c 128,-1,41
 590 600 590 600 626 452 c 1,42,-1
 692 632 l 2,43,44
 742 762 742 762 784 836 c 1,45,-1
 836 844 l 1,46,47
 888 844 888 844 945 826 c 128,-1,48
 1002 808 1002 808 1014 782 c 1,49,50
 980 612 980 612 980 250 c 0,51,52
 980 -74 980 -74 1002 -174 c 1,53,-1
 1048 -214 l 2,54,55
 1066 -228 1066 -228 1068 -248 c 0,0,1
258 486 m 1,56,57
 208 454 208 454 208 366 c 0,58,59
 208 330 208 330 222 318 c 1,60,61
 292 354 292 354 292 434 c 0,62,63
 292 472 292 472 258 486 c 1,56,57
EndSplineSet
EndChar

StartChar: tm_llla
Encoding: 2996 2996 79
Width: 1060
GlyphClass: 2
Flags: W
LayerCount: 2
Fore
SplineSet
1030 674 m 0,0,1
 1030 522 1030 522 874 326 c 0,2,3
 776 206 776 206 652 106 c 1,4,5
 708 54 708 54 778 54 c 1,6,-1
 810 60 l 1,7,-1
 814 16 l 1,8,9
 814 -106 814 -106 764 -164 c 1,10,-1
 638 -98 l 1,11,12
 470 -344 470 -344 250 -344 c 0,13,14
 24 -344 24 -344 -80 -136 c 1,15,16
 16 -26 16 -26 84 -40 c 1,17,18
 98 -112 98 -112 151 -163 c 128,-1,19
 204 -214 204 -214 276 -214 c 0,20,21
 356 -214 356 -214 442 -146 c 0,22,23
 504 -96 504 -96 546 -26 c 1,24,-1
 522 28 l 1,25,26
 398 -56 398 -56 272 -56 c 0,27,28
 152 -56 152 -56 86 52 c 0,29,30
 30 142 30 142 30 262 c 0,31,32
 30 502 30 502 80 600 c 1,33,34
 136 640 136 640 206 640 c 0,35,36
 262 640 262 640 314 616 c 1,37,38
 218 436 218 436 218 320 c 0,39,40
 218 116 218 116 322 116 c 0,41,42
 372 116 372 116 434 148 c 1,43,44
 372 204 372 204 372 340 c 0,45,46
 372 526 372 526 560 676 c 0,47,48
 724 804 724 804 872 804 c 0,49,50
 1030 804 1030 804 1030 674 c 0,0,1
838 620 m 1,51,52
 742 602 742 602 632 498 c 128,-1,53
 522 394 522 394 522 302 c 0,54,55
 522 264 522 264 542 236 c 1,56,57
 560 228 560 228 686 368 c 0,58,59
 820 520 820 520 838 620 c 1,51,52
EndSplineSet
EndChar

StartChar: tm_va
Encoding: 2997 2997 80
Width: 948
GlyphClass: 2
Flags: W
LayerCount: 2
Fore
SplineSet
958 790 m 1,0,1
 900 646 900 646 900 310 c 0,2,3
 900 152 900 152 918 52 c 1,4,5
 918 8 918 8 872 -10 c 1,6,-1
 802 -6 l 1,7,8
 602 -6 602 -6 351 -56 c 128,-1,9
 100 -106 100 -106 92 -168 c 1,10,11
 22 -144 22 -144 -14 -22 c 1,12,13
 140 54 140 54 304 82 c 1,14,15
 392 152 392 152 473 294 c 128,-1,16
 554 436 554 436 554 528 c 0,17,18
 554 582 554 582 520 602 c 0,19,20
 500 612 500 612 446 612 c 0,21,22
 418 612 418 612 377 592 c 128,-1,23
 336 572 336 572 312 540 c 1,24,25
 358 534 358 534 402 492 c 128,-1,26
 446 450 446 450 446 390 c 0,27,28
 446 312 446 312 374 254 c 1,29,30
 300 202 300 202 208 202 c 0,31,32
 148 202 148 202 86 253 c 128,-1,33
 24 304 24 304 24 366 c 0,34,35
 24 512 24 512 152 622 c 128,-1,36
 280 732 280 732 438 732 c 0,37,38
 550 732 550 732 615 673 c 128,-1,39
 680 614 680 614 680 512 c 0,40,41
 680 314 680 314 516 120 c 1,42,43
 592 128 592 128 644 132 c 128,-1,44
 696 136 696 136 746 136 c 1,45,46
 724 268 724 268 724 522 c 0,47,48
 724 826 724 826 754 866 c 1,49,-1
 798 872 l 1,50,51
 876 872 876 872 958 790 c 1,0,1
238 486 m 1,52,53
 224 478 224 478 201 424 c 128,-1,54
 178 370 178 370 178 332 c 0,55,56
 178 296 178 296 204 290 c 0,57,58
 280 278 280 278 280 384 c 0,59,60
 280 458 280 458 238 486 c 1,52,53
EndSplineSet
EndChar

StartChar: tm_ssa
Encoding: 2999 2999 81
Width: 1466
GlyphClass: 2
Flags: W
LayerCount: 2
Fore
SplineSet
1430 132 m 1,0,1
 1452 114 1452 114 1452 70 c 0,2,3
 1452 -32 1452 -32 1372 -68 c 1,4,5
 1256 -40 1256 -40 1155 -27 c 128,-1,6
 1054 -14 1054 -14 962 -14 c 1,7,8
 928 -84 928 -84 752 -262 c 0,9,10
 600 -420 600 -420 516 -482 c 1,11,12
 464 -464 464 -464 431 -421 c 128,-1,13
 398 -378 398 -378 398 -344 c 0,14,15
 398 -324 398 -324 408 -314 c 1,16,-1
 422 -316 l 1,17,18
 512 -316 512 -316 812 -10 c 1,19,20
 688 -10 688 -10 582 -24 c 0,21,22
 532 -30 532 -30 432 -50 c 1,23,24
 152 -94 152 -94 92 -178 c 1,25,26
 52 -156 52 -156 22 -98 c 0,27,28
 4 -58 4 -58 0 -22 c 1,29,30
 34 0 34 0 162 40 c 0,31,32
 274 72 274 72 328 78 c 1,33,34
 364 116 364 116 462 240 c 1,35,36
 504 306 504 306 539 396 c 128,-1,37
 574 486 574 486 574 520 c 0,38,39
 574 602 574 602 480 602 c 0,40,41
 410 602 410 602 332 536 c 1,42,43
 466 484 466 484 466 382 c 0,44,45
 466 302 466 302 392 248 c 1,46,47
 316 198 316 198 220 198 c 0,48,49
 164 198 164 198 102 252 c 128,-1,50
 40 306 40 306 40 374 c 0,51,52
 40 498 40 498 168 611 c 128,-1,53
 296 724 296 724 450 724 c 0,54,55
 544 724 544 724 620 665 c 128,-1,56
 696 606 696 606 696 524 c 0,57,58
 696 398 696 398 638 280 c 0,59,60
 620 244 620 244 594 204 c 128,-1,61
 568 164 568 164 524 102 c 1,62,63
 560 118 560 118 702 130 c 2,64,-1
 896 144 l 1,65,-1
 946 228 l 1,66,67
 796 304 796 304 796 474 c 0,68,69
 796 586 796 586 880 692 c 128,-1,70
 964 798 964 798 1080 798 c 0,71,72
 1148 798 1148 798 1195 751 c 128,-1,73
 1242 704 1242 704 1242 640 c 0,74,75
 1242 422 1242 422 1088 144 c 1,76,-1
 1170 144 l 2,77,78
 1232 144 1232 144 1293 143 c 128,-1,79
 1354 142 1354 142 1430 132 c 1,0,1
1084 682 m 1,80,81
 1044 688 1044 688 998 595 c 128,-1,82
 952 502 952 502 952 416 c 0,83,84
 952 334 952 334 996 302 c 1,85,86
 1044 412 1044 412 1064 505 c 128,-1,87
 1084 598 1084 598 1084 682 c 1,80,81
262 482 m 1,88,89
 250 476 250 476 226 424 c 128,-1,90
 202 372 202 372 202 334 c 0,91,92
 202 292 202 292 232 286 c 1,93,94
 260 286 260 286 280 319 c 128,-1,95
 300 352 300 352 300 390 c 0,96,97
 300 444 300 444 262 482 c 1,88,89
EndSplineSet
EndChar

StartChar: tm_sa
Encoding: 3000 3000 82
Width: 1456
GlyphClass: 2
Flags: W
LayerCount: 2
Fore
SplineSet
1424 598 m 0,0,1
 1424 316 1424 316 1315 128 c 128,-1,2
 1206 -60 1206 -60 1068 -60 c 0,3,4
 852 -60 852 -60 852 320 c 0,5,6
 852 362 852 362 854 390 c 0,7,8
 864 526 864 526 864 554 c 1,9,10
 834 526 834 526 776 366 c 0,11,12
 710 182 710 182 710 36 c 1,13,14
 594 54 594 54 566 68 c 0,15,16
 510 92 510 92 498 148 c 1,17,-1
 504 270 l 1,18,19
 504 540 504 540 426 540 c 0,20,21
 364 540 364 540 314 478 c 1,22,23
 354 470 354 470 386 425 c 128,-1,24
 418 380 418 380 418 328 c 0,25,26
 418 254 418 254 361 193 c 128,-1,27
 304 132 304 132 210 132 c 0,28,29
 132 132 132 132 81 176 c 128,-1,30
 30 220 30 220 30 306 c 0,31,32
 30 408 30 408 120 528 c 0,33,34
 218 662 218 662 330 662 c 0,35,36
 570 662 570 662 636 358 c 1,37,38
 684 552 684 552 782 762 c 1,39,40
 796 764 796 764 824 764 c 0,41,42
 838 764 838 764 851 763 c 128,-1,43
 864 762 864 762 902 754 c 1,44,-1
 998 720 l 1,45,46
 1006 704 1006 704 1006 672 c 2,47,-1
 994 530 l 2,48,49
 982 422 982 422 982 358 c 0,50,51
 982 94 982 94 1102 94 c 0,52,53
 1136 94 1136 94 1186 224 c 128,-1,54
 1236 354 1236 354 1236 458 c 0,55,56
 1236 592 1236 592 1222 650 c 0,57,58
 1198 744 1198 744 1128 796 c 1,59,60
 1116 826 1116 826 1169 873 c 128,-1,61
 1222 920 1222 920 1310 920 c 1,62,63
 1424 836 1424 836 1424 598 c 0,0,1
260 420 m 1,64,65
 208 358 208 358 208 292 c 0,66,67
 208 268 208 268 222 252 c 1,68,69
 292 310 292 310 292 364 c 0,70,71
 292 396 292 396 260 420 c 1,64,65
EndSplineSet
EndChar

StartChar: tm_ha
Encoding: 3001 3001 83
Width: 1626
GlyphClass: 2
Flags: W
LayerCount: 2
Fore
SplineSet
1592 754 m 1,0,1
 1554 716 1554 716 1554 590 c 1,2,-1
 1560 450 l 1,3,-1
 1566 312 l 1,4,5
 1566 -138 1566 -138 1154 -364 c 0,6,7
 826 -540 826 -540 420 -540 c 0,8,9
 44 -540 44 -540 -48 -422 c 1,10,11
 -72 -364 -72 -364 -72 -308 c 0,12,13
 -72 -274 -72 -274 -60 -238 c 1,14,15
 76 -338 76 -338 234 -364 c 0,16,17
 312 -376 312 -376 560 -376 c 0,18,19
 750 -376 750 -376 940 -316 c 0,20,21
 1166 -244 1166 -244 1274 -106 c 0,22,23
 1404 64 1404 64 1404 378 c 0,24,25
 1404 520 1404 520 1370 608 c 1,26,27
 1320 546 1320 546 1266 416 c 128,-1,28
 1212 286 1212 286 1212 208 c 0,29,30
 1212 84 1212 84 1258 4 c 1,31,32
 1228 -26 1228 -26 1178 -26 c 0,33,34
 1100 -26 1100 -26 1032 44 c 1,35,36
 1028 82 1028 82 1026 141 c 128,-1,37
 1024 200 1024 200 1024 328 c 2,38,-1
 1024 376 l 1,39,-1
 1024 414 l 1,40,-1
 1024 444 l 1,41,-1
 1024 466 l 2,42,43
 1024 544 1024 544 1016 554 c 1,44,45
 894 444 894 444 894 174 c 0,46,47
 894 108 894 108 912 24 c 1,48,-1
 840 -6 l 1,49,50
 652 -6 652 -6 381 -57 c 128,-1,51
 110 -108 110 -108 94 -180 c 1,52,53
 66 -170 66 -170 30 -114 c 1,54,55
 -2 -56 -2 -56 -2 -26 c 1,56,57
 28 -2 28 -2 318 82 c 1,58,59
 426 160 426 160 504 316 c 0,60,61
 570 446 570 446 570 528 c 0,62,63
 570 604 570 604 474 604 c 0,64,65
 428 604 428 604 324 542 c 1,66,67
 460 488 460 488 460 400 c 0,68,69
 460 304 460 304 380 248 c 0,70,71
 314 200 314 200 222 200 c 0,72,73
 148 200 148 200 92 256 c 1,74,75
 40 314 40 314 40 386 c 0,76,77
 40 488 40 488 152 598 c 0,78,79
 278 724 278 724 448 724 c 0,80,81
 556 724 556 724 625 667 c 128,-1,82
 694 610 694 610 694 500 c 0,83,84
 694 418 694 418 632 288 c 0,85,86
 584 182 584 182 528 116 c 1,87,-1
 698 132 l 1,88,89
 704 202 704 202 734 287 c 128,-1,90
 764 372 764 372 822 476 c 0,91,92
 912 638 912 638 998 730 c 1,93,94
 1018 730 1018 730 1038 730 c 128,-1,95
 1058 730 1058 730 1101 721 c 128,-1,96
 1144 712 1144 712 1158 692 c 1,97,98
 1132 630 1132 630 1132 542 c 1,99,-1
 1136 460 l 1,100,-1
 1140 378 l 1,101,102
 1164 476 1164 476 1242 594 c 128,-1,103
 1320 712 1320 712 1420 808 c 1,104,-1
 1504 796 l 1,105,106
 1558 784 1558 784 1592 754 c 1,0,1
260 478 m 1,107,108
 236 466 236 466 216 421 c 128,-1,109
 196 376 196 376 196 338 c 0,110,111
 196 292 196 292 228 286 c 1,112,113
 304 286 304 286 304 384 c 0,114,115
 304 442 304 442 260 478 c 1,107,108
EndSplineSet
EndChar

StartChar: tm_aakaar
Encoding: 3006 3006 84
Width: 576
GlyphClass: 2
Flags: W
LayerCount: 2
Fore
SplineSet
572 -48 m 1,0,1
 578 -68 578 -68 523 -123 c 128,-1,2
 468 -178 468 -178 440 -178 c 0,3,4
 334 -178 334 -178 334 212 c 0,5,6
 334 470 334 470 358 546 c 1,7,8
 322 510 322 510 262 382 c 0,9,10
 188 222 188 222 188 132 c 0,11,12
 188 86 188 86 204 60 c 1,13,14
 198 20 198 20 98 20 c 0,15,16
 56 20 56 20 28 46 c 0,17,18
 4 72 4 72 0 104 c 1,19,20
 0 182 0 182 138 428 c 0,21,22
 296 710 296 710 450 792 c 1,23,24
 472 786 472 786 504 760 c 0,25,26
 546 730 546 730 546 700 c 1,27,28
 542 692 542 692 540 684 c 0,29,30
 526 642 526 642 512 590 c 128,-1,31
 498 538 498 538 490 487 c 128,-1,32
 482 436 482 436 482 376 c 0,33,34
 482 -8 482 -8 572 -48 c 1,0,1
EndSplineSet
EndChar

StartChar: tm_ikaar
Encoding: 3007 3007 85
Width: 530
GlyphClass: 2
Flags: W
LayerCount: 2
Fore
SplineSet
258 20 m 1,0,-1
 100 20 l 1,1,-1
 100 1022 l 2,2,3
 100 1362 100 1362 -106 1362 c 2,4,-1
 -172 1362 l 2,5,6
 -256 1362 -256 1362 -316 1296 c 128,-1,7
 -376 1230 -376 1230 -376 1136 c 2,8,-1
 -376 1088 l 2,9,10
 -376 1016 -376 1016 -332 974 c 1,11,-1
 -492 974 l 1,12,13
 -510 992 -510 992 -522 1024 c 1,14,-1
 -536 1088 l 1,15,-1
 -536 1136 l 2,16,17
 -536 1280 -536 1280 -438 1378 c 128,-1,18
 -340 1476 -340 1476 -172 1476 c 2,19,-1
 -106 1476 l 2,20,21
 62 1476 62 1476 160 1347 c 128,-1,22
 258 1218 258 1218 258 1022 c 2,23,-1
 258 20 l 1,0,-1
EndSplineSet
EndChar

StartChar: tm_iikaar
Encoding: 3008 3008 86
Width: 0
GlyphClass: 4
Flags: W
LayerCount: 2
Fore
SplineSet
-130 1342 m 2,0,1
 -130 1300 -130 1300 -180 1248 c 1,2,3
 -230 1204 -230 1204 -290 1204 c 2,4,-1
 -380 1204 l 2,5,6
 -456 1204 -456 1204 -508 1258 c 0,7,8
 -556 1312 -556 1312 -556 1390 c 2,9,-1
 -554 1434 l 2,10,11
 -554 1448 -554 1448 -540 1478 c 1,12,13
 -588 1478 -588 1478 -644 1428 c 128,-1,14
 -700 1378 -700 1378 -700 1318 c 2,15,-1
 -700 1270 l 2,16,17
 -700 1226 -700 1226 -680 1178 c 128,-1,18
 -660 1130 -660 1130 -630 1090 c 1,19,-1
 -790 1090 l 1,20,-1
 -812 1132 l 1,21,-1
 -832 1178 l 2,22,23
 -856 1242 -856 1242 -856 1270 c 2,24,-1
 -856 1342 l 2,25,26
 -856 1438 -856 1438 -759 1517 c 128,-1,27
 -662 1596 -662 1596 -546 1596 c 2,28,-1
 -414 1596 l 2,29,30
 -318 1596 -318 1596 -224 1541 c 128,-1,31
 -130 1486 -130 1486 -130 1408 c 2,32,-1
 -130 1342 l 2,0,1
-290 1388 m 2,33,-1
 -290 1430 l 2,34,35
 -290 1456 -290 1456 -300 1466 c 2,36,-1
 -324 1488 l 1,37,-1
 -358 1496 l 1,38,39
 -384 1496 -384 1496 -402 1481 c 128,-1,40
 -420 1466 -420 1466 -428 1430 c 1,41,-1
 -428 1388 l 2,42,43
 -428 1358 -428 1358 -410 1340 c 128,-1,44
 -392 1322 -392 1322 -358 1318 c 0,45,46
 -334 1318 -334 1318 -310 1336 c 1,47,48
 -290 1356 -290 1356 -290 1388 c 2,33,-1
EndSplineSet
EndChar

StartChar: tm_ukaar
Encoding: 3009 3009 87
Width: 576
GlyphClass: 4
Flags: W
LayerCount: 2
Fore
SplineSet
306 556 m 1,0,1
 352 580 352 580 352 644 c 0,2,3
 352 736 352 736 282 748 c 1,4,5
 260 716 260 716 260 650 c 0,6,7
 260 576 260 576 306 556 c 1,0,1
-158 734 m 1,8,-1
 -162 738 l 1,9,10
 -188 770 -188 770 -200 786 c 0,11,12
 -238 838 -238 838 -238 860 c 0,13,14
 -238 870 -238 870 -228 870 c 2,15,-1
 232 870 l 2,16,17
 340 870 340 870 432 821 c 128,-1,18
 524 772 524 772 524 686 c 0,19,20
 524 592 524 592 444 528 c 128,-1,21
 364 464 364 464 260 464 c 0,22,23
 76 464 76 464 76 644 c 0,24,25
 76 706 76 706 98 748 c 1,26,-1
 -24 748 l 1,27,-1
 -158 734 l 1,8,-1
EndSplineSet
EndChar

StartChar: tm_uukaar
Encoding: 3010 3010 88
Width: 770
GlyphClass: 4
Flags: W
LayerCount: 2
Fore
SplineSet
-266 864 m 1,0,-1
 100 864 l 1,1,2
 148 946 148 946 255 1009 c 128,-1,3
 362 1072 362 1072 476 1072 c 256,4,5
 590 1072 590 1072 662 958 c 0,6,7
 726 858 726 858 726 730 c 0,8,9
 726 646 726 646 688 646 c 0,10,11
 638 646 638 646 589 683 c 128,-1,12
 540 720 540 720 534 768 c 1,13,14
 572 758 572 758 572 826 c 0,15,16
 572 952 572 952 496 952 c 0,17,18
 444 952 444 952 382 912 c 0,19,20
 324 878 324 878 300 838 c 1,21,22
 360 838 360 838 414 802 c 0,23,24
 476 758 476 758 476 692 c 0,25,26
 476 590 476 590 378 522 c 0,27,28
 300 468 300 468 226 468 c 0,29,30
 158 468 158 468 102 524 c 0,31,32
 50 580 50 580 50 650 c 0,33,34
 50 732 50 732 54 742 c 1,35,-1
 -266 742 l 1,36,37
 -262 756 -262 756 -260 772 c 0,38,39
 -260 802 -260 802 -261 822 c 128,-1,40
 -262 842 -262 842 -266 864 c 1,0,-1
254 564 m 1,41,42
 302 594 302 594 302 662 c 0,43,44
 302 740 302 740 238 760 c 1,45,46
 212 730 212 730 212 664 c 0,47,48
 212 582 212 582 254 564 c 1,41,42
EndSplineSet
EndChar

StartChar: tm_ekaar
Encoding: 3014 3014 89
Width: 1108
GlyphClass: 2
Flags: W
LayerCount: 2
Fore
SplineSet
1076 494 m 0,0,1
 1076 340 1076 340 1018 178 c 0,2,3
 968 30 968 30 930 18 c 0,4,5
 916 16 916 16 905 16 c 128,-1,6
 894 16 894 16 890 16 c 0,7,8
 784 16 784 16 738 92 c 1,9,10
 808 138 808 138 853 269 c 128,-1,11
 898 400 898 400 898 536 c 0,12,13
 898 654 898 654 832 748 c 0,14,15
 760 848 760 848 652 848 c 0,16,17
 496 848 496 848 378 712 c 0,18,19
 282 598 282 598 242 426 c 1,20,-1
 300 432 l 1,21,22
 402 432 402 432 472 368 c 128,-1,23
 542 304 542 304 542 214 c 0,24,25
 542 108 542 108 478 42 c 0,26,27
 418 -24 418 -24 304 -24 c 0,28,29
 182 -24 182 -24 104 56 c 1,30,31
 30 140 30 140 30 284 c 0,32,33
 30 600 30 600 264 790 c 0,34,35
 442 932 442 932 652 932 c 256,36,37
 862 932 862 932 978 792 c 0,38,39
 1076 670 1076 670 1076 494 c 0,0,1
334 72 m 1,40,41
 374 106 374 106 374 166 c 0,42,43
 374 236 374 236 327 297 c 128,-1,44
 280 358 280 358 226 352 c 1,45,-1
 222 308 l 1,46,47
 222 110 222 110 334 72 c 1,40,41
EndSplineSet
EndChar

StartChar: tm_eekaar
Encoding: 3015 3015 90
Width: 1148
GlyphClass: 2
Flags: W
LayerCount: 2
Fore
SplineSet
1116 16 m 0,0,1
 1116 -124 1116 -124 964 -222 c 0,2,3
 894 -266 894 -266 816 -288 c 128,-1,4
 738 -310 738 -310 644 -310 c 0,5,6
 374 -310 374 -310 206 -136 c 0,7,8
 30 46 30 46 30 354 c 0,9,10
 30 628 30 628 210 833 c 128,-1,11
 390 1038 390 1038 652 1038 c 0,12,13
 788 1038 788 1038 876 974 c 0,14,15
 978 898 978 898 978 754 c 0,16,17
 978 558 978 558 802 426 c 0,18,19
 638 308 638 308 420 308 c 0,20,21
 320 308 320 308 226 338 c 1,22,23
 214 290 214 290 214 210 c 0,24,25
 214 164 214 164 217 144 c 128,-1,26
 220 124 220 124 230 100 c 1,27,28
 536 250 536 250 736 250 c 0,29,30
 888 250 888 250 990 200 c 0,31,32
 1116 136 1116 136 1116 16 c 0,0,1
844 804 m 0,33,34
 844 922 844 922 718 922 c 0,35,36
 558 922 558 922 405 778 c 128,-1,37
 252 634 252 634 222 458 c 1,38,39
 282 440 282 440 348 440 c 0,40,41
 566 440 566 440 728 588 c 0,42,43
 844 694 844 694 844 804 c 0,33,34
970 24 m 0,44,45
 970 64 970 64 929 100 c 128,-1,46
 888 136 888 136 848 136 c 0,47,48
 686 136 686 136 524 74 c 0,49,50
 372 20 372 20 294 -56 c 1,51,52
 382 -182 382 -182 578 -182 c 0,53,54
 716 -182 716 -182 836 -128 c 0,55,56
 970 -68 970 -68 970 24 c 0,44,45
EndSplineSet
EndChar

StartChar: tm_aikaar
Encoding: 3016 3016 91
Width: 1304
GlyphClass: 2
Flags: W
LayerCount: 2
Fore
SplineSet
1274 368 m 0,0,1
 1274 274 1274 274 1192 132 c 128,-1,2
 1110 -10 1110 -10 998 -104 c 1,3,4
 928 -86 928 -86 894 -60 c 0,5,6
 846 -24 846 -24 822 46 c 1,7,8
 912 46 912 46 1022 200 c 128,-1,9
 1132 354 1132 354 1132 484 c 0,10,11
 1132 526 1132 526 1100 558 c 128,-1,12
 1068 590 1068 590 1024 590 c 0,13,14
 924 590 924 590 860 526 c 1,15,16
 890 478 890 478 898 449 c 128,-1,17
 906 420 906 420 906 352 c 0,18,19
 906 216 906 216 809 104 c 128,-1,20
 712 -8 712 -8 594 -8 c 0,21,22
 470 -8 470 -8 422 126 c 1,23,-1
 316 40 l 2,24,25
 264 0 264 0 202 0 c 0,26,27
 138 0 138 0 80 60 c 0,28,29
 26 120 26 120 26 188 c 0,30,31
 26 338 26 338 186 512 c 0,32,33
 362 706 362 706 560 706 c 0,34,35
 660 706 660 706 736 648 c 1,36,37
 838 714 838 714 998 714 c 0,38,39
 1136 714 1136 714 1214 592 c 0,40,41
 1274 496 1274 496 1274 368 c 0,0,1
656 584 m 1,42,43
 622 606 622 606 580 606 c 0,44,45
 466 606 466 606 344 460 c 1,46,-1
 404 424 l 2,47,48
 446 396 446 396 464 368 c 1,49,-1
 568 498 l 2,50,51
 622 564 622 564 656 584 c 1,42,43
748 456 m 1,52,53
 704 430 704 430 637 323 c 128,-1,54
 570 216 570 216 570 152 c 0,55,56
 570 130 570 130 580 118 c 1,57,58
 638 146 638 146 696 245 c 128,-1,59
 754 344 754 344 754 416 c 1,60,-1
 748 456 l 1,52,53
318 364 m 2,61,-1
 300 372 l 1,62,63
 272 372 272 372 242 284 c 0,64,65
 234 252 234 252 230 232 c 128,-1,66
 226 212 226 212 226 194 c 0,67,68
 226 180 226 180 230 168 c 1,69,70
 266 176 266 176 306 228 c 0,71,72
 342 280 342 280 342 322 c 0,73,74
 342 352 342 352 318 364 c 2,61,-1
EndSplineSet
EndChar

StartChar: tm_halant
Encoding: 3021 3021 95
Width: 0
GlyphClass: 4
Flags: W
LayerCount: 2
Fore
SplineSet
-496 1388 m 0,0,1
 -496 1326 -496 1326 -536 1285 c 128,-1,2
 -576 1244 -576 1244 -646 1244 c 0,3,4
 -712 1244 -712 1244 -750 1284 c 0,5,6
 -784 1324 -784 1324 -784 1394 c 0,7,8
 -784 1460 -784 1460 -742 1496 c 128,-1,9
 -700 1532 -700 1532 -640 1532 c 0,10,11
 -574 1532 -574 1532 -532 1484 c 0,12,13
 -496 1442 -496 1442 -496 1388 c 0,0,1
EndSplineSet
EndChar

StartChar: tm_two
Encoding: 3048 3048 98
Width: 1425
GlyphClass: 2
Flags: W
LayerCount: 2
Fore
SplineSet
1244 70 m 1,0,-1
 1226 0 l 1,1,-1
 586 0 l 2,2,3
 429 0 429 0 429 106 c 0,4,5
 429 153 429 153 478 181.5 c 128,-1,6
 527 210 527 210 586 210 c 2,7,-1
 779 210 l 2,8,9
 867 210 867 210 928 271.5 c 128,-1,10
 989 333 989 333 989 420 c 0,11,12
 989 500 989 500 945 560.5 c 128,-1,13
 901 621 901 621 831 621 c 0,14,15
 793 621 793 621 744 595 c 1,16,17
 814 555 814 555 814 437 c 0,18,19
 814 382 814 382 772.5 344.5 c 128,-1,20
 731 307 731 307 675 307 c 0,21,22
 618 307 618 307 580 351 c 128,-1,23
 542 395 542 395 542 455 c 0,24,25
 542 565 542 565 646.5 632.5 c 128,-1,26
 751 700 751 700 884 700 c 0,27,28
 987 700 987 700 1058 629 c 128,-1,29
 1129 558 1129 558 1129 455 c 0,30,31
 1129 321 1129 321 1025.5 230.5 c 128,-1,32
 922 140 922 140 779 140 c 2,33,-1
 595 140 l 2,34,35
 551 140 551 140 551 106 c 0,36,37
 551 70 551 70 604 70 c 2,38,-1
 1244 70 l 1,0,-1
675 560 m 1,39,40
 621 516 621 516 621 473 c 0,41,42
 621 386 621 386 666 386 c 0,43,44
 709 386 709 386 709 473 c 0,45,46
 709 518 709 518 675 560 c 1,39,40
EndSplineSet
EndChar

StartChar: tm_three
Encoding: 3049 3049 99
Width: 1424
GlyphClass: 2
Flags: W
LayerCount: 2
Fore
SplineSet
1270 70 m 1,0,-1
 1252 0 l 1,1,-1
 640 0 l 1,2,-1
 657 70 l 1,3,-1
 780 70 l 2,4,5
 874 70 874 70 941 130.5 c 128,-1,6
 1008 191 1008 191 1008 280 c 0,7,8
 1008 317 1008 317 982.5 342.5 c 128,-1,9
 957 368 957 368 920 368 c 0,10,11
 890 368 890 368 865 341 c 128,-1,12
 840 314 840 314 833 280 c 2,13,-1
 815 193 l 1,14,-1
 675 193 l 1,15,-1
 764 630 l 1,16,-1
 571 630 l 1,17,-1
 444 0 l 1,18,-1
 378 0 l 1,19,-1
 517 700 l 1,20,-1
 1095 700 l 1,21,-1
 1077 630 l 1,22,-1
 902 630 l 1,23,-1
 859 403 l 1,24,25
 918 455 918 455 990 455 c 0,26,27
 1057 455 1057 455 1102.5 403.5 c 128,-1,28
 1148 352 1148 352 1148 280 c 0,29,30
 1148 209 1148 209 1090 151 c 128,-1,31
 1032 93 1032 93 947 70 c 1,32,-1
 1270 70 l 1,0,-1
EndSplineSet
EndChar

StartChar: tm_four
Encoding: 3050 3050 100
Width: 1427
GlyphClass: 2
Flags: W
LayerCount: 2
Fore
SplineSet
915 316 m 1,0,-1
 644 316 l 2,1,2
 601 316 601 316 570.5 291 c 128,-1,3
 540 266 540 266 540 228 c 0,4,5
 540 158 540 158 609.5 114 c 128,-1,6
 679 70 679 70 766 70 c 0,7,8
 811 70 811 70 844 99.5 c 128,-1,9
 877 129 877 129 887 175 c 2,10,-1
 915 316 l 1,0,-1
979 630 m 1,11,-1
 784 630 l 1,12,-1
 735 386 l 1,13,-1
 930 386 l 1,14,-1
 979 630 l 1,11,-1
1042 245 m 2,15,16
 1017 125 1017 125 940 62.5 c 128,-1,17
 863 0 863 0 766 0 c 0,18,19
 651 0 651 0 559.5 64 c 128,-1,20
 468 128 468 128 468 228 c 0,21,22
 468 294 468 294 520.5 340 c 128,-1,23
 573 386 573 386 644 386 c 2,24,-1
 669 386 l 1,25,-1
 731 700 l 1,26,-1
 1344 700 l 1,27,-1
 1329 630 l 1,28,-1
 1118 630 l 1,29,-1
 1068 386 l 1,30,-1
 1232 386 l 1,31,-1
 1248 464 l 1,32,-1
 1309 464 l 1,33,-1
 1279 316 l 1,34,-1
 1055 316 l 1,35,-1
 1042 245 l 2,15,16
EndSplineSet
EndChar

StartChar: tm_five
Encoding: 3051 3051 101
Width: 1424
GlyphClass: 2
Flags: W
LayerCount: 2
Fore
SplineSet
1412 517 m 1,0,-1
 1359 526 l 1,1,2
 1369 563 1369 563 1369 598 c 0,3,4
 1369 723 1369 723 1253.5 825.5 c 128,-1,5
 1138 928 1138 928 965 928 c 0,6,7
 728 928 728 928 575.5 716 c 128,-1,8
 423 504 423 504 423 228 c 0,9,10
 423 -43 423 -43 515 -179.5 c 128,-1,11
 607 -316 607 -316 790 -316 c 0,12,13
 979 -316 979 -316 1103.5 -163.5 c 128,-1,14
 1228 -11 1228 -11 1228 193 c 0,15,16
 1228 257 1228 257 1200 304.5 c 128,-1,17
 1172 352 1172 352 1126 352 c 0,18,19
 1099 352 1099 352 1072.5 336.5 c 128,-1,20
 1046 321 1046 321 1039 298 c 2,21,-1
 980 0 l 1,22,-1
 840 0 l 1,23,-1
 965 630 l 1,24,-1
 759 630 l 1,25,-1
 634 0 l 1,26,-1
 566 0 l 1,27,-1
 706 700 l 1,28,-1
 1237 700 l 1,29,-1
 1219 630 l 1,30,-1
 1105 630 l 1,31,-1
 1057 386 l 1,32,33
 1101 437 1101 437 1171 437 c 0,34,35
 1261 437 1261 437 1314.5 368.5 c 128,-1,36
 1368 300 1368 300 1368 193 c 0,37,38
 1368 -47 1368 -47 1202.5 -216 c 128,-1,39
 1037 -385 1037 -385 799 -385 c 0,40,41
 589 -385 589 -385 471.5 -223 c 128,-1,42
 354 -61 354 -61 354 193 c 0,43,44
 354 513 354 513 519 764 c 128,-1,45
 684 1015 684 1015 948 1015 c 0,46,47
 1152 1015 1152 1015 1288.5 889.5 c 128,-1,48
 1425 764 1425 764 1425 613 c 0,49,50
 1425 566 1425 566 1412 517 c 1,0,-1
EndSplineSet
EndChar

StartChar: tm_six
Encoding: 3052 3052 102
Width: 1424
GlyphClass: 2
Flags: W
LayerCount: 2
Fore
SplineSet
784 316 m 1,0,-1
 513 316 l 2,1,2
 469 316 469 316 438 291 c 128,-1,3
 407 266 407 266 407 228 c 0,4,5
 407 158 407 158 477 114 c 128,-1,6
 547 70 547 70 635 70 c 0,7,8
 680 70 680 70 713 99.5 c 128,-1,9
 746 129 746 129 756 175 c 2,10,-1
 784 316 l 1,0,-1
846 630 m 1,11,-1
 653 630 l 1,12,-1
 603 386 l 1,13,-1
 798 386 l 1,14,-1
 846 630 l 1,11,-1
910 245 m 2,15,16
 884 125 884 125 808 62.5 c 128,-1,17
 732 0 732 0 635 0 c 0,18,19
 518 0 518 0 428 64 c 128,-1,20
 338 128 338 128 338 228 c 0,21,22
 338 294 338 294 389.5 340 c 128,-1,23
 441 386 441 386 513 386 c 2,24,-1
 537 386 l 1,25,-1
 600 700 l 1,26,-1
 1229 700 l 1,27,-1
 1213 630 l 1,28,-1
 988 630 l 1,29,-1
 938 386 l 1,30,-1
 1422 386 l 1,31,-1
 1410 316 l 1,32,-1
 1353 316 l 1,33,-1
 1291 0 l 1,34,-1
 1151 0 l 1,35,-1
 1213 316 l 1,36,-1
 1116 316 l 1,37,-1
 1055 0 l 1,38,-1
 967 0 l 1,39,-1
 1028 316 l 1,40,-1
 924 316 l 1,41,-1
 910 245 l 2,15,16
EndSplineSet
EndChar

StartChar: tm_seven
Encoding: 3053 3053 103
Width: 1425
GlyphClass: 2
Flags: W
LayerCount: 2
Fore
SplineSet
643 88 m 1,0,1
 706 88 706 88 753 128 c 128,-1,2
 800 168 800 168 800 228 c 0,3,4
 800 269 800 269 781 301 c 128,-1,5
 762 333 762 333 729 333 c 0,6,7
 684 333 684 333 654.5 296.5 c 128,-1,8
 625 260 625 260 625 210 c 0,9,10
 625 135 625 135 643 88 c 1,0,1
1042 0 m 1,11,-1
 1167 630 l 1,12,-1
 852 630 l 2,13,14
 704 630 704 630 594.5 540.5 c 128,-1,15
 485 451 485 451 485 316 c 0,16,17
 485 247 485 247 507 194.5 c 128,-1,18
 529 142 529 142 572 106 c 1,19,20
 555 135 555 135 555 228 c 256,21,22
 555 321 555 321 614.5 388 c 128,-1,23
 674 455 674 455 765 455 c 0,24,25
 837 455 837 455 884 398 c 128,-1,26
 931 341 931 341 931 263 c 0,27,28
 931 155 931 155 863 77.5 c 128,-1,29
 795 0 795 0 695 0 c 0,30,31
 576 0 576 0 495.5 94 c 128,-1,32
 415 188 415 188 415 316 c 0,33,34
 415 481 415 481 545.5 590.5 c 128,-1,35
 676 700 676 700 852 700 c 2,36,-1
 1430 700 l 1,37,-1
 1412 630 l 1,38,-1
 1307 630 l 1,39,-1
 1181 0 l 1,40,-1
 1042 0 l 1,11,-1
EndSplineSet
EndChar

StartChar: tm_eight
Encoding: 3054 3054 104
Width: 1427
GlyphClass: 2
Flags: W
LayerCount: 2
Fore
SplineSet
849 629 m 1,0,1
 745 611 745 611 670 548.5 c 128,-1,2
 595 486 595 486 595 402 c 0,3,4
 595 338 595 338 638.5 291 c 128,-1,5
 682 244 682 244 744 244 c 0,6,7
 817 244 817 244 864 307.5 c 128,-1,8
 911 371 911 371 911 454 c 0,9,10
 911 580 911 580 849 629 c 1,0,1
1024 140 m 1,11,-1
 411 140 l 2,12,13
 381 140 381 140 357 125 c 128,-1,14
 333 110 333 110 333 87 c 0,15,16
 333 43 333 43 412 -13.5 c 128,-1,17
 491 -70 491 -70 639 -70 c 0,18,19
 743 -70 743 -70 839.5 -18 c 128,-1,20
 936 34 936 34 1024 140 c 1,11,-1
1414 -245 m 1,21,-1
 1269 -245 l 1,22,-1
 1348 140 l 1,23,-1
 1164 140 l 1,24,25
 1051 4 1051 4 915 -63.5 c 128,-1,26
 779 -131 779 -131 621 -131 c 0,27,28
 421 -131 421 -131 311.5 -52.5 c 128,-1,29
 202 26 202 26 202 123 c 0,30,31
 202 160 202 160 233 184.5 c 128,-1,32
 264 209 264 209 307 209 c 2,33,-1
 666 209 l 1,34,35
 604 231 604 231 565 284.5 c 128,-1,36
 526 338 526 338 526 402 c 0,37,38
 526 534 526 534 652 617 c 128,-1,39
 778 700 778 700 937 700 c 0,40,41
 1069 700 1069 700 1169 620.5 c 128,-1,42
 1269 541 1269 541 1269 420 c 0,43,44
 1269 306 1269 306 1213 209 c 1,45,-1
 1364 209 l 1,46,-1
 1463 700 l 1,47,-1
 1603 700 l 1,48,-1
 1414 -245 l 1,21,-1
989 620 m 1,49,50
 1042 530 1042 530 1042 411 c 0,51,52
 1042 267 1042 267 919 209 c 1,53,-1
 1077 209 l 1,54,55
 1146 308 1146 308 1146 402 c 0,56,57
 1146 486 1146 486 1103 553 c 128,-1,58
 1060 620 1060 620 989 620 c 1,49,50
EndSplineSet
EndChar

StartChar: tm_nine
Encoding: 3055 3055 105
Width: 1427
GlyphClass: 2
Flags: W
LayerCount: 2
Fore
SplineSet
692 316 m 1,0,-1
 422 316 l 2,1,2
 379 316 379 316 348 291 c 128,-1,3
 317 266 317 266 317 228 c 0,4,5
 317 158 317 158 387 114 c 128,-1,6
 457 70 457 70 544 70 c 0,7,8
 589 70 589 70 622 99.5 c 128,-1,9
 655 129 655 129 665 175 c 2,10,-1
 692 316 l 1,0,-1
756 630 m 1,11,-1
 562 630 l 1,12,-1
 513 386 l 1,13,-1
 707 386 l 1,14,-1
 756 630 l 1,11,-1
1157 175 m 0,15,16
 1157 259 1157 259 1052 298 c 1,17,18
 982 240 982 240 982 158 c 0,19,20
 982 121 982 121 1007.5 95.5 c 128,-1,21
 1033 70 1033 70 1068 70 c 0,22,23
 1107 70 1107 70 1132 101.5 c 128,-1,24
 1157 133 1157 133 1157 175 c 0,15,16
1297 0 m 1,25,26
 1375 93 1375 93 1375 193 c 0,27,28
 1375 263 1375 263 1332.5 315.5 c 128,-1,29
 1290 368 1290 368 1226 368 c 0,30,31
 1163 368 1163 368 1113 342 c 1,32,33
 1167 322 1167 322 1201 276.5 c 128,-1,34
 1235 231 1235 231 1235 175 c 0,35,36
 1235 104 1235 104 1187 52 c 128,-1,37
 1139 0 1139 0 1068 0 c 0,38,39
 1005 0 1005 0 958.5 46.5 c 128,-1,40
 912 93 912 93 912 158 c 0,41,42
 912 257 912 257 982 316 c 1,43,-1
 833 316 l 1,44,-1
 819 245 l 2,45,46
 795 125 795 125 718.5 62.5 c 128,-1,47
 642 0 642 0 544 0 c 0,48,49
 428 0 428 0 337 64 c 128,-1,50
 246 128 246 128 246 228 c 0,51,52
 246 294 246 294 299 340 c 128,-1,53
 352 386 352 386 422 386 c 2,54,-1
 446 386 l 1,55,-1
 508 700 l 1,56,-1
 1122 700 l 1,57,-1
 1104 630 l 1,58,-1
 896 630 l 1,59,-1
 847 386 l 1,60,-1
 947 386 l 2,61,62
 1014 386 1014 386 1052 368 c 1,63,64
 1111 420 1111 420 1226 420 c 0,65,66
 1327 420 1327 420 1399.5 354.5 c 128,-1,67
 1472 289 1472 289 1472 193 c 0,68,69
 1472 109 1472 109 1410 0 c 1,70,-1
 1297 0 l 1,25,26
EndSplineSet
EndChar

StartChar: tm_ten
Encoding: 3056 3056 106
Width: 1260
GlyphClass: 2
Flags: W
LayerCount: 2
Fore
SplineSet
597 149 m 1,0,1
 558 74 558 74 508 37 c 128,-1,2
 458 0 458 0 395 0 c 0,3,4
 302 0 302 0 242 64 c 128,-1,5
 182 128 182 128 182 200 c 0,6,7
 182 224 182 224 186 244 c 2,8,-1
 279 700 l 1,9,-1
 419 700 l 1,10,-1
 325 244 l 2,11,12
 320 223 320 223 320 205 c 0,13,14
 320 155 320 155 346.5 112.5 c 128,-1,15
 373 70 373 70 413 70 c 0,16,17
 472 70 472 70 525 146 c 128,-1,18
 578 222 578 222 606 359 c 2,19,-1
 675 700 l 1,20,-1
 815 700 l 1,21,-1
 746 351 l 2,22,23
 728 262 728 262 728 204 c 0,24,25
 728 150 728 150 760.5 110 c 128,-1,26
 793 70 793 70 841 70 c 0,27,28
 957 70 957 70 1026 204 c 128,-1,29
 1095 338 1095 338 1095 500 c 0,30,31
 1095 691 1095 691 995.5 840 c 128,-1,32
 896 989 896 989 737 989 c 1,33,-1
 755 1042 l 1,34,35
 960 1042 960 1042 1097.5 880.5 c 128,-1,36
 1235 719 1235 719 1235 500 c 0,37,38
 1235 300 1235 300 1118.5 150 c 128,-1,39
 1002 0 1002 0 824 0 c 0,40,41
 739 0 739 0 673.5 40.5 c 128,-1,42
 608 81 608 81 597 149 c 1,0,1
EndSplineSet
EndChar

StartChar: tm_hundred
Encoding: 3057 3057 107
Width: 1166
GlyphClass: 2
Flags: W
LayerCount: 2
Fore
SplineSet
1284 700 m 1,0,-1
 1267 629 l 1,1,-1
 1117 629 l 1,2,-1
 991 0 l 1,3,-1
 851 0 l 1,4,-1
 977 629 l 1,5,-1
 770 629 l 1,6,-1
 644 0 l 1,7,-1
 504 0 l 1,8,-1
 599 472 l 2,9,10
 606 507 606 507 606 534 c 0,11,12
 606 579 606 579 589 613 c 128,-1,13
 572 647 572 647 540 647 c 0,14,15
 483 647 483 647 440 595.5 c 128,-1,16
 397 544 397 544 382 472 c 2,17,-1
 285 0 l 1,18,-1
 146 0 l 1,19,-1
 242 472 l 2,20,21
 263 577 263 577 336.5 647 c 128,-1,22
 410 717 410 717 503 717 c 0,23,24
 567 717 567 717 614 679.5 c 128,-1,25
 661 642 661 642 661 585 c 1,26,-1
 685 700 l 1,27,-1
 1284 700 l 1,0,-1
EndSplineSet
EndChar

StartChar: tm_thousand
Encoding: 3058 3058 108
Width: 1256
GlyphClass: 2
Flags: W
LayerCount: 2
Fore
SplineSet
551 316 m 1,0,-1
 280 316 l 2,1,2
 237 316 237 316 206 291 c 128,-1,3
 175 266 175 266 175 228 c 0,4,5
 175 158 175 158 245.5 114 c 128,-1,6
 316 70 316 70 402 70 c 0,7,8
 447 70 447 70 480 99.5 c 128,-1,9
 513 129 513 129 523 175 c 2,10,-1
 551 316 l 1,0,-1
615 630 m 1,11,-1
 420 630 l 1,12,-1
 371 386 l 1,13,-1
 565 386 l 1,14,-1
 615 630 l 1,11,-1
677 245 m 2,15,16
 653 125 653 125 576 62.5 c 128,-1,17
 499 0 499 0 402 0 c 0,18,19
 285 0 285 0 195 64 c 128,-1,20
 105 128 105 128 105 228 c 0,21,22
 105 294 105 294 156.5 340 c 128,-1,23
 208 386 208 386 280 386 c 2,24,-1
 304 386 l 1,25,-1
 367 700 l 1,26,-1
 997 700 l 1,27,-1
 983 630 l 1,28,-1
 755 630 l 1,29,-1
 705 386 l 1,30,-1
 1120 386 l 1,31,-1
 1105 316 l 1,32,-1
 971 316 l 1,33,-1
 945 175 l 1,34,35
 990 228 990 228 1067 228 c 0,36,37
 1134 228 1134 228 1179.5 176 c 128,-1,38
 1225 124 1225 124 1225 53 c 0,39,40
 1225 -78 1225 -78 1108 -161 c 128,-1,41
 991 -244 991 -244 840 -244 c 0,42,43
 740 -244 740 -244 542 -205 c 0,44,45
 346 -167 346 -167 244 -167 c 0,46,47
 181 -167 181 -167 134 -206.5 c 128,-1,48
 87 -246 87 -246 87 -307 c 0,49,50
 87 -384 87 -384 158 -411 c 1,51,-1
 149 -445 l 1,52,53
 82 -433 82 -433 36.5 -387 c 128,-1,54
 -9 -341 -9 -341 -9 -280 c 0,55,56
 -9 -205 -9 -205 70.5 -159.5 c 128,-1,57
 150 -114 150 -114 244 -114 c 0,58,59
 346 -114 346 -114 542 -153 c 0,60,61
 740 -192 740 -192 840 -192 c 0,62,63
 938 -192 938 -192 1011.5 -135 c 128,-1,64
 1085 -78 1085 -78 1085 9 c 0,65,66
 1085 61 1085 61 1061 100.5 c 128,-1,67
 1037 140 1037 140 997 140 c 256,68,69
 957 140 957 140 927 88 c 1,70,-1
 910 0 l 1,71,-1
 769 0 l 1,72,-1
 831 316 l 1,73,-1
 691 316 l 1,74,-1
 677 245 l 2,15,16
EndSplineSet
EndChar

StartChar: zerowidthnonjoiner
Encoding: 8204 8204 109
Width: 0
GlyphClass: 2
Flags: W
LayerCount: 2
Fore
SplineSet
315 1225 m 1,0,-1
 -34 -516 l 1,1,-1
 -103 -516 l 1,2,-1
 244 1225 l 1,3,-1
 315 1225 l 1,0,-1
EndSplineSet
EndChar

StartChar: zerowidthjoiner
Encoding: 8205 8205 110
Width: 0
GlyphClass: 2
Flags: W
LayerCount: 2
Fore
SplineSet
415 997 m 1,0,-1
 363 953 l 1,1,-1
 270 1073 l 1,2,-1
 -24 -441 l 1,3,-1
 -87 -441 l 1,4,-1
 206 1073 l 1,5,-1
 65 953 l 1,6,-1
 32 997 l 1,7,-1
 210 1145 l 1,8,-1
 89 1292 l 1,9,-1
 140 1334 l 1,10,-1
 260 1185 l 1,11,-1
 437 1334 l 1,12,-1
 472 1292 l 1,13,-1
 294 1145 l 1,14,-1
 415 997 l 1,0,-1
EndSplineSet
EndChar

StartChar: u2013
Encoding: 8211 8211 111
Width: 722
GlyphClass: 2
Flags: W
LayerCount: 2
Fore
SplineSet
733 319 m 1,0,-1
 -12 319 l 1,1,-1
 -12 370 l 1,2,-1
 733 370 l 1,3,-1
 733 319 l 1,0,-1
EndSplineSet
EndChar

StartChar: u2014
Encoding: 8212 8212 112
Width: 1284
GlyphClass: 2
Flags: W
LayerCount: 2
Fore
SplineSet
1296 318 m 1,0,-1
 -13 319 l 1,1,-1
 -13 371 l 1,2,-1
 1296 370 l 1,3,-1
 1296 318 l 1,0,-1
EndSplineSet
EndChar

StartChar: u2018
Encoding: 65539 -1 113
Width: 444
GlyphClass: 2
Flags: W
LayerCount: 2
Fore
SplineSet
314 1192 m 1,0,-1
 314 988 l 1,1,-1
 126 988 l 1,2,-1
 126 1148 l 2,3,4
 126 1218 126 1218 132 1260 c 128,-1,5
 138 1302 138 1302 156 1338 c 0,6,7
 198 1408 198 1408 286 1456 c 1,8,-1
 330 1388 l 1,9,10
 278 1370 278 1370 250 1319 c 128,-1,11
 222 1268 222 1268 222 1192 c 1,12,-1
 314 1192 l 1,0,-1
EndSplineSet
EndChar

StartChar: u2019
Encoding: 65540 -1 114
Width: 444
GlyphClass: 2
Flags: W
LayerCount: 2
Fore
SplineSet
122 1242 m 1,0,-1
 122 1446 l 1,1,-1
 310 1446 l 1,2,-1
 310 1286 l 2,3,4
 310 1162 310 1162 280 1096 c 1,5,6
 242 1024 242 1024 148 978 c 1,7,-1
 106 1046 l 1,8,9
 152 1064 152 1064 182 1113 c 128,-1,10
 212 1162 212 1162 212 1242 c 1,11,-1
 122 1242 l 1,0,-1
EndSplineSet
EndChar

StartChar: u201C
Encoding: 65541 -1 115
Width: 666
GlyphClass: 2
Flags: W
LayerCount: 2
Fore
SplineSet
270 1192 m 1,0,-1
 270 988 l 1,1,-1
 82 988 l 1,2,-1
 82 1148 l 2,3,4
 82 1218 82 1218 88 1260 c 128,-1,5
 94 1302 94 1302 112 1338 c 0,6,7
 154 1408 154 1408 242 1456 c 1,8,-1
 286 1388 l 1,9,10
 234 1370 234 1370 206 1319 c 128,-1,11
 178 1268 178 1268 178 1192 c 1,12,-1
 270 1192 l 1,0,-1
572 1192 m 1,13,-1
 572 988 l 1,14,-1
 384 988 l 1,15,-1
 384 1148 l 2,16,17
 384 1286 384 1286 419 1347 c 128,-1,18
 454 1408 454 1408 544 1456 c 1,19,-1
 588 1388 l 1,20,21
 536 1370 536 1370 508 1319 c 128,-1,22
 480 1268 480 1268 480 1192 c 1,23,-1
 572 1192 l 1,13,-1
EndSplineSet
EndChar

StartChar: u201D
Encoding: 65542 -1 116
Width: 666
GlyphClass: 2
Flags: W
LayerCount: 2
Fore
SplineSet
84 1242 m 1,0,-1
 84 1446 l 1,1,-1
 274 1446 l 1,2,-1
 274 1286 l 2,3,4
 274 1162 274 1162 244 1096 c 1,5,6
 206 1024 206 1024 112 978 c 1,7,-1
 70 1046 l 1,8,9
 116 1064 116 1064 146 1113 c 128,-1,10
 176 1162 176 1162 176 1242 c 1,11,-1
 84 1242 l 1,0,-1
388 1242 m 1,12,-1
 388 1446 l 1,13,-1
 576 1446 l 1,14,-1
 576 1286 l 2,15,16
 576 1162 576 1162 546 1096 c 1,17,18
 504 1022 504 1022 416 978 c 1,19,-1
 372 1046 l 1,20,21
 422 1064 422 1064 451 1116 c 128,-1,22
 480 1168 480 1168 480 1242 c 1,23,-1
 388 1242 l 1,12,-1
EndSplineSet
EndChar

StartChar: u2026
Encoding: 8230 8230 117
Width: 1283
GlyphClass: 2
Flags: W
LayerCount: 2
Fore
SplineSet
265 136 m 0,0,1
 298 136 298 136 320.5 114 c 128,-1,2
 343 92 343 92 343 58 c 0,3,4
 343 26 343 26 320.5 3 c 128,-1,5
 298 -20 298 -20 265 -20 c 0,6,7
 233 -20 233 -20 210 3 c 128,-1,8
 187 26 187 26 187 58 c 0,9,10
 187 92 187 92 210 114 c 128,-1,11
 233 136 233 136 265 136 c 0,0,1
638 136 m 256,12,13
 670 136 670 136 693 114 c 128,-1,14
 716 92 716 92 716 58 c 0,15,16
 716 26 716 26 692.5 3 c 128,-1,17
 669 -20 669 -20 638 -20 c 0,18,19
 606 -20 606 -20 583 3 c 128,-1,20
 560 26 560 26 560 58 c 0,21,22
 560 92 560 92 583 114 c 128,-1,23
 606 136 606 136 638 136 c 256,12,13
1010 136 m 0,24,25
 1043 136 1043 136 1066 114 c 128,-1,26
 1089 92 1089 92 1089 58 c 0,27,28
 1089 26 1089 26 1065.5 3 c 128,-1,29
 1042 -20 1042 -20 1010 -20 c 256,30,31
 978 -20 978 -20 955.5 3 c 128,-1,32
 933 26 933 26 933 58 c 0,33,34
 933 92 933 92 955.5 114 c 128,-1,35
 978 136 978 136 1010 136 c 0,24,25
EndSplineSet
EndChar

StartChar: u2212
Encoding: 8722 8722 118
Width: 974
GlyphClass: 2
Flags: W
LayerCount: 2
Fore
SplineSet
133 450 m 1,0,-1
 133 508 l 1,1,-1
 894 508 l 1,2,-1
 894 450 l 1,3,-1
 133 450 l 1,0,-1
EndSplineSet
EndChar

StartChar: u25CC
Encoding: 9676 9676 119
Width: 1167
GlyphClass: 2
Flags: W
LayerCount: 2
Fore
SplineSet
654 665 m 0,0,1
 626 665 626 665 612 679 c 128,-1,2
 598 693 598 693 598 724 c 0,3,4
 598 746 598 746 615 762.5 c 128,-1,5
 632 779 632 779 654 779 c 0,6,7
 683 779 683 779 697.5 765 c 128,-1,8
 712 751 712 751 712 724 c 0,9,10
 712 693 712 693 697.5 679 c 128,-1,11
 683 665 683 665 654 665 c 0,0,1
840 616 m 0,12,13
 811 616 811 616 796.5 630.5 c 128,-1,14
 782 645 782 645 782 674 c 0,15,16
 782 701 782 701 796.5 715 c 128,-1,17
 811 729 811 729 840 729 c 0,18,19
 862 729 862 729 879 713 c 128,-1,20
 896 697 896 697 896 674 c 0,21,22
 896 645 896 645 882 630.5 c 128,-1,23
 868 616 868 616 840 616 c 0,12,13
470 616 m 0,24,25
 442 616 442 616 428 630.5 c 128,-1,26
 414 645 414 645 414 674 c 0,27,28
 414 697 414 697 431 713 c 128,-1,29
 448 729 448 729 470 729 c 0,30,31
 494 729 494 729 510 713 c 128,-1,32
 526 697 526 697 526 674 c 0,33,34
 526 645 526 645 512.5 630.5 c 128,-1,35
 499 616 499 616 470 616 c 0,24,25
973 482 m 0,36,37
 951 482 951 482 933.5 498 c 128,-1,38
 916 514 916 514 916 538 c 0,39,40
 916 567 916 567 930.5 581 c 128,-1,41
 945 595 945 595 973 595 c 256,42,43
 1001 595 1001 595 1014.5 581 c 128,-1,44
 1028 567 1028 567 1028 538 c 0,45,46
 1028 514 1028 514 1012 498 c 128,-1,47
 996 482 996 482 973 482 c 0,36,37
336 482 m 0,48,49
 307 482 307 482 293 495.5 c 128,-1,50
 279 509 279 509 279 538 c 256,51,52
 279 567 279 567 293 581 c 128,-1,53
 307 595 307 595 336 595 c 0,54,55
 364 595 364 595 378 581 c 128,-1,56
 392 567 392 567 392 538 c 0,57,58
 392 514 392 514 375 498 c 128,-1,59
 358 482 358 482 336 482 c 0,48,49
1024 298 m 0,60,61
 994 298 994 298 979.5 311.5 c 128,-1,62
 965 325 965 325 965 354 c 0,63,64
 965 382 965 382 979.5 396 c 128,-1,65
 994 410 994 410 1024 410 c 0,66,67
 1046 410 1046 410 1063 393 c 128,-1,68
 1080 376 1080 376 1080 354 c 0,69,70
 1080 331 1080 331 1063 314.5 c 128,-1,71
 1046 298 1046 298 1024 298 c 0,60,61
287 298 m 0,72,73
 257 298 257 298 243 311.5 c 128,-1,74
 229 325 229 325 229 354 c 0,75,76
 229 382 229 382 243 396 c 128,-1,77
 257 410 257 410 287 410 c 0,78,79
 310 410 310 410 326.5 393 c 128,-1,80
 343 376 343 376 343 354 c 0,81,82
 343 331 343 331 326.5 314.5 c 128,-1,83
 310 298 310 298 287 298 c 0,72,73
973 112 m 256,84,85
 945 112 945 112 930.5 126.5 c 128,-1,86
 916 141 916 141 916 169 c 0,87,88
 916 193 916 193 933.5 209.5 c 128,-1,89
 951 226 951 226 973 226 c 0,90,91
 996 226 996 226 1012 209.5 c 128,-1,92
 1028 193 1028 193 1028 169 c 0,93,94
 1028 141 1028 141 1014.5 126.5 c 128,-1,95
 1001 112 1001 112 973 112 c 256,84,85
336 112 m 0,96,97
 307 112 307 112 293 126.5 c 128,-1,98
 279 141 279 141 279 169 c 0,99,100
 279 198 279 198 293 212 c 128,-1,101
 307 226 307 226 336 226 c 0,102,103
 358 226 358 226 375 209.5 c 128,-1,104
 392 193 392 193 392 169 c 0,105,106
 392 141 392 141 378 126.5 c 128,-1,107
 364 112 364 112 336 112 c 0,96,97
840 -22 m 0,108,109
 811 -22 811 -22 796.5 -8 c 128,-1,110
 782 6 782 6 782 34 c 0,111,112
 782 63 782 63 796.5 78 c 128,-1,113
 811 93 811 93 840 93 c 0,114,115
 863 93 863 93 879.5 75 c 128,-1,116
 896 57 896 57 896 34 c 256,117,118
 896 11 896 11 879 -5.5 c 128,-1,119
 862 -22 862 -22 840 -22 c 0,108,109
470 -22 m 0,120,121
 448 -22 448 -22 431 -5.5 c 128,-1,122
 414 11 414 11 414 34 c 256,123,124
 414 57 414 57 430.5 75 c 128,-1,125
 447 93 447 93 470 93 c 0,126,127
 495 93 495 93 510.5 75 c 128,-1,128
 526 57 526 57 526 34 c 256,129,130
 526 11 526 11 510 -5.5 c 128,-1,131
 494 -22 494 -22 470 -22 c 0,120,121
654 -72 m 0,132,133
 632 -72 632 -72 615 -55 c 128,-1,134
 598 -38 598 -38 598 -16 c 0,135,136
 598 14 598 14 612 28.5 c 128,-1,137
 626 43 626 43 654 43 c 0,138,139
 683 43 683 43 697.5 28.5 c 128,-1,140
 712 14 712 14 712 -16 c 0,141,142
 712 -44 712 -44 697.5 -58 c 128,-1,143
 683 -72 683 -72 654 -72 c 0,132,133
EndSplineSet
EndChar

StartChar: tm_k_ikaar
Encoding: 65543 -1 120
Width: 1012
GlyphClass: 2
Flags: W
LayerCount: 2
Fore
SplineSet
1266 1424 m 1,0,1
 1266 1354 1266 1354 1220 1284 c 0,2,3
 1196 1250 1196 1250 1132 1186 c 1,4,5
 1078 1270 1078 1270 848 1270 c 0,6,7
 680 1270 680 1270 500 1168 c 0,8,9
 306 1058 306 1058 306 928 c 0,10,11
 306 828 306 828 382 828 c 0,12,13
 498 828 498 828 540 810 c 1,14,15
 570 786 570 786 588 638 c 2,16,-1
 606 472 l 1,17,18
 704 498 704 498 770 498 c 0,19,20
 864 498 864 498 923 430 c 128,-1,21
 982 362 982 362 982 260 c 0,22,23
 982 138 982 138 874 6 c 0,24,25
 778 -106 778 -106 674 -150 c 1,26,27
 566 -66 566 -66 578 -24 c 1,28,29
 656 6 656 6 722 94 c 0,30,31
 804 198 804 198 804 306 c 2,32,-1
 804 370 l 1,33,34
 798 402 798 402 766 414 c 1,35,-1
 678 396 l 2,36,37
 634 384 634 384 612 356 c 1,38,39
 612 236 612 236 589 132 c 128,-1,40
 566 28 566 28 529 -49 c 128,-1,41
 492 -126 492 -126 421 -177 c 128,-1,42
 350 -228 350 -228 298 -228 c 0,43,44
 210 -228 210 -228 126 -176 c 0,45,46
 32 -118 32 -118 32 -36 c 0,47,48
 32 106 32 106 176 244 c 0,49,50
 298 360 298 360 474 430 c 1,51,52
 462 502 462 502 432 610 c 1,53,54
 400 602 400 602 358 518 c 0,55,56
 336 474 336 474 325 439 c 128,-1,57
 314 404 314 404 314 364 c 1,58,59
 288 362 288 362 239 390 c 128,-1,60
 190 418 190 418 190 460 c 0,61,62
 190 530 190 530 244 618 c 2,63,-1
 320 732 l 1,64,65
 228 764 228 764 218 772 c 0,66,67
 168 810 168 810 168 902 c 0,68,69
 168 1042 168 1042 298 1173 c 128,-1,70
 428 1304 428 1304 628 1382 c 0,71,72
 852 1470 852 1470 1054 1470 c 0,73,74
 1192 1470 1192 1470 1266 1424 c 1,0,1
470 288 m 1,75,76
 368 234 368 234 283 106 c 128,-1,77
 198 -22 198 -22 198 -108 c 1,78,79
 328 -124 328 -124 414 44 c 0,80,81
 472 154 472 154 472 248 c 0,82,83
 472 276 472 276 470 288 c 1,75,76
EndSplineSet
Ligature2: "'psts' Post Base Substitutions lookup 8 subtable" tm_ka tm_ikaar
EndChar

StartChar: tm_ng_ikaar
Encoding: 65544 -1 121
Width: 1372
GlyphClass: 2
Flags: W
LayerCount: 2
Fore
SplineSet
914 -102 m 2,0,1
 612 -170 612 -170 598 -232 c 1,2,3
 510 -188 510 -188 488 -82 c 1,4,5
 512 -58 512 -58 560 -40 c 2,6,-1
 634 -14 l 1,7,8
 676 24 676 24 695 107 c 128,-1,9
 714 190 714 190 714 324 c 1,10,11
 658 306 658 306 592 240 c 128,-1,12
 526 174 526 174 526 132 c 2,13,-1
 526 32 l 1,14,15
 436 32 436 32 396 56 c 0,16,17
 342 90 342 90 342 198 c 0,18,19
 342 366 342 366 430 606 c 1,20,21
 378 554 378 554 308 408 c 0,22,23
 226 234 226 234 226 118 c 0,24,25
 226 62 226 62 247 21 c 128,-1,26
 268 -20 268 -20 296 -24 c 1,27,28
 292 -54 292 -54 228 -54 c 0,29,30
 162 -54 162 -54 96 -20 c 128,-1,31
 30 14 30 14 30 68 c 0,32,33
 30 224 30 224 191 505 c 128,-1,34
 352 786 352 786 460 786 c 0,35,36
 528 786 528 786 562 776 c 128,-1,37
 596 766 596 766 634 716 c 1,38,39
 582 692 582 692 550 516 c 1,40,-1
 514 286 l 1,41,42
 576 380 576 380 675 462 c 128,-1,43
 774 544 774 544 830 544 c 0,44,45
 848 544 848 544 906 498 c 1,46,47
 906 414 906 414 890 324 c 0,48,49
 860 128 860 128 794 14 c 1,50,51
 1046 98 1046 98 1110 98 c 1,52,53
 1080 294 1080 294 1080 522 c 0,54,55
 1080 570 1080 570 1082 609 c 128,-1,56
 1084 648 1084 648 1090 674 c 1,57,58
 872 674 872 674 872 840 c 0,59,60
 872 912 872 912 933 1010 c 128,-1,61
 994 1108 994 1108 1102 1190 c 0,62,63
 1222 1280 1222 1280 1415 1340 c 128,-1,64
 1608 1400 1608 1400 1762 1400 c 0,65,66
 1884 1400 1884 1400 1990 1350 c 1,67,68
 1952 1222 1952 1222 1844 1120 c 1,69,70
 1784 1204 1784 1204 1602 1204 c 0,71,72
 1388 1204 1388 1204 1212 1112 c 0,73,74
 1014 1010 1014 1010 1014 848 c 0,75,76
 1014 768 1014 768 1096 768 c 0,77,78
 1130 768 1130 768 1152 782 c 1,79,-1
 1204 790 l 1,80,81
 1286 790 1286 790 1332 720 c 1,82,83
 1260 642 1260 642 1260 352 c 0,84,85
 1260 120 1260 120 1278 32 c 1,86,-1
 1282 6 l 1,87,88
 1282 -28 1282 -28 1232 -52 c 1,89,-1
 1158 -48 l 1,90,-1
 914 -102 l 2,0,1
EndSplineSet
Ligature2: "'psts' Post Base Substitutions lookup 8 subtable" tm_nga tm_ikaar
EndChar

StartChar: tm_c_ikaar
Encoding: 65545 -1 122
Width: 992
GlyphClass: 2
Flags: W
LayerCount: 2
Fore
SplineSet
1294 1358 m 1,0,1
 1276 1238 1276 1238 1158 1128 c 1,2,3
 1108 1186 1108 1186 1008 1202 c 0,4,5
 972 1208 972 1208 856 1208 c 0,6,7
 754 1208 754 1208 625 1161 c 128,-1,8
 496 1114 496 1114 416 1037 c 128,-1,9
 336 960 336 960 336 856 c 0,10,11
 336 808 336 808 386 782 c 1,12,13
 412 782 412 782 462 776 c 128,-1,14
 512 770 512 770 574 760 c 1,15,16
 590 716 590 716 610 608 c 0,17,18
 624 520 624 520 628 492 c 128,-1,19
 632 464 632 464 632 428 c 1,20,21
 706 450 706 450 774 462 c 128,-1,22
 842 474 842 474 898 474 c 0,23,24
 934 474 934 474 958 426 c 0,25,26
 976 384 976 384 976 328 c 1,27,-1
 970 272 l 1,28,29
 864 330 864 330 748 330 c 0,30,31
 706 330 706 330 686 328 c 128,-1,32
 666 326 666 326 624 314 c 1,33,34
 624 130 624 130 568 -24 c 1,35,36
 492 -252 492 -252 326 -252 c 0,37,38
 274 -252 274 -252 227 -240 c 128,-1,39
 180 -228 180 -228 130 -200 c 0,40,41
 30 -146 30 -146 30 -70 c 0,42,43
 30 84 30 84 202 226 c 0,44,45
 338 338 338 338 478 378 c 1,46,47
 478 524 478 524 456 568 c 1,48,49
 384 538 384 538 322 318 c 1,50,51
 210 354 210 354 210 418 c 0,52,53
 210 486 210 486 272 580 c 0,54,55
 324 662 324 662 368 690 c 1,56,57
 320 690 320 690 289 699 c 128,-1,58
 258 708 258 708 232 732 c 0,59,60
 190 774 190 774 190 840 c 0,61,62
 190 1000 190 1000 378 1162 c 1,63,64
 594 1342 594 1342 948 1396 c 1,65,-1
 1058 1404 l 1,66,67
 1196 1404 1196 1404 1294 1358 c 1,0,1
478 240 m 1,68,69
 364 186 364 186 278 68 c 0,70,71
 240 14 240 14 221 -38 c 128,-1,72
 202 -90 202 -90 202 -136 c 1,73,74
 274 -136 274 -136 325 -103 c 128,-1,75
 376 -70 376 -70 418 8 c 0,76,77
 478 122 478 122 478 240 c 1,68,69
EndSplineSet
Ligature2: "'psts' Post Base Substitutions lookup 8 subtable" tm_ca tm_ikaar
EndChar

StartChar: tm_j_ikaar
Encoding: 65546 -1 123
Width: 1144
GlyphClass: 2
Flags: W
LayerCount: 2
Fore
SplineSet
1670 1390 m 1,0,-1
 1676 1366 l 1,1,2
 1676 1326 1676 1326 1622 1248 c 0,3,4
 1576 1180 1576 1180 1534 1152 c 1,5,6
 1478 1244 1478 1244 1254 1244 c 0,7,8
 1054 1244 1054 1244 880 1148 c 0,9,10
 698 1044 698 1044 698 910 c 0,11,12
 698 870 698 870 722 846 c 1,13,14
 740 834 740 834 790 822 c 1,15,16
 836 840 836 840 886 840 c 0,17,18
 958 840 958 840 1016 780 c 0,19,20
 1070 720 1070 720 1070 644 c 0,21,22
 1070 492 1070 492 878 356 c 0,23,24
 848 334 848 334 788 300 c 0,25,26
 740 272 740 272 710 256 c 0,27,28
 570 182 570 182 532 156 c 0,29,30
 458 110 458 110 318 10 c 1,31,32
 198 -96 198 -96 198 -194 c 1,33,-1
 202 -224 l 1,34,35
 254 -230 254 -230 358 -130 c 2,36,-1
 566 76 l 2,37,38
 798 302 798 302 948 302 c 0,39,40
 1094 302 1094 302 1094 152 c 0,41,42
 1094 -4 1094 -4 990 -186 c 1,43,-1
 866 -370 l 1,44,45
 662 -370 662 -370 662 -280 c 0,46,47
 662 -262 662 -262 678 -240 c 1,48,49
 768 -240 768 -240 862 -80 c 0,50,51
 950 66 950 66 950 168 c 1,52,-1
 948 190 l 1,53,54
 886 180 886 180 798 98 c 0,55,56
 746 52 746 52 629 -72 c 128,-1,57
 512 -196 512 -196 458 -244 c 0,58,59
 366 -320 366 -320 310 -320 c 0,60,61
 182 -320 182 -320 113 -262 c 128,-1,62
 44 -204 44 -204 44 -116 c 0,63,64
 44 60 44 60 352 230 c 1,65,-1
 556 336 l 2,66,67
 608 364 608 364 667 403 c 128,-1,68
 726 442 726 442 790 490 c 0,69,70
 938 602 938 602 938 686 c 1,71,-1
 932 718 l 1,72,73
 812 702 812 702 714 594 c 0,74,75
 628 498 628 498 616 398 c 1,76,77
 548 398 548 398 506 414 c 128,-1,78
 464 430 464 430 444 460 c 1,79,80
 482 546 482 546 482 600 c 0,81,82
 482 628 482 628 474 652 c 1,83,-1
 386 600 l 2,84,85
 332 564 332 564 314 528 c 1,86,87
 356 516 356 516 387 485 c 128,-1,88
 418 454 418 454 420 426 c 0,89,90
 420 362 420 362 351 294 c 128,-1,91
 282 226 282 226 206 226 c 0,92,93
 150 226 150 226 108 254 c 0,94,95
 52 292 52 292 52 364 c 0,96,97
 52 504 52 504 185 637 c 128,-1,98
 318 770 318 770 452 770 c 0,99,100
 524 770 524 770 590 678 c 1,101,-1
 658 742 l 1,102,103
 596 772 596 772 576 804 c 128,-1,104
 556 836 556 836 556 898 c 0,105,106
 556 980 556 980 627 1079 c 128,-1,107
 698 1178 698 1178 815 1256 c 128,-1,108
 932 1334 932 1334 1106 1386 c 0,109,110
 1184 1408 1184 1408 1261 1420 c 128,-1,111
 1338 1432 1338 1432 1408 1432 c 0,112,113
 1544 1432 1544 1432 1670 1390 c 1,0,-1
268 476 m 1,114,115
 250 468 250 468 230 427 c 128,-1,116
 210 386 210 386 210 358 c 0,117,118
 210 340 210 340 218 330 c 1,119,120
 240 336 240 336 264 368 c 0,121,122
 274 382 274 382 280 398 c 128,-1,123
 286 414 286 414 286 432 c 0,124,125
 286 458 286 458 268 476 c 1,114,115
EndSplineSet
Ligature2: "'psts' Post Base Substitutions lookup 8 subtable" tm_ja tm_ikaar
EndChar

StartChar: tm_ny_ikaar
Encoding: 65547 -1 124
Width: 1596
GlyphClass: 2
Flags: W
LayerCount: 2
Fore
SplineSet
722 76 m 1,0,1
 756 100 756 100 756 156 c 0,2,3
 756 224 756 224 714 284 c 0,4,5
 686 324 686 324 652 324 c 0,6,7
 642 324 642 324 626 318 c 1,8,9
 620 306 620 306 620 276 c 0,10,11
 620 212 620 212 647 144 c 128,-1,12
 674 76 674 76 722 76 c 1,0,1
1164 824 m 1,13,-1
 1298 756 l 1,14,15
 1254 742 1254 742 1214 558 c 0,16,17
 1198 488 1198 488 1190 412 c 128,-1,18
 1182 336 1182 336 1182 284 c 1,19,-1
 1298 444 l 1,20,21
 1344 498 1344 498 1382 523 c 128,-1,22
 1420 548 1420 548 1456 548 c 0,23,24
 1494 548 1494 548 1566 506 c 1,25,-1
 1556 366 l 1,26,-1
 1548 226 l 1,27,28
 1548 -16 1548 -16 1327 -187 c 128,-1,29
 1106 -358 1106 -358 822 -358 c 0,30,31
 482 -358 482 -358 256 -183 c 128,-1,32
 30 -8 30 -8 30 244 c 0,33,34
 30 420 30 420 144 564 c 0,35,36
 246 694 246 694 348 694 c 0,37,38
 388 694 388 694 441 657 c 128,-1,39
 494 620 494 620 494 586 c 1,40,41
 372 566 372 566 299 446 c 128,-1,42
 226 326 226 326 226 176 c 0,43,44
 226 -22 226 -22 390 -136 c 0,45,46
 536 -236 536 -236 756 -236 c 0,47,48
 1104 -236 1104 -236 1266 -54 c 0,49,50
 1294 -22 1294 -22 1314 19 c 128,-1,51
 1334 60 1334 60 1348 114 c 0,52,53
 1356 148 1356 148 1362 180 c 0,54,55
 1378 268 1378 268 1378 344 c 1,56,-1
 1282 256 l 1,57,58
 1210 178 1210 178 1210 114 c 0,59,60
 1210 90 1210 90 1220 68 c 2,61,-1
 1240 22 l 1,62,-1
 1142 16 l 1,63,64
 1066 16 1066 16 1034 52 c 128,-1,65
 1002 88 1002 88 1002 184 c 0,66,67
 1002 524 1002 524 1086 702 c 1,68,-1
 962 678 l 1,69,70
 854 650 854 650 780 598 c 0,71,72
 680 528 680 528 644 406 c 1,73,74
 660 410 660 410 674 412 c 128,-1,75
 688 414 688 414 704 416 c 0,76,77
 784 416 784 416 849 362 c 128,-1,78
 914 308 914 308 914 230 c 0,79,80
 914 116 914 116 845 48 c 128,-1,81
 776 -20 776 -20 668 -20 c 256,82,83
 560 -20 560 -20 489 53 c 128,-1,84
 418 126 418 126 418 240 c 0,85,86
 418 530 418 530 692 694 c 0,87,88
 752 728 752 728 878 772 c 0,89,90
 920 786 920 786 994 808 c 1,91,92
 960 824 960 824 960 904 c 0,93,94
 960 1064 960 1064 1164 1230 c 0,95,96
 1292 1332 1292 1332 1475 1400 c 128,-1,97
 1658 1468 1658 1468 1808 1468 c 2,98,-1
 1906 1466 l 1,99,100
 1954 1460 1954 1460 1996 1430 c 1,101,102
 1996 1398 1996 1398 1959 1323 c 128,-1,103
 1922 1248 1922 1248 1882 1216 c 1,104,105
 1798 1276 1798 1276 1682 1276 c 0,106,107
 1488 1276 1488 1276 1306 1176 c 0,108,109
 1106 1064 1106 1064 1106 920 c 0,110,111
 1106 824 1106 824 1164 824 c 1,13,-1
EndSplineSet
Ligature2: "'psts' Post Base Substitutions lookup 8 subtable" tm_nya tm_ikaar
EndChar

StartChar: tm_tt_ikaar
Encoding: 65548 -1 125
Width: 1076
GlyphClass: 2
Flags: W
LayerCount: 2
Fore
SplineSet
1060 90 m 0,0,1
 1060 54 1060 54 870 -6 c 0,2,3
 780 -34 780 -34 704 -49 c 128,-1,4
 628 -64 628 -64 568 -64 c 1,5,-1
 422 -306 l 2,6,7
 326 -468 326 -468 294 -468 c 256,8,9
 262 -468 262 -468 239 -460 c 128,-1,10
 216 -452 216 -452 184 -428 c 0,11,12
 120 -384 120 -384 126 -322 c 1,13,14
 174 -322 174 -322 252 -244 c 0,15,16
 356 -140 356 -140 390 -72 c 1,17,18
 228 -54 228 -54 134 46 c 0,19,20
 82 102 82 102 56 178 c 128,-1,21
 30 254 30 254 30 354 c 0,22,23
 30 440 30 440 56 548 c 128,-1,24
 82 656 82 656 118 700 c 1,25,-1
 178 708 l 1,26,27
 288 708 288 708 322 624 c 1,28,29
 266 630 266 630 230 530 c 0,30,31
 202 442 202 442 202 336 c 0,32,33
 202 44 202 44 452 44 c 1,34,35
 466 58 466 58 486 104 c 2,36,-1
 506 158 l 1,37,38
 322 254 322 254 322 404 c 0,39,40
 322 542 322 542 406 650 c 128,-1,41
 490 758 490 758 618 758 c 0,42,43
 778 758 778 758 778 496 c 0,44,45
 778 348 778 348 648 74 c 1,46,47
 742 92 742 92 816 124 c 0,48,49
 894 154 894 154 894 174 c 0,50,51
 894 204 894 204 890 216 c 1,52,53
 900 218 900 218 918 218 c 0,54,55
 964 218 964 218 1012 185 c 128,-1,56
 1060 152 1060 152 1060 90 c 0,0,1
594 646 m 1,57,58
 568 646 568 646 531 562 c 128,-1,59
 494 478 494 478 494 398 c 0,60,61
 494 300 494 300 552 250 c 1,62,63
 608 374 608 374 608 540 c 0,64,65
 608 578 608 578 606 596 c 128,-1,66
 604 614 604 614 594 646 c 1,57,58
EndSplineSet
Ligature2: "'psts' Post Base Substitutions lookup 8 subtable" tm_tta tm_ikaar
EndChar

StartChar: tm_nn_ikaar
Encoding: 65549 -1 126
Width: 1648
GlyphClass: 2
Flags: W
LayerCount: 2
Fore
SplineSet
2264 1394 m 1,0,1
 2278 1302 2278 1302 2136 1164 c 1,2,3
 2040 1248 2040 1248 1864 1248 c 0,4,5
 1684 1248 1684 1248 1493 1149 c 128,-1,6
 1302 1050 1302 1050 1302 918 c 0,7,8
 1302 818 1302 818 1368 818 c 2,9,-1
 1452 818 l 1,10,11
 1488 824 1488 824 1602 710 c 1,12,13
 1602 578 1602 578 1596 388 c 128,-1,14
 1590 198 1590 198 1590 142 c 0,15,16
 1590 -124 1590 -124 1668 -500 c 1,17,18
 1636 -532 1636 -532 1578 -562 c 128,-1,19
 1520 -592 1520 -592 1484 -592 c 0,20,21
 1446 -592 1446 -592 1446 -104 c 0,22,23
 1446 166 1446 166 1438 342 c 128,-1,24
 1430 518 1430 518 1418 580 c 1,25,-1
 1334 518 l 1,26,27
 1388 446 1388 446 1388 318 c 0,28,29
 1388 172 1388 172 1291 63 c 128,-1,30
 1194 -46 1194 -46 1042 -46 c 0,31,32
 970 -46 970 -46 923 8 c 128,-1,33
 876 62 876 62 876 150 c 1,34,35
 852 98 852 98 763 37 c 128,-1,36
 674 -24 674 -24 592 -24 c 0,37,38
 536 -24 536 -24 488 15 c 128,-1,39
 440 54 440 54 420 116 c 1,40,-1
 322 44 l 2,41,42
 264 4 264 4 196 4 c 0,43,44
 132 4 132 4 78 64 c 1,45,46
 28 126 28 126 28 204 c 0,47,48
 28 346 28 346 205 517 c 128,-1,49
 382 688 382 688 562 688 c 0,50,51
 668 688 668 688 768 622 c 1,52,53
 874 684 874 684 1046 684 c 0,54,55
 1116 684 1116 684 1218 630 c 1,56,57
 1314 718 1314 718 1352 726 c 1,58,59
 1250 736 1250 736 1216 760 c 0,60,61
 1164 794 1164 794 1164 884 c 0,62,63
 1164 1108 1164 1108 1460 1282 c 0,64,65
 1734 1440 1734 1440 2036 1440 c 0,66,67
 2194 1440 2194 1440 2264 1394 c 1,0,1
668 560 m 1,68,69
 634 588 634 588 554 588 c 0,70,71
 528 588 528 588 448 532 c 0,72,73
 378 482 378 482 350 450 c 1,74,75
 426 426 426 426 476 350 c 1,76,77
 546 458 546 458 668 560 c 1,68,69
1134 556 m 1,78,-1
 1084 564 l 1,79,80
 1026 564 1026 564 968 542 c 1,81,82
 908 524 908 524 880 496 c 1,83,84
 908 456 908 456 916 398 c 1,85,86
 916 356 916 356 926 300 c 1,87,88
 982 380 982 380 1048 454 c 2,89,-1
 1134 556 l 1,78,-1
316 372 m 0,90,91
 294 384 294 384 258 316 c 0,92,93
 242 280 242 280 234 253 c 128,-1,94
 226 226 226 226 226 198 c 0,95,96
 226 180 226 180 230 172 c 1,97,98
 268 182 268 182 310 231 c 128,-1,99
 352 280 352 280 352 318 c 0,100,101
 352 354 352 354 316 372 c 0,90,91
764 434 m 1,102,103
 736 426 736 426 650 308 c 128,-1,104
 564 190 564 190 564 138 c 0,105,106
 564 108 564 108 588 108 c 0,107,108
 640 108 640 108 714 250 c 0,109,110
 770 354 770 354 770 406 c 0,111,112
 770 422 770 422 764 434 c 1,102,103
1246 430 m 1,113,114
 1210 424 1210 424 1128 298 c 128,-1,115
 1046 172 1046 172 1046 118 c 0,116,117
 1046 100 1046 100 1064 96 c 1,118,119
 1130 96 1130 96 1196 234 c 0,120,121
 1248 344 1248 344 1248 410 c 0,122,123
 1246 424 1246 424 1246 430 c 1,113,114
EndSplineSet
Ligature2: "'psts' Post Base Substitutions lookup 8 subtable" tm_nna tm_ikaar
EndChar

StartChar: tm_t_ikaar
Encoding: 65550 -1 127
Width: 972
GlyphClass: 2
Flags: W
LayerCount: 2
Fore
SplineSet
1272 1392 m 1,0,1
 1272 1350 1272 1350 1239 1294 c 128,-1,2
 1206 1238 1206 1238 1134 1162 c 1,3,4
 1116 1204 1116 1204 1045 1229 c 128,-1,5
 974 1254 974 1254 888 1254 c 0,6,7
 676 1254 676 1254 504 1164 c 0,8,9
 312 1062 312 1062 312 908 c 0,10,11
 312 830 312 830 398 830 c 1,12,-1
 442 834 l 1,13,-1
 512 816 l 2,14,15
 548 808 548 808 560 792 c 1,16,17
 596 680 596 680 596 488 c 1,18,19
 632 496 632 496 659 500 c 128,-1,20
 686 504 686 504 718 504 c 0,21,22
 942 504 942 504 942 274 c 0,23,24
 942 164 942 164 875 26 c 128,-1,25
 808 -112 808 -112 696 -230 c 0,26,27
 396 -552 396 -552 88 -552 c 0,28,29
 16 -552 16 -552 -57 -512 c 128,-1,30
 -130 -472 -130 -472 -130 -414 c 0,31,32
 -130 -364 -130 -364 -112 -310 c 1,33,-1
 -80 -234 l 1,34,35
 -12 -344 -12 -344 212 -344 c 0,36,37
 296 -344 296 -344 410 -281 c 128,-1,38
 524 -218 524 -218 610 -114 c 0,39,40
 682 -24 682 -24 734 110 c 0,41,42
 780 232 780 232 780 332 c 0,43,44
 780 406 780 406 698 406 c 0,45,46
 644 406 644 406 596 370 c 1,47,48
 596 278 596 278 585 206 c 128,-1,49
 574 134 574 134 542 48 c 0,50,51
 458 -180 458 -180 272 -180 c 0,52,53
 212 -180 212 -180 121 -121 c 128,-1,54
 30 -62 30 -62 30 4 c 0,55,56
 30 160 30 160 222 310 c 0,57,58
 364 418 364 418 472 446 c 1,59,60
 460 486 460 486 453 528 c 128,-1,61
 446 570 446 570 446 634 c 1,62,63
 342 556 342 556 318 378 c 1,64,-1
 272 398 l 2,65,66
 226 422 226 422 208 450 c 1,67,68
 202 508 202 508 236 581 c 128,-1,69
 270 654 270 654 350 746 c 1,70,71
 176 746 176 746 176 888 c 0,72,73
 176 1014 176 1014 286 1142 c 0,74,75
 390 1258 390 1258 554 1338 c 0,76,77
 790 1450 790 1450 1034 1450 c 0,78,79
 1200 1450 1200 1450 1272 1392 c 1,0,1
472 312 m 1,80,81
 424 312 424 312 308 172 c 128,-1,82
 192 32 192 32 204 -72 c 1,83,84
 318 -72 318 -72 406 72 c 0,85,86
 472 186 472 186 472 312 c 1,80,81
EndSplineSet
Ligature2: "'psts' Post Base Substitutions lookup 8 subtable" tm_ta tm_ikaar
EndChar

StartChar: tm_n_ikaar
Encoding: 65551 -1 128
Width: 880
GlyphClass: 2
Flags: W
LayerCount: 2
Fore
SplineSet
1318 1380 m 1,0,1
 1306 1330 1306 1330 1263 1270 c 128,-1,2
 1220 1210 1220 1210 1176 1172 c 1,3,4
 1130 1214 1130 1214 1063 1236 c 128,-1,5
 996 1258 996 1258 902 1258 c 0,6,7
 700 1258 700 1258 532 1168 c 0,8,9
 346 1066 346 1066 346 916 c 0,10,11
 346 838 346 838 444 838 c 1,12,-1
 488 842 l 1,13,14
 516 834 516 834 536 818 c 1,15,16
 582 792 582 792 592 758 c 1,17,18
 518 646 518 646 518 394 c 0,19,20
 518 372 518 372 518 353 c 128,-1,21
 518 334 518 334 522 308 c 1,22,23
 684 540 684 540 770 540 c 0,24,25
 796 540 796 540 820 524 c 0,26,27
 842 514 842 514 848 492 c 1,28,29
 834 348 834 348 822 249 c 128,-1,30
 810 150 810 150 804 120 c 0,31,32
 780 -28 780 -28 722 -134 c 0,33,34
 630 -312 630 -312 452 -426 c 0,35,36
 292 -526 292 -526 134 -526 c 0,37,38
 -96 -526 -96 -526 -96 -394 c 0,39,40
 -96 -352 -96 -352 -82 -301 c 128,-1,41
 -68 -250 -68 -250 -38 -194 c 1,42,43
 28 -306 28 -306 230 -306 c 0,44,45
 444 -306 444 -306 576 -108 c 1,46,47
 680 58 680 58 680 236 c 2,48,-1
 680 284 l 2,49,50
 680 312 680 312 676 340 c 1,51,52
 532 238 532 238 532 134 c 0,53,54
 532 94 532 94 552 54 c 1,55,-1
 526 28 l 1,56,57
 416 52 416 52 374 96 c 128,-1,58
 332 140 332 140 332 230 c 0,59,60
 332 322 332 322 396 608 c 1,61,62
 340 530 340 530 281 389 c 128,-1,63
 222 248 222 248 222 154 c 0,64,65
 222 84 222 84 276 8 c 1,66,67
 236 -4 236 -4 186 -4 c 0,68,69
 30 -4 30 -4 30 86 c 0,70,71
 30 208 30 208 169 477 c 128,-1,72
 308 746 308 746 384 754 c 1,73,74
 340 754 340 754 311 761 c 128,-1,75
 282 768 282 768 254 788 c 0,76,77
 204 828 204 828 204 900 c 0,78,79
 204 1104 204 1104 468 1276 c 0,80,81
 598 1358 598 1358 745 1402 c 128,-1,82
 892 1446 892 1446 1052 1446 c 0,83,84
 1246 1446 1246 1446 1318 1380 c 1,0,1
EndSplineSet
Ligature2: "'psts' Post Base Substitutions lookup 8 subtable" tm_na tm_ikaar
EndChar

StartChar: tm_nnn_ikaar
Encoding: 65552 -1 129
Width: 1164
GlyphClass: 2
Flags: W
LayerCount: 2
Fore
SplineSet
1894 1404 m 1,0,1
 1886 1334 1886 1334 1744 1192 c 1,2,3
 1650 1296 1650 1296 1468 1296 c 0,4,5
 1260 1296 1260 1296 1080 1209 c 128,-1,6
 900 1122 900 1122 900 976 c 0,7,8
 900 892 900 892 992 892 c 1,9,-1
 1134 876 l 1,10,11
 1128 814 1128 814 1124 760 c 128,-1,12
 1120 706 1120 706 1120 640 c 2,13,-1
 1106 350 l 2,14,15
 1106 302 1106 302 1112 218 c 0,16,17
 1126 22 1126 22 1126 -68 c 0,18,19
 1126 -226 1126 -226 1145 -321 c 128,-1,20
 1164 -416 1164 -416 1188 -448 c 1,21,22
 1156 -490 1156 -490 996 -568 c 1,23,24
 966 -538 966 -538 966 -368 c 2,25,-1
 964 -30 l 1,26,-1
 952 344 l 2,27,28
 952 464 952 464 950 526 c 128,-1,29
 948 588 948 588 946 638 c 1,30,-1
 834 546 l 1,31,32
 900 458 900 458 900 328 c 0,33,34
 900 194 900 194 788 82 c 0,35,36
 734 28 734 28 683 3 c 128,-1,37
 632 -22 632 -22 576 -22 c 0,38,39
 458 -22 458 -22 404 116 c 1,40,41
 380 76 380 76 334 42 c 0,42,43
 280 -2 280 -2 242 -2 c 0,44,45
 184 -2 184 -2 106 57 c 128,-1,46
 28 116 28 116 28 170 c 0,47,48
 28 348 28 348 194 526 c 128,-1,49
 360 704 360 704 538 704 c 0,50,51
 580 704 580 704 621 694 c 128,-1,52
 662 684 662 684 714 658 c 1,53,54
 772 716 772 716 888 804 c 1,55,56
 760 840 760 840 760 950 c 0,57,58
 760 1148 760 1148 988 1304 c 0,59,60
 1100 1380 1100 1380 1294 1432 c 0,61,62
 1376 1452 1376 1452 1459 1464 c 128,-1,63
 1542 1476 1542 1476 1614 1476 c 0,64,65
 1836 1476 1836 1476 1894 1404 c 1,0,1
638 588 m 1,66,-1
 608 592 l 1,67,68
 542 592 542 592 461 543 c 128,-1,69
 380 494 380 494 358 442 c 1,70,71
 406 426 406 426 454 350 c 1,72,73
 574 530 574 530 638 588 c 1,66,-1
738 446 m 1,74,75
 682 416 682 416 623 310 c 128,-1,76
 564 204 564 204 564 146 c 0,77,78
 564 122 564 122 576 116 c 1,79,80
 630 116 630 116 688 226 c 0,81,82
 738 324 738 324 738 446 c 1,74,75
300 374 m 1,83,84
 272 354 272 354 246 304 c 128,-1,85
 220 254 220 254 220 218 c 0,86,87
 220 192 220 192 242 186 c 1,88,89
 276 198 276 198 305 236 c 128,-1,90
 334 274 334 274 334 312 c 0,91,92
 334 348 334 348 300 374 c 1,83,84
EndSplineSet
Ligature2: "'psts' Post Base Substitutions lookup 8 subtable" tm_nnna tm_ikaar
EndChar

StartChar: tm_p_ikaar
Encoding: 65553 -1 130
Width: 1056
GlyphClass: 2
Flags: W
LayerCount: 2
Fore
SplineSet
1378 1452 m 0,0,1
 1384 1446 1384 1446 1384 1424 c 0,2,3
 1384 1306 1384 1306 1312 1198 c 1,4,5
 1220 1236 1220 1236 1186 1236 c 0,6,7
 964 1236 964 1236 756 1078 c 0,8,9
 560 928 560 928 560 792 c 0,10,11
 560 676 560 676 628 676 c 0,12,13
 660 676 660 676 695 749 c 128,-1,14
 730 822 730 822 790 822 c 0,15,16
 906 822 906 822 964 722 c 0,17,18
 1012 638 1012 638 1012 514 c 0,19,20
 1012 336 1012 336 832 140 c 0,21,22
 642 -66 642 -66 426 -66 c 0,23,24
 252 -66 252 -66 148 54 c 128,-1,25
 44 174 44 174 44 380 c 0,26,27
 44 528 44 528 98 676 c 1,28,29
 126 698 126 698 186 698 c 0,30,31
 292 698 292 698 310 638 c 1,32,33
 274 620 274 620 244 526 c 1,34,35
 218 428 218 428 218 342 c 0,36,37
 218 202 218 202 258 141 c 128,-1,38
 298 80 298 80 398 80 c 0,39,40
 536 80 536 80 714 246 c 0,41,42
 910 426 910 426 910 614 c 0,43,44
 910 702 910 702 848 702 c 0,45,46
 828 702 828 702 788 666 c 0,47,48
 770 648 770 648 756 634 c 0,49,50
 730 610 730 610 710 596 c 0,51,52
 656 560 656 560 582 560 c 0,53,54
 514 560 514 560 470 615 c 128,-1,55
 426 670 426 670 426 734 c 0,56,57
 426 924 426 924 594 1108 c 0,58,59
 734 1260 734 1260 956 1368 c 0,60,61
 1162 1466 1162 1466 1298 1466 c 0,62,63
 1348 1466 1348 1466 1378 1452 c 0,0,1
EndSplineSet
Ligature2: "'psts' Post Base Substitutions lookup 8 subtable" tm_pa tm_ikaar
EndChar

StartChar: tm_m_ikaar
Encoding: 65554 -1 131
Width: 1068
GlyphClass: 2
Flags: W
LayerCount: 2
Fore
SplineSet
1512 1442 m 1,0,1
 1512 1406 1512 1406 1504 1376 c 128,-1,2
 1496 1346 1496 1346 1472 1298 c 0,3,4
 1432 1222 1432 1222 1396 1200 c 1,5,6
 1312 1260 1312 1260 1212 1260 c 0,7,8
 982 1260 982 1260 789 1139 c 128,-1,9
 596 1018 596 1018 596 872 c 0,10,11
 596 772 596 772 674 772 c 1,12,-1
 750 798 l 1,13,14
 818 826 818 826 908 826 c 0,15,16
 1032 826 1032 826 1032 696 c 0,17,18
 1032 486 1032 486 808 250 c 0,19,20
 680 116 680 116 524 22 c 0,21,22
 448 -24 448 -24 387 -48 c 128,-1,23
 326 -72 326 -72 282 -72 c 0,24,25
 174 -72 174 -72 102 31 c 128,-1,26
 30 134 30 134 30 292 c 0,27,28
 30 434 30 434 68 562 c 1,29,30
 144 620 144 620 228 620 c 0,31,32
 270 620 270 620 310 600 c 1,33,34
 212 468 212 468 212 288 c 0,35,36
 212 92 212 92 352 92 c 0,37,38
 396 92 396 92 453 130 c 128,-1,39
 510 168 510 168 528 200 c 1,40,41
 464 200 464 200 421 246 c 128,-1,42
 378 292 378 292 378 354 c 0,43,44
 378 448 378 448 417 523 c 128,-1,45
 456 598 456 598 556 684 c 1,46,47
 490 716 490 716 473 751 c 128,-1,48
 456 786 456 786 456 846 c 0,49,50
 456 914 456 914 509 1013 c 128,-1,51
 562 1112 562 1112 644 1188 c 0,52,53
 772 1304 772 1304 981 1387 c 128,-1,54
 1190 1470 1190 1470 1352 1470 c 0,55,56
 1448 1470 1448 1470 1512 1442 c 1,0,1
866 642 m 1,57,58
 826 642 826 642 778 619 c 128,-1,59
 730 596 730 596 674 548 c 0,60,61
 560 452 560 452 536 346 c 1,62,63
 544 340 544 340 572 336 c 1,64,65
 652 336 652 336 759 448 c 128,-1,66
 866 560 866 560 866 642 c 1,57,58
EndSplineSet
Ligature2: "'psts' Post Base Substitutions lookup 8 subtable" tm_ma tm_ikaar
EndChar

StartChar: tm_y_ikaar
Encoding: 65555 -1 132
Width: 1224
GlyphClass: 2
Flags: W
LayerCount: 2
Fore
SplineSet
1564 1442 m 1,0,1
 1586 1430 1586 1430 1586 1394 c 0,2,3
 1586 1326 1586 1326 1514 1188 c 1,4,5
 1438 1230 1438 1230 1376 1230 c 0,6,7
 1214 1230 1214 1230 1018 1100 c 0,8,9
 802 956 802 956 802 788 c 0,10,11
 802 692 802 692 872 692 c 0,12,13
 894 692 894 692 906 694 c 128,-1,14
 918 696 918 696 948 708 c 1,15,16
 936 764 936 764 914 796 c 1,17,18
 938 826 938 826 1008 852 c 1,19,20
 1074 872 1074 872 1106 872 c 0,21,22
 1160 872 1160 872 1174 762 c 0,23,24
 1180 720 1180 720 1180 584 c 0,25,26
 1180 366 1180 366 1066 168 c 0,27,28
 934 -60 934 -60 730 -60 c 0,29,30
 616 -60 616 -60 531 11 c 128,-1,31
 446 82 446 82 410 200 c 1,32,33
 392 158 392 158 346 118 c 0,34,35
 294 70 294 70 242 70 c 0,36,37
 140 70 140 70 82 262 c 0,38,39
 42 404 42 404 42 568 c 0,40,41
 42 612 42 612 46 626 c 1,42,43
 98 672 98 672 200 672 c 0,44,45
 290 672 290 672 296 626 c 1,46,47
 234 540 234 540 234 416 c 0,48,49
 234 228 234 228 308 228 c 0,50,51
 370 228 370 228 403 436 c 128,-1,52
 436 644 436 644 450 672 c 1,53,54
 500 694 500 694 546 694 c 0,55,56
 660 694 660 694 696 608 c 1,57,58
 636 602 636 602 604 498 c 0,59,60
 580 414 580 414 580 296 c 0,61,62
 580 46 580 46 738 46 c 0,63,64
 844 46 844 46 912 228 c 0,65,66
 940 306 940 306 954 380 c 128,-1,67
 968 454 968 454 968 538 c 0,68,69
 968 564 968 564 968 592 c 1,70,71
 962 626 962 626 960 642 c 1,72,73
 898 592 898 592 818 592 c 0,74,75
 752 592 752 592 712 644 c 0,76,77
 680 688 680 688 680 750 c 0,78,79
 680 924 680 924 826 1096 c 0,80,81
 956 1246 956 1246 1153 1347 c 128,-1,82
 1350 1448 1350 1448 1496 1448 c 1,83,-1
 1564 1442 l 1,0,1
EndSplineSet
Ligature2: "'psts' Post Base Substitutions lookup 8 subtable" tm_ya tm_ikaar
EndChar

StartChar: tm_r_ikaar
Encoding: 65556 -1 133
Width: 616
GlyphClass: 2
Flags: W
LayerCount: 2
Fore
SplineSet
478 -70 m 0,0,1
 456 -178 456 -178 396 -270 c 0,2,3
 310 -408 310 -408 162 -480 c 0,4,5
 42 -540 42 -540 -72 -540 c 0,6,7
 -122 -540 -122 -540 -150 -486 c 128,-1,8
 -178 -432 -178 -432 -178 -370 c 0,9,10
 -178 -320 -178 -320 -164 -290 c 1,11,12
 -114 -328 -114 -328 -52 -328 c 0,13,14
 136 -328 136 -328 260 -148 c 0,15,16
 374 20 374 20 374 252 c 0,17,18
 374 316 374 316 376 397 c 128,-1,19
 378 478 378 478 380 556 c 1,20,21
 336 508 336 508 279 370 c 128,-1,22
 222 232 222 232 222 132 c 0,23,24
 222 106 222 106 248 60 c 1,25,26
 192 38 192 38 142 38 c 0,27,28
 30 38 30 38 30 114 c 0,29,30
 30 206 30 206 158 426 c 0,31,32
 262 612 262 612 344 706 c 1,33,34
 180 724 180 724 180 870 c 0,35,36
 180 954 180 954 236 1050 c 128,-1,37
 292 1146 292 1146 394 1236 c 0,38,39
 520 1344 520 1344 719 1418 c 128,-1,40
 918 1492 918 1492 1102 1492 c 0,41,42
 1170 1492 1170 1492 1240 1450 c 1,43,-1
 1208 1362 l 2,44,45
 1188 1316 1188 1316 1165 1279 c 128,-1,46
 1142 1242 1142 1242 1114 1216 c 1,47,48
 1046 1278 1046 1278 928 1278 c 0,49,50
 710 1278 710 1278 522 1166 c 0,51,52
 318 1046 318 1046 318 890 c 0,53,54
 318 802 318 802 398 802 c 1,55,-1
 448 808 l 1,56,-1
 498 816 l 1,57,-1
 528 794 l 2,58,59
 560 766 560 766 580 724 c 1,60,61
 518 638 518 638 518 352 c 0,62,63
 518 252 518 252 506 124 c 128,-1,64
 494 -4 494 -4 478 -70 c 0,0,1
EndSplineSet
Ligature2: "'psts' Post Base Substitutions lookup 8 subtable" tm_ra tm_ikaar
EndChar

StartChar: tm_rr_ikaar
Encoding: 65557 -1 134
Width: 974
GlyphClass: 2
Flags: W
LayerCount: 2
Fore
SplineSet
1538 1410 m 1,0,1
 1538 1378 1538 1378 1501 1303 c 128,-1,2
 1464 1228 1464 1228 1424 1196 c 1,3,4
 1340 1256 1340 1256 1224 1256 c 0,5,6
 1030 1256 1030 1256 848 1156 c 0,7,8
 648 1044 648 1044 648 900 c 0,9,10
 648 804 648 804 706 804 c 0,11,12
 844 804 844 804 916 772 c 1,13,14
 874 748 874 748 874 612 c 0,15,16
 874 536 874 536 901 389 c 128,-1,17
 928 242 928 242 928 124 c 0,18,19
 928 -116 928 -116 802 -288 c 0,20,21
 696 -430 696 -430 522 -524 c 0,22,23
 362 -610 362 -610 248 -610 c 2,24,-1
 126 -608 l 1,25,26
 66 -602 66 -602 6 -572 c 1,27,28
 -18 -554 -18 -554 -44 -484 c 128,-1,29
 -70 -414 -70 -414 -70 -366 c 0,30,31
 -70 -332 -70 -332 -56 -318 c 1,32,33
 14 -366 14 -366 60 -379 c 128,-1,34
 106 -392 106 -392 186 -392 c 0,35,36
 408 -392 408 -392 580 -256 c 0,37,38
 790 -90 790 -90 790 200 c 0,39,40
 790 322 790 322 716 612 c 1,41,42
 556 376 556 376 556 178 c 0,43,44
 556 102 556 102 568 68 c 0,45,46
 572 56 572 56 602 16 c 1,47,48
 584 -20 584 -20 522 -20 c 0,49,50
 430 -20 430 -20 374 54 c 1,51,52
 374 138 374 138 367 315 c 128,-1,53
 360 492 360 492 360 558 c 1,54,55
 210 374 210 374 210 170 c 0,56,57
 210 86 210 86 220 56 c 0,58,59
 232 0 232 0 282 -38 c 1,60,61
 248 -62 248 -62 188 -62 c 256,62,63
 128 -62 128 -62 82 -36 c 0,64,65
 32 -4 32 -4 32 46 c 0,66,67
 32 244 32 244 146 454 c 0,68,69
 170 498 170 498 214 562 c 128,-1,70
 258 626 258 626 336 730 c 1,71,72
 404 730 404 730 443 723 c 128,-1,73
 482 716 482 716 506 696 c 1,74,75
 476 666 476 666 476 538 c 0,76,77
 476 504 476 504 478 463 c 128,-1,78
 480 422 480 422 486 380 c 1,79,80
 600 656 600 656 682 712 c 1,81,82
 604 712 604 712 553 758 c 128,-1,83
 502 804 502 804 502 884 c 0,84,85
 502 1044 502 1044 706 1210 c 0,86,87
 834 1312 834 1312 1017 1380 c 128,-1,88
 1200 1448 1200 1448 1350 1448 c 2,89,-1
 1448 1446 l 1,90,91
 1496 1440 1496 1440 1538 1410 c 1,0,1
EndSplineSet
Ligature2: "'psts' Post Base Substitutions lookup 8 subtable" tm_rra tm_ikaar
EndChar

StartChar: tm_l_ikaar
Encoding: 65558 -1 135
Width: 1164
GlyphClass: 2
Flags: W
LayerCount: 2
Fore
SplineSet
1550 1458 m 1,0,-1
 1554 1420 l 1,1,2
 1554 1334 1554 1334 1466 1216 c 1,3,4
 1418 1244 1418 1244 1374 1254 c 1,5,-1
 1282 1258 l 1,6,7
 1126 1258 1126 1258 932 1136 c 0,8,9
 718 1004 718 1004 718 858 c 0,10,11
 718 754 718 754 786 754 c 0,12,13
 802 754 802 754 870 796 c 128,-1,14
 938 838 938 838 1010 838 c 0,15,16
 1132 838 1132 838 1132 536 c 0,17,18
 1132 326 1132 326 1021 143 c 128,-1,19
 910 -40 910 -40 764 -40 c 0,20,21
 614 -40 614 -40 560 96 c 0,22,23
 528 186 528 186 528 366 c 2,24,-1
 528 410 l 2,25,26
 528 596 528 596 472 596 c 0,27,28
 410 596 410 596 280 454 c 1,29,30
 332 454 332 454 402 401 c 128,-1,31
 472 348 472 348 472 290 c 0,32,33
 472 220 472 220 412 148 c 0,34,35
 346 66 346 66 252 66 c 0,36,37
 168 66 168 66 99 123 c 128,-1,38
 30 180 30 180 30 258 c 0,39,40
 30 426 30 426 163 559 c 128,-1,41
 296 692 296 692 444 692 c 0,42,43
 536 692 536 692 600 622 c 0,44,45
 658 562 658 562 682 454 c 1,46,-1
 710 208 l 2,47,48
 722 86 722 86 782 86 c 0,49,50
 854 86 854 86 902 204 c 0,51,52
 944 306 944 306 944 436 c 0,53,54
 944 530 944 530 890 692 c 1,55,56
 824 656 824 656 760 656 c 0,57,58
 684 656 684 656 628 704 c 128,-1,59
 572 752 572 752 572 808 c 0,60,61
 572 1076 572 1076 944 1304 c 0,62,63
 1218 1468 1218 1468 1454 1468 c 0,64,65
 1514 1468 1514 1468 1550 1458 c 1,0,-1
240 374 m 1,66,67
 198 328 198 328 198 244 c 0,68,69
 198 178 198 178 234 178 c 1,70,71
 306 206 306 206 306 284 c 0,72,73
 306 346 306 346 240 374 c 1,66,67
EndSplineSet
Ligature2: "'psts' Post Base Substitutions lookup 8 subtable" tm_la tm_ikaar
EndChar

StartChar: tm_ll_ikaar
Encoding: 65559 -1 136
Width: 1040
GlyphClass: 2
Flags: W
LayerCount: 2
Fore
SplineSet
1674 1410 m 1,0,1
 1674 1354 1674 1354 1614 1270 c 1,2,-1
 1544 1180 l 1,3,4
 1460 1268 1460 1268 1286 1268 c 0,5,6
 1080 1268 1080 1268 893 1168 c 128,-1,7
 706 1068 706 1068 706 930 c 0,8,9
 706 834 706 834 772 834 c 0,10,11
 810 834 810 834 826 848 c 1,12,13
 878 842 878 842 916 830 c 0,14,15
 1006 810 1006 810 1018 776 c 1,16,17
 984 600 984 600 984 214 c 0,18,19
 984 -86 984 -86 1002 -188 c 1,20,-1
 1044 -224 l 2,21,22
 1056 -236 1056 -236 1056 -258 c 256,23,24
 1056 -280 1056 -280 1020 -302 c 0,25,26
 980 -322 980 -322 948 -322 c 0,27,28
 892 -322 892 -322 870 -304 c 128,-1,29
 848 -286 848 -286 836 -234 c 1,30,-1
 830 -56 l 2,31,32
 830 -12 830 -12 840 128 c 128,-1,33
 850 268 850 268 850 366 c 1,34,-1
 864 630 l 1,35,36
 810 536 810 536 766 368 c 0,37,38
 730 220 730 220 718 100 c 1,39,40
 666 100 666 100 640 103 c 128,-1,41
 614 106 614 106 576 120 c 0,42,43
 510 146 510 146 502 196 c 1,44,-1
 504 278 l 1,45,-1
 508 376 l 1,46,47
 508 600 508 600 410 600 c 0,48,49
 372 600 372 600 292 538 c 1,50,51
 410 504 410 504 410 376 c 0,52,53
 410 288 410 288 332 222 c 0,54,55
 262 162 262 162 180 162 c 0,56,57
 120 162 120 162 71 215 c 128,-1,58
 22 268 22 268 22 330 c 0,59,60
 22 462 22 462 114 586 c 0,61,62
 214 722 214 722 352 722 c 0,63,64
 584 722 584 722 626 438 c 1,65,66
 652 534 652 534 744 742 c 1,67,68
 560 742 560 742 560 910 c 0,69,70
 560 972 560 972 618 1070 c 128,-1,71
 676 1168 676 1168 776 1244 c 0,72,73
 900 1336 900 1336 1088 1398 c 128,-1,74
 1276 1460 1276 1460 1416 1460 c 0,75,76
 1606 1460 1606 1460 1674 1410 c 1,0,1
256 488 m 1,77,78
 206 450 206 450 206 362 c 0,79,80
 206 330 206 330 218 318 c 1,81,82
 290 354 290 354 290 432 c 0,83,84
 290 474 290 474 256 488 c 1,77,78
EndSplineSet
Ligature2: "'psts' Post Base Substitutions lookup 8 subtable" tm_lla tm_ikaar
EndChar

StartChar: tm_lll_ikaar
Encoding: 65560 -1 137
Width: 1060
GlyphClass: 2
Flags: W
LayerCount: 2
Fore
SplineSet
1426 1404 m 1,0,1
 1432 1394 1432 1394 1432 1378 c 0,2,3
 1432 1296 1432 1296 1330 1166 c 1,4,5
 1264 1226 1264 1226 1134 1226 c 0,6,7
 948 1226 948 1226 757 1107 c 128,-1,8
 566 988 566 988 566 854 c 0,9,10
 566 762 566 762 642 762 c 0,11,12
 662 762 662 762 744 783 c 128,-1,13
 826 804 826 804 870 804 c 0,14,15
 1030 804 1030 804 1030 674 c 0,16,17
 1030 522 1030 522 872 328 c 0,18,19
 762 192 762 192 646 112 c 1,20,21
 704 58 704 58 778 58 c 0,22,23
 798 58 798 58 808 62 c 1,24,25
 816 36 816 36 817 23 c 128,-1,26
 818 10 818 10 818 -6 c 0,27,28
 818 -114 818 -114 766 -152 c 1,29,-1
 642 -94 l 1,30,31
 458 -340 458 -340 250 -340 c 0,32,33
 4 -340 4 -340 -88 -134 c 1,34,35
 -4 -44 -4 -44 56 -44 c 0,36,37
 76 -44 76 -44 94 -52 c 1,38,-1
 92 -72 l 1,39,40
 92 -120 92 -120 148 -167 c 128,-1,41
 204 -214 204 -214 270 -214 c 0,42,43
 382 -214 382 -214 550 -22 c 1,44,-1
 520 28 l 1,45,46
 400 -56 400 -56 258 -56 c 0,47,48
 146 -56 146 -56 76 52 c 0,49,50
 16 142 16 142 16 262 c 0,51,52
 16 490 16 490 62 596 c 1,53,54
 120 636 120 636 196 636 c 0,55,56
 256 636 256 636 304 616 c 1,57,58
 208 442 208 442 208 316 c 0,59,60
 208 116 208 116 320 116 c 0,61,62
 374 116 374 116 432 148 c 1,63,64
 366 208 366 208 366 340 c 0,65,66
 366 446 366 446 418 534 c 128,-1,67
 470 622 470 622 550 670 c 1,68,69
 482 700 482 700 464 724 c 0,70,71
 438 756 438 756 438 838 c 0,72,73
 438 900 438 900 486 989 c 128,-1,74
 534 1078 534 1078 616 1154 c 0,75,76
 736 1262 736 1262 934 1342 c 128,-1,77
 1132 1422 1132 1422 1288 1422 c 0,78,79
 1354 1422 1354 1422 1426 1404 c 1,0,1
842 624 m 1,80,81
 742 606 742 606 631 503 c 128,-1,82
 520 400 520 400 520 308 c 0,83,84
 520 270 520 270 542 240 c 1,85,86
 598 272 598 272 702 394 c 0,87,88
 818 530 818 530 842 624 c 1,80,81
EndSplineSet
Ligature2: "'psts' Post Base Substitutions lookup 8 subtable" tm_llla tm_ikaar
EndChar

StartChar: tm_v_ikaar
Encoding: 65561 -1 138
Width: 980
GlyphClass: 2
Flags: W
LayerCount: 2
Fore
SplineSet
1638 1406 m 1,0,1
 1600 1278 1600 1278 1492 1176 c 1,2,3
 1432 1260 1432 1260 1250 1260 c 0,4,5
 1036 1260 1036 1260 860 1168 c 0,6,7
 662 1066 662 1066 662 904 c 0,8,9
 662 824 662 824 744 824 c 0,10,11
 778 824 778 824 800 838 c 1,12,-1
 852 846 l 1,13,14
 934 846 934 846 980 776 c 1,15,16
 908 698 908 698 908 408 c 0,17,18
 908 176 908 176 926 88 c 1,19,-1
 930 62 l 1,20,21
 930 28 930 28 880 4 c 1,22,-1
 806 8 l 1,23,24
 618 8 618 8 369 -52 c 128,-1,25
 120 -112 120 -112 112 -176 c 1,26,27
 18 -128 18 -128 8 -26 c 1,28,29
 174 58 174 58 320 82 c 1,30,31
 408 156 408 156 485 295 c 128,-1,32
 562 434 562 434 562 538 c 0,33,34
 562 608 562 608 454 608 c 0,35,36
 428 608 428 608 387 587 c 128,-1,37
 346 566 346 566 320 538 c 1,38,39
 458 496 458 496 458 388 c 0,40,41
 458 310 458 310 380 252 c 0,42,43
 304 200 304 200 208 200 c 0,44,45
 152 200 152 200 92 254 c 1,46,47
 36 310 36 310 36 374 c 0,48,49
 36 504 36 504 164 617 c 128,-1,50
 292 730 292 730 446 730 c 0,51,52
 558 730 558 730 623 669 c 128,-1,53
 688 608 688 608 688 516 c 0,54,55
 688 360 688 360 538 128 c 1,56,-1
 758 154 l 1,57,58
 728 350 728 350 728 578 c 0,59,60
 728 626 728 626 730 665 c 128,-1,61
 732 704 732 704 738 730 c 1,62,63
 520 730 520 730 520 896 c 0,64,65
 520 968 520 968 581 1066 c 128,-1,66
 642 1164 642 1164 750 1246 c 0,67,68
 870 1336 870 1336 1063 1396 c 128,-1,69
 1256 1456 1256 1456 1410 1456 c 0,70,71
 1532 1456 1532 1456 1638 1406 c 1,0,1
250 480 m 1,72,73
 234 470 234 470 214 419 c 128,-1,74
 194 368 194 368 194 336 c 0,75,76
 194 300 194 300 216 288 c 1,77,78
 296 288 296 288 296 376 c 0,79,80
 296 448 296 448 250 480 c 1,72,73
EndSplineSet
Ligature2: "'psts' Post Base Substitutions lookup 8 subtable" tm_va tm_ikaar
EndChar

StartChar: tm_ss_ikaar
Encoding: 65562 -1 139
Width: 1462
GlyphClass: 2
Flags: W
LayerCount: 2
Fore
SplineSet
1690 1428 m 1,0,1
 1702 1418 1702 1418 1702 1396 c 0,2,3
 1702 1352 1702 1352 1663 1279 c 128,-1,4
 1624 1206 1624 1206 1594 1186 c 1,5,6
 1554 1244 1554 1244 1418 1244 c 0,7,8
 1220 1244 1220 1244 1038 1123 c 128,-1,9
 856 1002 856 1002 856 874 c 0,10,11
 856 772 856 772 930 772 c 0,12,13
 958 772 958 772 999 785 c 128,-1,14
 1040 798 1040 798 1076 798 c 0,15,16
 1154 798 1154 798 1202 748 c 0,17,18
 1244 706 1244 706 1244 640 c 0,19,20
 1244 434 1244 434 1086 142 c 1,21,22
 1110 144 1110 144 1135 145 c 128,-1,23
 1160 146 1160 146 1186 146 c 2,24,-1
 1238 146 l 2,25,26
 1356 146 1356 146 1436 130 c 1,27,28
 1448 112 1448 112 1448 76 c 0,29,30
 1448 -32 1448 -32 1368 -70 c 1,31,32
 1276 -46 1276 -46 1148 -28 c 0,33,34
 1084 -20 1084 -20 1042 -18 c 128,-1,35
 1000 -16 1000 -16 956 -16 c 1,36,37
 922 -82 922 -82 744 -266 c 0,38,39
 580 -430 580 -430 506 -488 c 1,40,41
 452 -470 452 -470 420 -427 c 128,-1,42
 388 -384 388 -384 388 -346 c 0,43,44
 388 -328 388 -328 400 -312 c 1,45,-1
 416 -316 l 1,46,47
 470 -316 470 -316 618 -192 c 0,48,49
 738 -92 738 -92 802 -12 c 1,50,51
 712 -12 712 -12 617 -24 c 128,-1,52
 522 -36 522 -36 406 -56 c 0,53,54
 112 -104 112 -104 80 -178 c 1,55,56
 40 -156 40 -156 10 -98 c 0,57,58
 -8 -60 -8 -60 -12 -24 c 1,59,60
 28 0 28 0 147 35 c 128,-1,61
 266 70 266 70 318 76 c 1,62,63
 342 98 342 98 378 140 c 128,-1,64
 414 182 414 182 460 238 c 1,65,66
 504 304 504 304 538 393 c 128,-1,67
 572 482 572 482 572 518 c 0,68,69
 572 598 572 598 468 598 c 0,70,71
 424 598 424 598 326 530 c 1,72,73
 460 494 460 494 460 380 c 0,74,75
 460 302 460 302 384 246 c 0,76,77
 308 194 308 194 210 194 c 0,78,79
 150 194 150 194 94 250 c 128,-1,80
 38 306 38 306 38 372 c 0,81,82
 38 496 38 496 165 607 c 128,-1,83
 292 718 292 718 446 718 c 0,84,85
 554 718 554 718 623 663 c 128,-1,86
 692 608 692 608 692 522 c 0,87,88
 692 404 692 404 632 280 c 0,89,90
 608 234 608 234 518 102 c 1,91,92
 556 116 556 116 698 128 c 2,93,-1
 898 142 l 1,94,-1
 948 222 l 1,95,96
 794 300 794 300 794 472 c 0,97,98
 794 588 794 588 872 672 c 1,99,100
 802 692 802 692 774 714 c 0,101,102
 730 752 730 752 730 822 c 0,103,104
 730 978 730 978 852 1120 c 1,105,106
 964 1244 964 1244 1160 1340 c 0,107,108
 1388 1448 1388 1448 1582 1448 c 1,109,-1
 1690 1428 l 1,0,1
1086 682 m 1,110,111
 1046 682 1046 682 996 592 c 128,-1,112
 946 502 946 502 946 414 c 0,113,114
 946 338 946 338 994 302 c 1,115,116
 1088 502 1088 502 1088 642 c 1,117,-1
 1086 682 l 1,110,111
260 476 m 1,118,119
 240 472 240 472 218 423 c 128,-1,120
 196 374 196 374 196 336 c 0,121,122
 196 296 196 296 222 284 c 1,123,124
 250 284 250 284 274 315 c 128,-1,125
 298 346 298 346 298 388 c 0,126,127
 298 436 298 436 260 476 c 1,118,119
EndSplineSet
Ligature2: "'psts' Post Base Substitutions lookup 8 subtable" tm_ssa tm_ikaar
EndChar

StartChar: tm_s_ikaar
Encoding: 65563 -1 140
Width: 1456
GlyphClass: 2
Flags: W
LayerCount: 2
Fore
SplineSet
1996 1392 m 1,0,1
 1996 1326 1996 1326 1942 1254 c 1,2,-1
 1862 1168 l 1,3,4
 1836 1218 1836 1218 1758 1236 c 0,5,6
 1720 1244 1720 1244 1674 1245 c 128,-1,7
 1628 1246 1628 1246 1600 1246 c 0,8,9
 1396 1246 1396 1246 1237 1154 c 128,-1,10
 1078 1062 1078 1062 1078 950 c 0,11,12
 1078 868 1078 868 1140 868 c 0,13,14
 1166 868 1166 868 1205 891 c 128,-1,15
 1244 914 1244 914 1278 914 c 0,16,17
 1348 914 1348 914 1390 802 c 0,18,19
 1424 706 1424 706 1424 584 c 0,20,21
 1424 340 1424 340 1319 141 c 128,-1,22
 1214 -58 1214 -58 1062 -58 c 0,23,24
 848 -58 848 -58 848 350 c 1,25,-1
 854 456 l 1,26,-1
 862 546 l 1,27,28
 818 496 818 496 763 329 c 128,-1,29
 708 162 708 162 708 36 c 1,30,31
 608 48 608 48 564 70 c 128,-1,32
 520 92 520 92 494 142 c 1,33,-1
 500 270 l 1,34,35
 500 538 500 538 428 538 c 0,36,37
 374 538 374 538 314 476 c 1,38,39
 414 428 414 428 414 324 c 0,40,41
 414 238 414 238 356 185 c 128,-1,42
 298 132 298 132 210 132 c 0,43,44
 128 132 128 132 80 178 c 128,-1,45
 32 224 32 224 32 292 c 0,46,47
 32 434 32 434 136 550 c 0,48,49
 232 658 232 658 332 658 c 0,50,51
 584 658 584 658 632 350 c 1,52,-1
 712 588 l 2,53,54
 754 714 754 714 778 758 c 1,55,56
 820 758 820 758 843 756 c 128,-1,57
 866 754 866 754 907 747 c 128,-1,58
 948 740 948 740 994 712 c 1,59,60
 1000 694 1000 694 1004 656 c 1,61,-1
 992 544 l 2,62,63
 986 484 986 484 984 454 c 128,-1,64
 982 424 982 424 982 362 c 0,65,66
 982 100 982 100 1090 100 c 0,67,68
 1142 100 1142 100 1190 234 c 0,69,70
 1232 360 1232 360 1232 504 c 0,71,72
 1232 686 1232 686 1150 768 c 1,73,74
 1126 756 1126 756 1096 756 c 0,75,76
 1038 756 1038 756 991 805 c 128,-1,77
 944 854 944 854 944 914 c 0,78,79
 944 1006 944 1006 1021 1114 c 128,-1,80
 1098 1222 1098 1222 1228 1302 c 0,81,82
 1452 1438 1452 1438 1796 1438 c 0,83,84
 1870 1438 1870 1438 1996 1392 c 1,0,1
268 416 m 1,85,86
 248 404 248 404 229 366 c 128,-1,87
 210 328 210 328 210 292 c 0,88,89
 210 272 210 272 218 262 c 1,90,91
 246 266 246 266 266 294 c 0,92,93
 286 328 286 328 286 360 c 0,94,95
 286 388 286 388 268 416 c 1,85,86
EndSplineSet
Ligature2: "'psts' Post Base Substitutions lookup 8 subtable" tm_sa tm_ikaar
EndChar

StartChar: tm_h_ikaar
Encoding: 65564 -1 141
Width: 1642
GlyphClass: 2
Flags: W
LayerCount: 2
Fore
SplineSet
2248 1426 m 1,0,1
 2258 1332 2258 1332 2124 1188 c 1,2,3
 2070 1260 2070 1260 1890 1260 c 0,4,5
 1680 1260 1680 1260 1497 1150 c 128,-1,6
 1314 1040 1314 1040 1314 908 c 0,7,8
 1314 838 1314 838 1334 821 c 128,-1,9
 1354 804 1354 804 1406 804 c 0,10,11
 1570 804 1570 804 1602 754 c 1,12,13
 1560 684 1560 684 1560 650 c 0,14,15
 1560 622 1560 622 1562 584 c 128,-1,16
 1564 546 1564 546 1573 475 c 128,-1,17
 1582 404 1582 404 1582 346 c 0,18,19
 1582 106 1582 106 1472 -66 c 0,20,21
 1386 -202 1386 -202 1202 -326 c 0,22,23
 906 -522 906 -522 418 -522 c 0,24,25
 58 -522 58 -522 -54 -410 c 1,26,27
 -78 -338 -78 -338 -78 -298 c 0,28,29
 -78 -262 -78 -262 -58 -234 c 1,30,31
 118 -368 118 -368 468 -368 c 0,32,33
 1066 -368 1066 -368 1282 -92 c 0,34,35
 1406 68 1406 68 1406 392 c 0,36,37
 1406 468 1406 468 1400 520 c 128,-1,38
 1394 572 1394 572 1378 612 c 1,39,40
 1332 564 1332 564 1273 426 c 128,-1,41
 1214 288 1214 288 1214 212 c 0,42,43
 1214 68 1214 68 1260 20 c 1,44,45
 1260 -18 1260 -18 1194 -18 c 0,46,47
 1134 -18 1134 -18 1090 10 c 0,48,49
 1038 38 1038 38 1032 98 c 1,50,-1
 1030 348 l 2,51,52
 1030 518 1030 518 1014 558 c 1,53,54
 884 388 884 388 884 182 c 0,55,56
 884 74 884 74 902 32 c 1,57,-1
 876 8 l 1,58,59
 678 8 678 8 460 -32 c 0,60,61
 176 -80 176 -80 88 -168 c 1,62,63
 54 -160 54 -160 24 -100 c 0,64,65
 2 -60 2 -60 -4 -18 c 1,66,67
 32 4 32 4 158 42 c 1,68,-1
 322 86 l 1,69,70
 420 168 420 168 494 306 c 128,-1,71
 568 444 568 444 568 534 c 0,72,73
 568 608 568 608 460 608 c 0,74,75
 396 608 396 608 326 542 c 1,76,77
 460 490 460 490 460 396 c 0,78,79
 460 306 460 306 386 252 c 0,80,81
 320 204 320 204 226 204 c 0,82,83
 148 204 148 204 93 261 c 128,-1,84
 38 318 38 318 38 396 c 0,85,86
 38 494 38 494 148 604 c 0,87,88
 276 726 276 726 438 726 c 0,89,90
 546 726 546 726 619 671 c 128,-1,91
 692 616 692 616 692 516 c 0,92,93
 692 424 692 424 640 307 c 128,-1,94
 588 190 588 190 526 120 c 1,95,-1
 696 136 l 1,96,97
 696 206 696 206 728 289 c 128,-1,98
 760 372 760 372 826 484 c 0,99,100
 868 560 868 560 910 621 c 128,-1,101
 952 682 952 682 998 730 c 1,102,103
 1146 730 1146 730 1168 696 c 1,104,105
 1134 680 1134 680 1134 536 c 0,106,107
 1134 444 1134 444 1148 382 c 1,108,109
 1240 654 1240 654 1352 708 c 1,110,111
 1306 708 1306 708 1273 718 c 128,-1,112
 1240 728 1240 728 1220 744 c 0,113,114
 1172 780 1172 780 1172 884 c 0,115,116
 1172 936 1172 936 1216 1024 c 0,117,118
 1270 1128 1270 1128 1352 1200 c 0,119,120
 1468 1306 1468 1306 1670 1383 c 128,-1,121
 1872 1460 1872 1460 2044 1460 c 0,122,123
 2186 1460 2186 1460 2248 1426 c 1,0,1
254 484 m 1,124,125
 234 472 234 472 212 424 c 0,126,127
 194 378 194 378 194 338 c 0,128,129
 194 290 194 290 226 288 c 1,130,131
 302 300 302 300 302 378 c 0,132,133
 302 436 302 436 254 484 c 1,124,125
EndSplineSet
Ligature2: "'psts' Post Base Substitutions lookup 8 subtable" tm_ha tm_ikaar
EndChar

StartChar: tm_k_iikaar
Encoding: 65565 -1 142
Width: 1016
GlyphClass: 2
Flags: W
LayerCount: 2
Fore
SplineSet
986 262 m 0,0,1
 986 136 986 136 886 12 c 0,2,3
 800 -96 800 -96 682 -156 c 1,4,5
 592 -102 592 -102 572 -34 c 1,6,7
 642 -22 642 -22 722 82 c 0,8,9
 810 194 810 194 810 300 c 0,10,11
 810 386 810 386 772 412 c 1,12,-1
 692 394 l 2,13,14
 638 382 638 382 614 354 c 1,15,16
 614 236 614 236 596 143 c 128,-1,17
 578 50 578 50 542 -34 c 0,18,19
 454 -234 454 -234 284 -234 c 0,20,21
 210 -234 210 -234 124 -182 c 0,22,23
 26 -120 26 -120 26 -50 c 0,24,25
 26 114 26 114 210 268 c 0,26,27
 356 394 356 394 472 420 c 1,28,-1
 460 520 l 2,29,30
 452 584 452 584 430 608 c 1,31,32
 380 572 380 572 346 482 c 0,33,34
 336 454 336 454 329 420 c 128,-1,35
 322 386 322 386 318 354 c 1,36,37
 286 354 286 354 237 387 c 128,-1,38
 188 420 188 420 188 454 c 0,39,40
 188 538 188 538 262 642 c 2,41,-1
 360 776 l 1,42,43
 260 848 260 848 260 938 c 0,44,45
 260 1080 260 1080 428 1230 c 128,-1,46
 596 1380 596 1380 790 1380 c 0,47,48
 968 1380 968 1380 968 1254 c 0,49,50
 968 1152 968 1152 840 1034 c 128,-1,51
 712 916 712 916 594 916 c 0,52,53
 486 916 486 916 486 1004 c 0,54,55
 486 1044 486 1044 514 1084 c 1,56,57
 426 1038 426 1038 426 916 c 0,58,59
 426 856 426 856 552 808 c 1,60,61
 588 750 588 750 600 624 c 1,62,63
 600 562 600 562 605 525 c 128,-1,64
 610 488 610 488 618 474 c 1,65,66
 712 496 712 496 786 496 c 0,67,68
 868 496 868 496 927 423 c 128,-1,69
 986 350 986 350 986 262 c 0,0,1
810 1242 m 1,70,71
 802 1254 802 1254 778 1258 c 1,72,73
 728 1258 728 1258 661 1190 c 128,-1,74
 594 1122 594 1122 594 1050 c 1,75,76
 642 1050 642 1050 719 1116 c 128,-1,77
 796 1182 796 1182 810 1242 c 1,70,71
476 288 m 1,78,79
 396 252 396 252 302 124 c 128,-1,80
 208 -4 208 -4 208 -78 c 0,81,82
 208 -104 208 -104 222 -118 c 1,83,84
 340 -106 340 -106 418 46 c 0,85,86
 476 164 476 164 476 288 c 1,78,79
EndSplineSet
Ligature2: "'abvs' Above Base Substitutions lookup 6 subtable" tm_ka tm_iikaar
EndChar

StartChar: tm_ng_iikaar
Encoding: 65566 -1 143
Width: 1296
GlyphClass: 2
Flags: W
LayerCount: 2
Fore
SplineSet
818 796 m 0,0,1
 718 856 718 856 718 948 c 0,2,3
 718 1124 718 1124 885 1282 c 128,-1,4
 1052 1440 1052 1440 1264 1440 c 0,5,6
 1456 1440 1456 1440 1456 1290 c 0,7,8
 1456 1192 1456 1192 1309 1068 c 128,-1,9
 1162 944 1162 944 1038 944 c 0,10,11
 1008 944 1008 944 980 970 c 1,12,13
 956 998 956 998 956 1032 c 0,14,15
 956 1048 956 1048 966 1070 c 128,-1,16
 976 1092 976 1092 984 1124 c 1,17,18
 900 1064 900 1064 900 948 c 0,19,20
 900 858 900 858 1022 844 c 1,21,-1
 1022 874 l 1,22,-1
 1080 880 l 1,23,24
 1176 880 1176 880 1236 828 c 1,25,26
 1228 770 1228 770 1224 722 c 128,-1,27
 1220 674 1220 674 1220 620 c 2,28,-1
 1224 504 l 1,29,-1
 1228 376 l 2,30,31
 1228 330 1228 330 1246 170 c 2,32,-1
 1264 -24 l 1,33,-1
 914 -102 l 2,34,35
 612 -170 612 -170 598 -232 c 1,36,37
 510 -188 510 -188 488 -82 c 1,38,39
 512 -58 512 -58 560 -40 c 2,40,-1
 634 -14 l 1,41,42
 676 24 676 24 695 107 c 128,-1,43
 714 190 714 190 714 324 c 1,44,45
 658 306 658 306 592 240 c 128,-1,46
 526 174 526 174 526 132 c 2,47,-1
 526 32 l 1,48,49
 436 32 436 32 396 56 c 0,50,51
 342 90 342 90 342 198 c 0,52,53
 342 366 342 366 430 606 c 1,54,55
 378 554 378 554 308 408 c 0,56,57
 226 234 226 234 226 118 c 0,58,59
 226 62 226 62 247 21 c 128,-1,60
 268 -20 268 -20 296 -24 c 1,61,62
 292 -54 292 -54 228 -54 c 0,63,64
 162 -54 162 -54 96 -20 c 128,-1,65
 30 14 30 14 30 68 c 0,66,67
 30 224 30 224 191 505 c 128,-1,68
 352 786 352 786 460 786 c 0,69,70
 528 786 528 786 562 776 c 128,-1,71
 596 766 596 766 634 716 c 1,72,73
 582 692 582 692 550 516 c 1,74,-1
 514 286 l 1,75,76
 576 380 576 380 675 462 c 128,-1,77
 774 544 774 544 830 544 c 0,78,79
 848 544 848 544 906 498 c 1,80,81
 906 414 906 414 890 324 c 0,82,83
 860 128 860 128 794 14 c 1,84,85
 1046 98 1046 98 1110 98 c 1,86,87
 1070 328 1070 328 1046 487 c 128,-1,88
 1022 646 1022 646 1022 740 c 1,89,90
 966 740 966 740 916 753 c 128,-1,91
 866 766 866 766 818 796 c 0,0,1
1280 1302 m 1,92,-1
 1250 1306 l 1,93,94
 1184 1306 1184 1306 1127 1230 c 128,-1,95
 1070 1154 1070 1154 1064 1090 c 1,96,97
 1118 1090 1118 1090 1190 1163 c 128,-1,98
 1262 1236 1262 1236 1280 1302 c 1,92,-1
EndSplineSet
Ligature2: "'abvs' Above Base Substitutions lookup 6 subtable" tm_nga tm_iikaar
EndChar

StartChar: tm_c_iikaar
Encoding: 65567 -1 144
Width: 976
GlyphClass: 2
Flags: W
LayerCount: 2
Fore
SplineSet
948 304 m 1,0,-1
 862 330 l 2,1,2
 798 348 798 348 744 348 c 0,3,4
 712 348 712 348 679 342 c 128,-1,5
 646 336 646 336 610 322 c 1,6,7
 578 36 578 36 550 -40 c 0,8,9
 478 -250 478 -250 284 -250 c 0,10,11
 198 -250 198 -250 112 -191 c 128,-1,12
 26 -132 26 -132 26 -70 c 0,13,14
 26 174 26 174 460 396 c 1,15,-1
 454 494 l 2,16,17
 448 550 448 550 422 588 c 1,18,19
 318 476 318 476 318 322 c 1,20,21
 284 318 284 318 236 351 c 128,-1,22
 188 384 188 384 188 422 c 0,23,24
 188 502 188 502 264 618 c 0,25,26
 326 712 326 712 360 734 c 1,27,28
 238 770 238 770 238 884 c 0,29,30
 238 1048 238 1048 403 1198 c 128,-1,31
 568 1348 568 1348 756 1348 c 0,32,33
 928 1348 928 1348 928 1218 c 0,34,35
 928 1118 928 1118 799 999 c 128,-1,36
 670 880 670 880 544 880 c 0,37,38
 508 880 508 880 484 903 c 128,-1,39
 460 926 460 926 460 960 c 0,40,41
 460 1016 460 1016 480 1038 c 1,42,43
 452 1032 452 1032 429 986 c 128,-1,44
 406 940 406 940 406 892 c 0,45,46
 406 852 406 852 432 828 c 2,47,-1
 486 784 l 1,48,49
 552 796 552 796 578 666 c 1,50,-1
 614 446 l 1,51,-1
 742 478 l 2,52,53
 806 496 806 496 864 496 c 0,54,55
 906 496 906 496 933 458 c 128,-1,56
 960 420 960 420 960 370 c 0,57,58
 960 338 960 338 948 304 c 1,0,-1
768 1226 m 1,59,-1
 748 1228 l 1,60,61
 688 1228 688 1228 620 1148 c 0,62,63
 560 1074 560 1074 560 1018 c 1,64,65
 610 1012 610 1012 692 1095 c 128,-1,66
 774 1178 774 1178 768 1226 c 1,59,-1
456 242 m 1,67,68
 370 208 370 208 282 89 c 128,-1,69
 194 -30 194 -30 194 -104 c 0,70,71
 194 -122 194 -122 198 -130 c 1,72,73
 214 -132 214 -132 222 -132 c 0,74,75
 324 -132 324 -132 398 -4 c 0,76,77
 458 104 458 104 458 206 c 0,78,79
 458 230 458 230 456 242 c 1,67,68
EndSplineSet
Ligature2: "'abvs' Above Base Substitutions lookup 6 subtable" tm_ca tm_iikaar
EndChar

StartChar: tm_j_iikaar
Encoding: 65568 -1 145
Width: 1144
GlyphClass: 2
Flags: W
LayerCount: 2
Fore
SplineSet
1302 1296 m 0,0,1
 1302 1158 1302 1158 1140 1034 c 0,2,3
 998 926 998 926 884 926 c 0,4,5
 852 926 852 926 827 953 c 128,-1,6
 802 980 802 980 802 1018 c 1,7,-1
 814 1058 l 1,8,-1
 830 1096 l 1,9,10
 804 1088 804 1088 776 1035 c 128,-1,11
 748 982 748 982 748 938 c 0,12,13
 748 872 748 872 822 834 c 1,14,-1
 894 842 l 1,15,16
 962 842 962 842 1015 780 c 128,-1,17
 1068 718 1068 718 1068 650 c 0,18,19
 1068 584 1068 584 1022 505 c 128,-1,20
 976 426 976 426 890 366 c 1,21,-1
 542 158 l 2,22,23
 388 64 388 64 330 12 c 0,24,25
 206 -96 206 -96 206 -200 c 0,26,27
 206 -220 206 -220 210 -230 c 1,28,29
 266 -230 266 -230 364 -132 c 2,30,-1
 564 74 l 1,31,32
 800 304 800 304 956 304 c 0,33,34
 1016 304 1016 304 1057 264 c 128,-1,35
 1098 224 1098 224 1098 150 c 0,36,37
 1098 -2 1098 -2 998 -178 c 1,38,-1
 868 -368 l 1,39,40
 670 -368 670 -368 670 -286 c 0,41,42
 670 -240 670 -240 810 -73 c 128,-1,43
 950 94 950 94 950 166 c 1,44,-1
 948 192 l 1,45,46
 872 192 872 192 626 -76 c 1,47,-1
 464 -246 l 1,48,49
 424 -282 424 -282 384 -302 c 128,-1,50
 344 -322 344 -322 310 -322 c 0,51,52
 178 -322 178 -322 110 -260 c 0,53,54
 50 -206 50 -206 50 -118 c 0,55,56
 50 42 50 42 326 208 c 1,57,-1
 602 358 l 1,58,59
 936 560 936 560 936 686 c 0,60,61
 936 710 936 710 922 726 c 1,62,63
 810 696 810 696 722 604 c 128,-1,64
 634 512 634 512 622 400 c 1,65,66
 590 400 590 400 566 401 c 128,-1,67
 542 402 542 402 508 409 c 128,-1,68
 474 416 474 416 456 458 c 1,69,70
 486 560 486 560 486 598 c 0,71,72
 486 628 486 628 476 650 c 1,73,-1
 386 598 l 1,74,75
 340 566 340 566 318 520 c 1,76,77
 362 514 362 514 392 483 c 128,-1,78
 422 452 422 452 422 420 c 0,79,80
 422 358 422 358 358 292 c 1,81,82
 286 224 286 224 214 224 c 0,83,84
 152 224 152 224 110 252 c 0,85,86
 54 290 54 290 54 362 c 0,87,88
 54 504 54 504 188 638 c 128,-1,89
 322 772 322 772 456 772 c 0,90,91
 522 772 522 772 592 676 c 1,92,93
 644 732 644 732 696 770 c 1,94,95
 648 788 648 788 610 832 c 128,-1,96
 572 876 572 876 572 918 c 0,97,98
 572 1096 572 1096 737 1261 c 128,-1,99
 902 1426 902 1426 1114 1426 c 0,100,101
 1192 1426 1192 1426 1247 1389 c 128,-1,102
 1302 1352 1302 1352 1302 1296 c 0,0,1
1116 1278 m 0,103,104
 1110 1284 1110 1284 1098 1284 c 0,105,106
 1038 1284 1038 1284 966 1194 c 0,107,108
 912 1128 912 1128 912 1088 c 0,109,110
 912 1076 912 1076 918 1064 c 1,111,112
 972 1074 972 1074 1048 1146 c 128,-1,113
 1124 1218 1124 1218 1124 1264 c 1,114,115
 1120 1276 1120 1276 1116 1278 c 0,103,104
272 474 m 1,116,117
 256 466 256 466 232 426 c 0,118,119
 212 386 212 386 212 358 c 0,120,121
 212 338 212 338 222 328 c 1,122,123
 244 334 244 334 268 366 c 0,124,125
 278 380 278 380 284 396 c 128,-1,126
 290 412 290 412 290 430 c 0,127,128
 290 456 290 456 272 474 c 1,116,117
EndSplineSet
Ligature2: "'abvs' Above Base Substitutions lookup 6 subtable" tm_ja tm_iikaar
EndChar

StartChar: tm_ny_iikaar
Encoding: 65569 -1 146
Width: 1596
GlyphClass: 2
Flags: W
LayerCount: 2
Fore
SplineSet
722 76 m 1,0,1
 756 100 756 100 756 156 c 0,2,3
 756 224 756 224 714 284 c 0,4,5
 686 324 686 324 652 324 c 0,6,7
 642 324 642 324 626 318 c 1,8,9
 620 306 620 306 620 276 c 0,10,11
 620 212 620 212 647 144 c 128,-1,12
 674 76 674 76 722 76 c 1,0,1
1164 824 m 1,13,-1
 1298 756 l 1,14,15
 1254 742 1254 742 1214 558 c 0,16,17
 1198 488 1198 488 1190 412 c 128,-1,18
 1182 336 1182 336 1182 284 c 1,19,-1
 1298 444 l 1,20,21
 1344 498 1344 498 1382 523 c 128,-1,22
 1420 548 1420 548 1456 548 c 0,23,24
 1494 548 1494 548 1566 506 c 1,25,-1
 1556 366 l 1,26,-1
 1548 226 l 1,27,28
 1548 -16 1548 -16 1327 -187 c 128,-1,29
 1106 -358 1106 -358 822 -358 c 0,30,31
 482 -358 482 -358 256 -183 c 128,-1,32
 30 -8 30 -8 30 244 c 0,33,34
 30 420 30 420 144 564 c 0,35,36
 246 694 246 694 348 694 c 0,37,38
 388 694 388 694 441 657 c 128,-1,39
 494 620 494 620 494 586 c 1,40,41
 372 566 372 566 299 446 c 128,-1,42
 226 326 226 326 226 176 c 0,43,44
 226 -22 226 -22 390 -136 c 0,45,46
 536 -236 536 -236 756 -236 c 0,47,48
 1104 -236 1104 -236 1266 -54 c 0,49,50
 1294 -22 1294 -22 1314 19 c 128,-1,51
 1334 60 1334 60 1348 114 c 0,52,53
 1356 148 1356 148 1362 180 c 0,54,55
 1378 268 1378 268 1378 344 c 1,56,-1
 1282 256 l 1,57,58
 1210 178 1210 178 1210 114 c 0,59,60
 1210 90 1210 90 1220 68 c 2,61,-1
 1240 22 l 1,62,-1
 1142 16 l 1,63,64
 1066 16 1066 16 1034 52 c 128,-1,65
 1002 88 1002 88 1002 184 c 0,66,67
 1002 524 1002 524 1086 702 c 1,68,-1
 962 678 l 1,69,70
 854 650 854 650 780 598 c 0,71,72
 680 528 680 528 644 406 c 1,73,74
 660 410 660 410 674 412 c 128,-1,75
 688 414 688 414 704 416 c 0,76,77
 784 416 784 416 849 362 c 128,-1,78
 914 308 914 308 914 230 c 0,79,80
 914 116 914 116 845 48 c 128,-1,81
 776 -20 776 -20 668 -20 c 256,82,83
 560 -20 560 -20 489 53 c 128,-1,84
 418 126 418 126 418 240 c 0,85,86
 418 530 418 530 692 694 c 0,87,88
 752 730 752 730 823 756 c 128,-1,89
 894 782 894 782 968 798 c 1,90,91
 872 852 872 852 872 958 c 0,92,93
 872 1116 872 1116 1020 1266 c 0,94,95
 1178 1424 1178 1424 1366 1424 c 0,96,97
 1536 1424 1536 1424 1536 1282 c 0,98,99
 1536 1176 1536 1176 1404 1062 c 0,100,101
 1340 1008 1340 1008 1282 980 c 128,-1,102
 1224 952 1224 952 1174 952 c 0,103,104
 1138 952 1138 952 1114 970 c 128,-1,105
 1090 988 1090 988 1090 1016 c 0,106,107
 1090 1072 1090 1072 1102 1112 c 1,108,109
 1036 1064 1036 1064 1036 966 c 0,110,111
 1036 918 1036 918 1078 882 c 1,112,-1
 1164 824 l 1,13,-1
1360 1300 m 0,113,114
 1290 1306 1290 1306 1236 1228 c 128,-1,115
 1182 1150 1182 1150 1182 1082 c 1,116,117
 1234 1096 1234 1096 1299 1165 c 128,-1,118
 1364 1234 1364 1234 1364 1282 c 0,119,120
 1362 1296 1362 1296 1360 1300 c 0,113,114
EndSplineSet
Ligature2: "'abvs' Above Base Substitutions lookup 6 subtable" tm_nya tm_iikaar
EndChar

StartChar: tm_tt_iikaar
Encoding: 65570 -1 147
Width: 1076
GlyphClass: 2
Flags: W
LayerCount: 2
Fore
SplineSet
1060 106 m 0,0,1
 1060 50 1060 50 830 -16 c 0,2,3
 614 -74 614 -74 464 -74 c 0,4,5
 266 -74 266 -74 148 37 c 128,-1,6
 30 148 30 148 30 336 c 0,7,8
 30 566 30 566 104 690 c 1,9,10
 126 714 126 714 188 714 c 0,11,12
 240 714 240 714 276 686 c 1,13,-1
 322 636 l 1,14,15
 200 606 200 606 200 306 c 0,16,17
 200 170 200 170 281 107 c 128,-1,18
 362 44 362 44 530 44 c 1,19,20
 430 96 430 96 394 182 c 0,21,22
 384 210 384 210 378 255 c 128,-1,23
 372 300 372 300 372 364 c 0,24,25
 372 530 372 530 487 683 c 128,-1,26
 602 836 602 836 726 836 c 0,27,28
 772 836 772 836 805 773 c 128,-1,29
 838 710 838 710 838 644 c 0,30,31
 838 508 838 508 779 388 c 128,-1,32
 720 268 720 268 626 268 c 0,33,34
 592 268 592 268 568 306 c 1,35,-1
 542 372 l 1,36,37
 530 360 530 360 530 310 c 0,38,39
 530 258 530 258 567 212 c 128,-1,40
 604 166 604 166 660 166 c 1,41,-1
 696 172 l 1,42,-1
 700 158 l 1,43,44
 700 132 700 132 656 76 c 1,45,46
 902 146 902 146 902 176 c 1,47,-1
 894 198 l 1,48,-1
 888 222 l 1,49,-1
 908 224 l 1,50,51
 960 224 960 224 1010 190 c 128,-1,52
 1060 156 1060 156 1060 106 c 0,0,1
664 686 m 0,53,54
 640 686 640 686 617 631 c 128,-1,55
 594 576 594 576 594 516 c 0,56,57
 594 442 594 442 626 402 c 1,58,59
 688 470 688 470 688 610 c 0,60,61
 688 682 688 682 664 686 c 0,53,54
EndSplineSet
Ligature2: "'abvs' Above Base Substitutions lookup 5 subtable" tm_tta tm_iikaar
EndChar

StartChar: tm_nn_iikaar
Encoding: 65571 -1 148
Width: 1648
GlyphClass: 2
Flags: W
LayerCount: 2
Fore
SplineSet
1990 1226 m 0,0,1
 1990 1112 1990 1112 1858 1000 c 128,-1,2
 1726 888 1726 888 1588 888 c 0,3,4
 1556 888 1556 888 1535 908 c 128,-1,5
 1514 928 1514 928 1510 954 c 1,6,7
 1510 982 1510 982 1544 1058 c 1,8,9
 1510 1046 1510 1046 1481 996 c 128,-1,10
 1452 946 1452 946 1452 892 c 0,11,12
 1452 844 1452 844 1512 810 c 1,13,-1
 1614 770 l 1,14,15
 1608 686 1608 686 1603 603 c 128,-1,16
 1598 520 1598 520 1598 460 c 2,17,-1
 1588 144 l 1,18,19
 1588 -154 1588 -154 1660 -506 c 1,20,21
 1628 -538 1628 -538 1570 -568 c 128,-1,22
 1512 -598 1512 -598 1476 -598 c 0,23,24
 1446 -598 1446 -598 1446 -300 c 2,25,-1
 1446 124 l 2,26,27
 1446 460 1446 460 1418 578 c 1,28,-1
 1338 516 l 1,29,30
 1388 444 1388 444 1388 320 c 0,31,32
 1388 166 1388 166 1286 58 c 0,33,34
 1234 6 1234 6 1172 -20 c 128,-1,35
 1110 -46 1110 -46 1030 -46 c 0,36,37
 896 -46 896 -46 872 154 c 1,38,39
 846 94 846 94 764 40 c 0,40,41
 720 10 720 10 680 -4 c 128,-1,42
 640 -18 640 -18 592 -18 c 0,43,44
 538 -18 538 -18 486 22 c 1,45,46
 442 62 442 62 416 124 c 1,47,-1
 312 50 l 1,48,49
 256 16 256 16 188 16 c 0,50,51
 126 16 126 16 77 77 c 128,-1,52
 28 138 28 138 28 212 c 0,53,54
 28 354 28 354 204 524 c 0,55,56
 390 700 390 700 562 700 c 0,57,58
 666 700 666 700 772 628 c 1,59,60
 876 692 876 692 1046 692 c 0,61,62
 1108 692 1108 692 1218 634 c 1,63,-1
 1304 704 l 2,64,65
 1352 740 1352 740 1380 750 c 1,66,67
 1328 780 1328 780 1308 819 c 128,-1,68
 1288 858 1288 858 1288 938 c 0,69,70
 1288 1068 1288 1068 1442 1204 c 0,71,72
 1612 1350 1612 1350 1810 1350 c 0,73,74
 1990 1350 1990 1350 1990 1226 c 0,0,1
1826 1218 m 0,75,76
 1816 1230 1816 1230 1798 1230 c 0,77,78
 1748 1230 1748 1230 1667 1141 c 128,-1,79
 1586 1052 1586 1052 1602 1030 c 1,80,-1
 1624 1022 l 1,81,82
 1672 1022 1672 1022 1758 1107 c 128,-1,83
 1844 1192 1844 1192 1826 1218 c 0,75,76
672 566 m 1,84,85
 638 596 638 596 558 596 c 0,86,87
 530 596 530 596 455 543 c 128,-1,88
 380 490 380 490 354 458 c 1,89,90
 424 436 424 436 480 358 c 1,91,92
 548 462 548 462 672 566 c 1,84,85
1138 558 m 1,93,-1
 1086 566 l 1,94,95
 1030 566 1030 566 969 547 c 128,-1,96
 908 528 908 528 884 500 c 1,97,98
 908 462 908 462 918 404 c 2,99,-1
 930 304 l 1,100,101
 986 384 986 384 1052 458 c 2,102,-1
 1138 558 l 1,93,-1
308 378 m 1,103,104
 292 378 292 378 256 310 c 1,105,106
 224 240 224 240 224 202 c 0,107,108
 224 184 224 184 234 178 c 0,109,110
 252 172 252 172 302 226 c 0,111,112
 352 286 352 286 352 328 c 0,113,114
 352 364 352 364 308 378 c 1,103,104
762 436 m 1,115,116
 738 428 738 428 649 309 c 128,-1,117
 560 190 560 190 560 138 c 0,118,119
 560 114 560 114 582 112 c 0,120,121
 634 112 634 112 710 242 c 0,122,123
 768 338 768 338 768 400 c 0,124,125
 768 420 768 420 762 436 c 1,115,116
1246 428 m 1,126,127
 1210 422 1210 422 1130 303 c 128,-1,128
 1050 184 1050 184 1050 124 c 0,129,130
 1050 92 1050 92 1078 90 c 0,131,132
 1132 90 1132 90 1198 226 c 0,133,134
 1250 336 1250 336 1250 396 c 0,135,136
 1250 408 1250 408 1246 428 c 1,126,127
EndSplineSet
Ligature2: "'abvs' Above Base Substitutions lookup 6 subtable" tm_nna tm_iikaar
EndChar

StartChar: tm_t_iikaar
Encoding: 65572 -1 149
Width: 968
GlyphClass: 2
Flags: W
LayerCount: 2
Fore
SplineSet
938 268 m 0,0,1
 938 116 938 116 836 -50 c 128,-1,2
 734 -216 734 -216 564 -358 c 0,3,4
 322 -554 322 -554 88 -554 c 0,5,6
 18 -554 18 -554 -56 -518 c 128,-1,7
 -130 -482 -130 -482 -130 -422 c 0,8,9
 -130 -372 -130 -372 -112 -318 c 1,10,-1
 -80 -242 l 1,11,12
 -50 -294 -50 -294 20 -320 c 128,-1,13
 90 -346 90 -346 204 -346 c 0,14,15
 290 -346 290 -346 409 -282 c 128,-1,16
 528 -218 528 -218 606 -123 c 128,-1,17
 684 -28 684 -28 732 103 c 128,-1,18
 780 234 780 234 780 326 c 0,19,20
 780 400 780 400 698 400 c 0,21,22
 642 400 642 400 596 362 c 1,23,24
 596 276 596 276 584 197 c 128,-1,25
 572 118 572 118 542 42 c 0,26,27
 454 -184 454 -184 270 -184 c 0,28,29
 212 -184 212 -184 124 -130 c 0,30,31
 30 -70 30 -70 30 -4 c 0,32,33
 30 152 30 152 214 300 c 0,34,35
 358 414 358 414 468 438 c 1,36,37
 452 520 452 520 442 626 c 1,38,39
 382 584 382 584 344 496 c 0,40,41
 316 428 316 428 316 372 c 1,42,43
 246 380 246 380 200 438 c 1,44,45
 200 496 200 496 240 580 c 128,-1,46
 280 664 280 664 362 768 c 1,47,48
 306 768 306 768 276 818 c 128,-1,49
 246 868 246 868 246 934 c 0,50,51
 246 1074 246 1074 340 1194 c 0,52,53
 422 1298 422 1298 550 1360 c 0,54,55
 652 1408 652 1408 744 1408 c 0,56,57
 900 1408 900 1408 900 1280 c 0,58,59
 900 1170 900 1170 788 1050 c 0,60,61
 666 922 666 922 538 922 c 0,62,63
 460 922 460 922 460 998 c 0,64,65
 460 1032 460 1032 480 1080 c 1,66,67
 408 1050 408 1050 408 926 c 0,68,69
 408 884 408 884 452 848 c 0,70,71
 486 820 486 820 522 814 c 1,72,-1
 550 788 l 1,73,74
 574 720 574 720 596 480 c 1,75,76
 632 488 632 488 659 492 c 128,-1,77
 686 496 686 496 718 496 c 0,78,79
 938 496 938 496 938 268 c 0,0,1
742 1276 m 1,80,81
 732 1282 732 1282 720 1282 c 0,82,83
 666 1282 666 1282 600 1196 c 128,-1,84
 534 1110 534 1110 546 1056 c 1,85,86
 624 1066 624 1066 686 1150 c 0,87,88
 732 1214 732 1214 742 1276 c 1,80,81
468 304 m 1,89,90
 420 304 420 304 304 164 c 128,-1,91
 188 24 188 24 200 -80 c 1,92,93
 314 -80 314 -80 402 64 c 0,94,95
 468 178 468 178 468 304 c 1,89,90
EndSplineSet
Ligature2: "'abvs' Above Base Substitutions lookup 6 subtable" tm_ta tm_iikaar
EndChar

StartChar: tm_n_iikaar
Encoding: 65573 -1 150
Width: 868
GlyphClass: 2
Flags: W
LayerCount: 2
Fore
SplineSet
930 1258 m 0,0,1
 930 1152 930 1152 798 1038 c 0,2,3
 734 984 734 984 676 956 c 128,-1,4
 618 928 618 928 568 928 c 0,5,6
 532 928 532 928 508 946 c 128,-1,7
 484 964 484 964 484 992 c 0,8,9
 484 1048 484 1048 496 1088 c 1,10,11
 430 1040 430 1040 430 942 c 0,12,13
 430 894 430 894 472 858 c 1,14,-1
 558 800 l 1,15,-1
 572 758 l 1,16,17
 510 644 510 644 510 424 c 0,18,19
 510 396 510 396 510 375 c 128,-1,20
 510 354 510 354 518 316 c 1,21,22
 686 556 686 556 762 556 c 0,23,24
 784 556 784 556 810 540 c 128,-1,25
 836 524 836 524 838 504 c 0,26,27
 838 364 838 364 829 290 c 128,-1,28
 820 216 820 216 802 102 c 128,-1,29
 784 -12 784 -12 726 -126 c 0,30,31
 632 -308 632 -308 467 -415 c 128,-1,32
 302 -522 302 -522 120 -522 c 0,33,34
 42 -522 42 -522 -16 -492 c 0,35,36
 -84 -454 -84 -454 -84 -384 c 0,37,38
 -84 -306 -84 -306 -26 -184 c 1,39,40
 16 -302 16 -302 212 -302 c 0,41,42
 458 -302 458 -302 588 -88 c 0,43,44
 680 68 680 68 680 240 c 2,45,-1
 680 292 l 2,46,47
 680 308 680 308 680 326 c 0,48,49
 676 346 676 346 676 354 c 1,50,-1
 596 288 l 1,51,52
 538 224 538 224 538 150 c 0,53,54
 538 108 538 108 558 62 c 1,55,-1
 534 40 l 1,56,57
 398 68 398 68 366 111 c 128,-1,58
 334 154 334 154 334 304 c 0,59,60
 334 386 334 386 388 620 c 1,61,62
 334 540 334 540 280 408 c 0,63,64
 220 258 220 258 220 162 c 0,65,66
 220 60 220 60 288 12 c 1,67,68
 266 6 266 6 243 2 c 128,-1,69
 220 -2 220 -2 188 -2 c 0,70,71
 30 -2 30 -2 30 86 c 0,72,73
 30 202 30 202 151 450 c 128,-1,74
 272 698 272 698 362 774 c 1,75,76
 266 828 266 828 266 934 c 0,77,78
 266 1092 266 1092 414 1242 c 0,79,80
 572 1400 572 1400 760 1400 c 0,81,82
 930 1400 930 1400 930 1258 c 0,0,1
754 1276 m 0,83,84
 684 1282 684 1282 630 1204 c 128,-1,85
 576 1126 576 1126 576 1058 c 1,86,87
 628 1072 628 1072 693 1141 c 128,-1,88
 758 1210 758 1210 758 1258 c 0,89,90
 756 1272 756 1272 754 1276 c 0,83,84
EndSplineSet
Ligature2: "'abvs' Above Base Substitutions lookup 6 subtable" tm_na tm_iikaar
EndChar

StartChar: tm_nnn_iikaar
Encoding: 65574 -1 151
Width: 1168
GlyphClass: 2
Flags: W
LayerCount: 2
Fore
SplineSet
1454 1362 m 0,0,1
 1454 1246 1454 1246 1320 1120 c 0,2,3
 1174 986 1174 986 1048 986 c 0,4,5
 1020 986 1020 986 990 1010 c 1,6,7
 964 1036 964 1036 964 1066 c 0,8,9
 964 1084 964 1084 975 1112 c 128,-1,10
 986 1140 986 1140 986 1162 c 1,11,12
 914 1072 914 1072 914 990 c 0,13,14
 914 952 914 952 942 923 c 128,-1,15
 970 894 970 894 1002 890 c 1,16,17
 1100 890 1100 890 1140 870 c 1,18,-1
 1120 610 l 1,19,20
 1120 550 1120 550 1115 457 c 128,-1,21
 1110 364 1110 364 1110 348 c 0,22,23
 1110 172 1110 172 1132 -70 c 1,24,25
 1132 -226 1132 -226 1152 -321 c 128,-1,26
 1172 -416 1172 -416 1198 -448 c 1,27,28
 1164 -488 1164 -488 1006 -570 c 1,29,30
 990 -558 990 -558 978 -508 c 128,-1,31
 966 -458 966 -458 966 -370 c 2,32,-1
 964 -32 l 2,33,34
 964 4 964 4 960 138 c 128,-1,35
 956 272 956 272 956 374 c 2,36,-1
 952 636 l 1,37,-1
 898 602 l 1,38,39
 846 564 846 564 840 544 c 1,40,41
 906 460 906 460 906 328 c 256,42,43
 906 196 906 196 794 86 c 128,-1,44
 682 -24 682 -24 586 -24 c 0,45,46
 524 -24 524 -24 470 24 c 0,47,48
 428 60 428 60 406 114 c 1,49,50
 324 -2 324 -2 252 -2 c 0,51,52
 190 -2 190 -2 114 50 c 0,53,54
 30 108 30 108 30 168 c 0,55,56
 30 346 30 346 196 524 c 128,-1,57
 362 702 362 702 536 702 c 0,58,59
 624 702 624 702 718 656 c 1,60,61
 780 714 780 714 898 802 c 1,62,63
 728 844 728 844 728 994 c 0,64,65
 728 1164 728 1164 904 1325 c 128,-1,66
 1080 1486 1080 1486 1286 1486 c 0,67,68
 1350 1486 1350 1486 1402 1455 c 128,-1,69
 1454 1424 1454 1424 1454 1362 c 0,0,1
1274 1354 m 1,70,71
 1232 1354 1232 1354 1198 1335 c 128,-1,72
 1164 1316 1164 1316 1132 1272 c 0,73,74
 1072 1192 1072 1192 1078 1128 c 1,75,76
 1122 1128 1122 1128 1201 1215 c 128,-1,77
 1280 1302 1280 1302 1274 1354 c 1,70,71
644 590 m 1,78,79
 636 592 636 592 616 592 c 0,80,81
 560 592 560 592 482 550 c 0,82,83
 390 500 390 500 364 444 c 1,84,85
 396 424 396 424 460 352 c 1,86,87
 574 526 574 526 644 590 c 1,78,79
302 374 m 1,88,89
 278 356 278 356 252 305 c 128,-1,90
 226 254 226 254 226 218 c 0,91,92
 226 192 226 192 244 186 c 1,93,94
 280 194 280 194 308 232 c 128,-1,95
 336 270 336 270 336 308 c 0,96,97
 336 348 336 348 302 374 c 1,88,89
740 444 m 1,98,99
 686 414 686 414 627 310 c 128,-1,100
 568 206 568 206 568 146 c 0,101,102
 568 122 568 122 582 114 c 1,103,104
 636 114 636 114 692 224 c 0,105,106
 718 276 718 276 729 328 c 128,-1,107
 740 380 740 380 740 444 c 1,98,99
EndSplineSet
Ligature2: "'abvs' Above Base Substitutions lookup 6 subtable" tm_nnna tm_iikaar
EndChar

StartChar: tm_p_iikaar
Encoding: 65575 -1 152
Width: 1052
GlyphClass: 2
Flags: W
LayerCount: 2
Fore
SplineSet
1200 1224 m 0,0,1
 1200 1118 1200 1118 1070 1006 c 128,-1,2
 940 894 940 894 828 894 c 0,3,4
 724 894 724 894 724 970 c 0,5,6
 724 998 724 998 734 1020 c 2,7,-1
 754 1066 l 1,8,9
 696 1040 696 1040 625 921 c 128,-1,10
 554 802 554 802 554 724 c 0,11,12
 554 656 554 656 600 656 c 0,13,14
 630 656 630 656 682 740 c 0,15,16
 730 824 730 824 792 824 c 0,17,18
 894 824 894 824 958 728 c 1,19,20
 1008 644 1008 644 1008 528 c 0,21,22
 1008 330 1008 330 830 134 c 0,23,24
 644 -70 644 -70 428 -70 c 0,25,26
 244 -70 244 -70 142 58 c 128,-1,27
 40 186 40 186 40 386 c 0,28,29
 40 520 40 520 98 682 c 1,30,31
 128 702 128 702 184 702 c 0,32,33
 294 702 294 702 312 644 c 1,34,35
 276 626 276 626 246 532 c 1,36,37
 220 432 220 432 220 348 c 0,38,39
 220 210 220 210 257 143 c 128,-1,40
 294 76 294 76 390 76 c 0,41,42
 534 76 534 76 714 244 c 0,43,44
 908 426 908 426 908 616 c 0,45,46
 908 694 908 694 850 694 c 0,47,48
 830 694 830 694 737 619 c 128,-1,49
 644 544 644 544 562 544 c 0,50,51
 386 544 386 544 386 736 c 0,52,53
 386 818 386 818 440 939 c 128,-1,54
 494 1060 494 1060 582 1150 c 0,55,56
 780 1358 780 1358 1020 1358 c 0,57,58
 1200 1358 1200 1358 1200 1224 c 0,0,1
1046 1232 m 1,59,-1
 1022 1234 l 1,60,61
 958 1234 958 1234 890 1164 c 128,-1,62
 822 1094 822 1094 816 1036 c 1,63,-1
 840 1028 l 1,64,65
 888 1028 888 1028 961 1104 c 128,-1,66
 1034 1180 1034 1180 1046 1232 c 1,59,-1
EndSplineSet
Ligature2: "'abvs' Above Base Substitutions lookup 6 subtable" tm_pa tm_iikaar
EndChar

